<svg width="318" height="220" viewBox="0 0 318 220" fill="none" xmlns="http://www.w3.org/2000/svg">
<g clip-path="url(#clip0_8337_77585)">
<path d="M0 10C0 4.47716 4.47715 0 10 0H308C313.523 0 318 4.47715 318 10V210C318 215.523 313.523 220 308 220H9.99999C4.47714 220 0 215.523 0 210V10Z" fill="#1EB87B" fill-opacity="0.7"/>
<foreignObject x="70.0364" y="25.0364" width="174.953" height="255.681"><div xmlns="http://www.w3.org/1999/xhtml" style="backdrop-filter:blur(1.98px);clip-path:url(#bgblur_1_8337_77585_clip_path);height:100%;width:100%"></div></foreignObject><path data-figma-bg-blur-radius="3.96362" d="M241.026 112.746C241.026 158.998 188.83 276.754 157.513 276.754C126.195 276.754 74 158.998 74 112.746C74 66.4944 115.621 29 157.513 29C199.404 29 241.026 66.4944 241.026 112.746Z" fill="white"/>
<ellipse cx="107.407" cy="122.727" rx="10.2071" ry="13.9188" fill="black"/>
<path d="M191.74 123.068C191.74 139.659 179.923 153.108 165.347 153.108C150.771 153.108 138.954 139.659 138.954 123.068C138.954 106.477 150.771 93.0273 165.347 93.0273C179.923 93.0273 191.74 106.477 191.74 123.068Z" fill="black"/>
<ellipse cx="158.04" cy="119.832" rx="13.5182" ry="18.4534" fill="white"/>
</g>
<defs>
<clipPath id="bgblur_1_8337_77585_clip_path" transform="translate(-70.0364 -25.0364)"><path d="M241.026 112.746C241.026 158.998 188.83 276.754 157.513 276.754C126.195 276.754 74 158.998 74 112.746C74 66.4944 115.621 29 157.513 29C199.404 29 241.026 66.4944 241.026 112.746Z"/>
</clipPath><clipPath id="clip0_8337_77585">
<path d="M0 10C0 4.47716 4.47715 0 10 0H308C313.523 0 318 4.47715 318 10V210C318 215.523 313.523 220 308 220H9.99999C4.47714 220 0 215.523 0 210V10Z" fill="white"/>
</clipPath>
</defs>
</svg>
