<svg width="50" height="50" viewBox="0 0 50 50" fill="none" xmlns="http://www.w3.org/2000/svg">
<foreignObject x="7.87695" y="3.29517" width="36.0457" height="34.5715"><div xmlns="http://www.w3.org/1999/xhtml" style="backdrop-filter:blur(2.56px);clip-path:url(#bgblur_0_8292_77330_clip_path);height:100%;width:100%"></div></foreignObject><g opacity="0.5" filter="url(#filter0_d_8292_77330)" data-figma-bg-blur-radius="5.12671">
<path d="M30.2566 13.379C30.4591 13.4201 30.5464 13.5988 30.5193 13.734L30.0527 16.0301L28.975 21.3331L30.7976 21.7034L32.4049 22.0301L33.4826 16.7271L33.9492 14.431C34.3714 12.3517 33.0001 10.3649 30.9536 9.94906L23.8258 8.50062C21.7793 8.08474 19.7413 9.37866 19.3185 11.4579L18.8519 13.754L17.7743 19.0569L21.2042 19.7539L22.2818 14.451L22.7484 12.1549C22.7762 12.0198 22.9263 11.8894 23.1288 11.9305L30.2566 13.379Z" fill="white"/>
</g>
<foreignObject x="2.94448" y="10.7383" width="42.6934" height="32.6914"><div xmlns="http://www.w3.org/1999/xhtml" style="backdrop-filter:blur(1px);clip-path:url(#bgblur_1_8292_77330_clip_path);height:100%;width:100%"></div></foreignObject><path data-figma-bg-blur-radius="2" d="M14.387 13.2091L38.8251 18.1752C41.7158 18.7626 43.6548 21.4893 43.2212 24.376L43.1714 24.6558L40.7264 36.6873C40.1189 39.6756 37.1792 41.5649 34.1952 40.9585L9.75721 35.9924C6.77328 35.3861 4.80411 32.4992 5.41111 29.5108L7.85604 17.4794C8.46366 14.4913 11.4031 12.6027 14.387 13.2091Z" fill="url(#paint0_linear_8292_77330)" fill-opacity="0.9" stroke="url(#paint1_linear_8292_77330)" stroke-width="0.712744"/>
<foreignObject x="9.05018" y="11.0466" width="12.6338" height="28.6529"><div xmlns="http://www.w3.org/1999/xhtml" style="backdrop-filter:blur(1.72px);clip-path:url(#bgblur_2_8292_77330_clip_path);height:100%;width:100%"></div></foreignObject><g opacity="0.7" filter="url(#filter2_f_8292_77330)" data-figma-bg-blur-radius="3.44948">
<path d="M13.7345 36.2519L12.4998 36.001L16.9996 14.4977L18.2344 14.7486L13.7345 36.2519Z" fill="#0AA874"/>
</g>
<foreignObject x="25.3153" y="14.0505" width="12.8687" height="29.399"><div xmlns="http://www.w3.org/1999/xhtml" style="backdrop-filter:blur(1.72px);clip-path:url(#bgblur_3_8292_77330_clip_path);height:100%;width:100%"></div></foreignObject><g opacity="0.7" filter="url(#filter3_f_8292_77330)" data-figma-bg-blur-radius="3.44948">
<path d="M29.9994 40.0012L28.7646 39.7503L33.4997 17.5014L34.7345 17.7523L29.9994 40.0012Z" fill="#0AA874"/>
</g>
<defs>
<filter id="filter0_d_8292_77330" x="7.87695" y="3.29517" width="36.0457" height="34.5715" filterUnits="userSpaceOnUse" color-interpolation-filters="sRGB">
<feFlood flood-opacity="0" result="BackgroundImageFix"/>
<feColorMatrix in="SourceAlpha" type="matrix" values="0 0 0 0 0 0 0 0 0 0 0 0 0 0 0 0 0 0 127 0" result="hardAlpha"/>
<feOffset dy="5.93827"/>
<feGaussianBlur stdDeviation="4.94856"/>
<feComposite in2="hardAlpha" operator="out"/>
<feColorMatrix type="matrix" values="0 0 0 0 0 0 0 0 0 0 0 0 0 0 0 0 0 0 0.1 0"/>
<feBlend mode="normal" in2="BackgroundImageFix" result="effect1_dropShadow_8292_77330"/>
<feBlend mode="normal" in="SourceGraphic" in2="effect1_dropShadow_8292_77330" result="shape"/>
</filter>
<clipPath id="bgblur_0_8292_77330_clip_path" transform="translate(-7.87695 -3.29517)"><path d="M30.2566 13.379C30.4591 13.4201 30.5464 13.5988 30.5193 13.734L30.0527 16.0301L28.975 21.3331L30.7976 21.7034L32.4049 22.0301L33.4826 16.7271L33.9492 14.431C34.3714 12.3517 33.0001 10.3649 30.9536 9.94906L23.8258 8.50062C21.7793 8.08474 19.7413 9.37866 19.3185 11.4579L18.8519 13.754L17.7743 19.0569L21.2042 19.7539L22.2818 14.451L22.7484 12.1549C22.7762 12.0198 22.9263 11.8894 23.1288 11.9305L30.2566 13.379Z"/>
</clipPath><clipPath id="bgblur_1_8292_77330_clip_path" transform="translate(-2.94448 -10.7383)"><path d="M14.387 13.2091L38.8251 18.1752C41.7158 18.7626 43.6548 21.4893 43.2212 24.376L43.1714 24.6558L40.7264 36.6873C40.1189 39.6756 37.1792 41.5649 34.1952 40.9585L9.75721 35.9924C6.77328 35.3861 4.80411 32.4992 5.41111 29.5108L7.85604 17.4794C8.46366 14.4913 11.4031 12.6027 14.387 13.2091Z"/>
</clipPath><filter id="filter2_f_8292_77330" x="9.05018" y="11.0466" width="12.6338" height="28.6529" filterUnits="userSpaceOnUse" color-interpolation-filters="sRGB">
<feFlood flood-opacity="0" result="BackgroundImageFix"/>
<feBlend mode="normal" in="SourceGraphic" in2="BackgroundImageFix" result="shape"/>
<feGaussianBlur stdDeviation="0.172474" result="effect1_foregroundBlur_8292_77330"/>
</filter>
<clipPath id="bgblur_2_8292_77330_clip_path" transform="translate(-9.05018 -11.0466)"><path d="M13.7345 36.2519L12.4998 36.001L16.9996 14.4977L18.2344 14.7486L13.7345 36.2519Z"/>
</clipPath><filter id="filter3_f_8292_77330" x="25.3153" y="14.0505" width="12.8687" height="29.399" filterUnits="userSpaceOnUse" color-interpolation-filters="sRGB">
<feFlood flood-opacity="0" result="BackgroundImageFix"/>
<feBlend mode="normal" in="SourceGraphic" in2="BackgroundImageFix" result="shape"/>
<feGaussianBlur stdDeviation="0.172474" result="effect1_foregroundBlur_8292_77330"/>
</filter>
<clipPath id="bgblur_3_8292_77330_clip_path" transform="translate(-25.3153 -14.0505)"><path d="M29.9994 40.0012L28.7646 39.7503L33.4997 17.5014L34.7345 17.7523L29.9994 40.0012Z"/>
</clipPath><linearGradient id="paint0_linear_8292_77330" x1="14.8339" y1="20.0222" x2="60.0272" y2="50.1973" gradientUnits="userSpaceOnUse">
<stop stop-color="white"/>
<stop offset="1" stop-color="white" stop-opacity="0"/>
</linearGradient>
<linearGradient id="paint1_linear_8292_77330" x1="17.2174" y1="17.4675" x2="24.8009" y2="40.1465" gradientUnits="userSpaceOnUse">
<stop stop-color="white"/>
<stop offset="1" stop-color="white" stop-opacity="0"/>
</linearGradient>
</defs>
</svg>
