<svg width="123" height="150" viewBox="0 0 123 150" fill="none" xmlns="http://www.w3.org/2000/svg">
<path d="M55.2109 4.93652C82.6171 4.93652 105.485 29.1017 105.485 59.7461C105.485 76.8309 98.3237 92.0056 87.2061 102.02C82.5951 106.173 77.3111 109.433 71.5781 111.585C66.4494 113.51 60.9453 114.555 55.2109 114.555C27.805 114.555 4.93665 90.3903 4.93652 59.7461C4.93652 29.1018 27.8049 4.93668 55.2109 4.93652Z" stroke="#101010" stroke-width="9.87338"/>
<rect x="71.4512" y="110.43" width="26.9097" height="47.3239" transform="rotate(-33.4973 71.4512 110.43)" fill="black"/>
<path d="M121.279 137.651C111.628 145.817 101.483 141.054 97.6168 137.651C91.6781 129.486 100.091 119.402 105.04 115.381C106.525 114.268 108.565 113.787 109.029 114.405C109.029 114.405 110.885 114.405 116.916 123.684C122.948 132.964 122.484 134.819 122.484 134.819C123.226 135.933 121.588 137.187 121.279 137.651Z" fill="white"/>
</svg>
