<svg width="18" height="37" viewBox="0 0 18 37" fill="none" xmlns="http://www.w3.org/2000/svg">
<path d="M13.9414 1.59088C14.8355 1.80771 15.6624 2.42154 16.2056 3.2142C16.7615 4.02568 17.0758 5.10772 16.7942 6.26906L16.7916 6.2795L16.7882 6.28971L12.2554 23.4881L12.2531 23.4976L12.2501 23.5059C12.0793 24.1113 11.7984 24.8416 11.1301 25.2692C10.435 25.7138 9.64077 25.6355 8.96954 25.4727L6.2486 24.8128C5.57743 24.6501 4.83554 24.3557 4.42129 23.6421C4.02316 22.9559 4.107 22.1779 4.23253 21.5615L4.2337 21.5608L7.63928 4.10005L7.64431 4.07515L7.65006 4.05142C7.93171 2.89008 8.70585 2.07202 9.57173 1.60535C10.4177 1.14942 11.4338 0.982822 12.328 1.1996L13.9414 1.59088ZM11.2839 32.1346L11.2551 32.208C10.6124 33.8161 8.74237 35.5265 6.09142 35.3389L5.99853 35.3325L4.36806 34.937L4.27919 34.8974C3.21084 34.4286 2.34699 33.7635 1.78775 32.8562C1.22599 31.9446 1.03505 30.8919 1.13047 29.7656L1.13815 29.68L1.41596 28.5345C1.7433 27.1853 2.66303 26.2489 3.66707 25.7162C4.64905 25.1951 5.82427 24.9983 6.82031 25.2399L8.35113 25.6111L8.43237 25.6449C10.1529 26.3651 11.9686 28.2297 11.5798 30.894L11.5723 30.9454L11.2839 32.1346Z" fill="#23C491" stroke="white" stroke-width="2.21376"/>
</svg>
