<svg width="57" height="43" viewBox="0 0 57 43" fill="none" xmlns="http://www.w3.org/2000/svg">
<g opacity="0.9">
<path d="M1 32.5506V6.16563C1.57396 2.72188 14.775 1 15.9229 1C23.0658 0.999957 39.1506 2.05198 51.0853 5.66642C52.0293 5.95229 52.6579 6.82997 52.6601 7.81622L52.6764 14.8976C52.8083 14.8767 52.9278 14.8555 53.0377 14.834C54.3822 14.5709 55.6136 15.3998 55.6965 16.7673C56.074 22.9903 56.0405 27.2964 55.596 33.8595C55.5528 34.4982 55.2486 35.1014 54.7157 35.4562C52.0058 37.2605 48.7357 37.7334 44.0469 37.7334V38.7628C44.0469 40.076 42.9426 41.1223 41.6314 41.0494C26.9253 40.2315 17.7486 38.9132 2.67654 34.7566C1.68512 34.4832 1 33.579 1 32.5506Z" fill="#BF856B"/>
<path d="M1 6.16563V32.5505C1 33.579 1.68512 34.4832 2.67654 34.7566C17.7486 38.9132 26.9253 40.2315 41.6314 41.0494C42.9426 41.1223 44.0469 40.076 44.0469 38.7628V37.7334M1 6.16563C2.0258 2.06243 22.2998 4.98536 38.4813 8.7952C41.7743 9.57053 44.0469 12.5397 44.0469 15.9228M1 6.16563C1.57396 2.72188 14.775 1 15.9229 1C23.0658 0.999957 39.1506 2.05198 51.0853 5.66642C52.0293 5.95229 52.6579 6.82997 52.6601 7.81622L52.6764 14.8976M52.6764 14.8976C50.1376 15.2993 48.0647 16.4969 44.0469 15.9228M52.6764 14.8976C52.8083 14.8767 52.9278 14.8555 53.0377 14.834C54.3822 14.5709 55.6136 15.3998 55.6965 16.7673C56.074 22.9903 56.0405 27.2964 55.596 33.8595C55.5528 34.4982 55.2486 35.1014 54.7157 35.4562C52.0058 37.2605 48.7357 37.7334 44.0469 37.7334M44.0469 15.9228V37.7334" stroke="#705749" stroke-width="2"/>
<path d="M1 6.16563C2.05485 1.94622 23.4636 5.15656 39.8458 9.1209C42.3307 9.72223 44.0469 11.964 44.0469 14.5207C44.0469 15.3252 44.6388 16.0188 45.4423 16.0588C47.6554 16.169 49.2372 15.7215 50.7586 15.3245C51.8534 15.0389 52.6745 14.0633 52.6719 12.9319L52.6601 7.81622C52.6579 6.82997 52.0293 5.95229 51.0853 5.66642C39.1506 2.05198 23.0658 0.999957 15.9229 1C14.775 1 1.57396 2.72188 1 6.16563Z" fill="#8C6858" stroke="#705749" stroke-width="2"/>
<path d="M30.999 20.957C31.5065 20.6863 32.082 20.6007 32.6875 20.6738C38.9581 21.4319 42.2763 21.4697 46.2939 20.9814C48.0158 20.7722 49.7512 21.9168 49.959 23.7754C50.189 25.8363 50.1319 27.4414 49.877 29.3545C49.6863 30.7845 48.5607 31.8826 47.1631 32.0947C39.6917 33.228 36.5747 32.9927 32.71 31.9277C32.3444 31.827 31.8997 31.6414 31.5352 31.2656C30.8703 30.5801 30.35 29.5766 29.9854 28.5391C29.615 27.4854 29.3732 26.3046 29.3213 25.1963C29.2706 24.1144 29.395 22.9739 29.8809 22.0928C30.1325 21.6366 30.4955 21.2257 30.999 20.957Z" fill="#BF856B" stroke="#705749" stroke-width="2"/>
<path d="M38.7897 27.5998C38.461 28.9476 36.7502 29.688 34.9685 29.2535C33.1867 28.819 32.0088 27.3741 32.3375 26.0263C32.6662 24.6785 34.377 23.9382 36.1587 24.3727C37.9405 24.8072 39.1184 26.252 38.7897 27.5998Z" fill="#FCE2B5"/>
</g>
</svg>
