<svg width="56" height="46" viewBox="0 0 56 46" fill="none" xmlns="http://www.w3.org/2000/svg">
<path d="M16.5881 3.18619H18.2601V6.70619H16.5881V10.1602H12.6281V-0.00381291H16.5881V3.18619ZM0.132117 9.83019V0.216187H3.87212V2.15219H7.50212V0.216187H11.2421V9.83019H0.132117ZM7.50212 5.18819H3.87212V6.79419H7.50212V5.18819ZM0.748117 10.7102H16.5881V16.3862H4.64212V16.9362H16.7861V19.5102H0.704117V13.8122H12.6501V13.2842H0.748117V10.7102ZM19.3627 12.0962L18.7027 8.31219C24.2907 7.71819 26.2707 5.95819 26.3147 4.28619V3.95619H19.1867V0.436187H30.4947V1.77819H32.5407V-0.00381291H36.5007V13.7902H32.5407V10.3582H29.2627V7.67419C27.6347 9.87419 24.3567 11.5902 19.3627 12.0962ZM32.5407 5.07819H30.4067C30.2967 5.76019 30.0547 6.42019 29.6807 7.05819H32.5407V5.07819ZM23.8727 15.7702H36.6547V19.2902H20.0227V12.6682H23.8727V15.7702ZM9.08612 42.2762C8.62412 42.5402 7.65612 42.8482 6.27012 43.2002L6.07212 42.8262C4.95012 43.9262 2.90412 44.8282 0.418117 45.4002L0.0221172 43.3102C3.56412 42.2322 4.95012 41.2862 4.95012 39.8562V38.6022H7.45812V39.8562C7.45812 41.1762 7.74412 41.7042 9.08612 42.2762ZM18.1061 43.6182L17.5121 45.6862C15.3781 45.2242 13.6401 44.6302 12.6721 43.8822C11.4841 44.7622 9.76812 45.3122 7.19412 45.7522L6.53412 43.7502C10.6041 42.7602 11.3741 41.9022 11.3741 40.2302V38.6022H13.8821V40.2302C13.8821 41.8802 14.4981 42.5842 18.1061 43.6182ZM4.46612 37.7442C1.76012 37.7442 0.220117 36.9962 0.220117 34.8842C0.220117 32.8602 1.76012 32.0242 4.46612 32.0242C7.17212 32.0242 8.71212 32.8602 8.71212 34.8842C8.71212 36.9962 7.17212 37.7442 4.46612 37.7442ZM14.6521 32.8602H12.5621V37.8102H10.1641V26.1062H12.5621V30.5722H14.6521V25.9962H17.0501V37.8102H14.6521V32.8602ZM0.484117 27.6242L1.32012 25.6002C2.11212 25.9962 3.30012 26.2602 4.79612 26.2602H8.40412V28.3502H4.20212C2.59612 28.3502 1.32012 28.0862 0.484117 27.6242ZM8.91012 29.2302V31.3202H0.00011725V29.2302H8.91012ZM4.46612 35.7862C5.76412 35.7862 6.42412 35.5662 6.42412 34.8842C6.42412 34.2242 5.76412 33.9822 4.46612 33.9822C3.16812 33.9822 2.55212 34.2242 2.55212 34.8842C2.55212 35.5662 3.21212 35.7862 4.46612 35.7862ZM24.8627 44.3662C20.9467 44.3662 19.1207 42.2102 19.1207 35.2582C19.1207 28.3062 20.9467 26.1502 24.8627 26.1502C28.4707 26.1502 30.2967 27.9762 30.5607 33.7182H33.5307V25.9962H36.0607V45.0702H33.5307V36.0282H30.6047C30.4727 42.3642 28.6247 44.3662 24.8627 44.3662ZM24.8627 42.0562C26.9087 42.0562 28.0747 40.9122 28.0747 35.2582C28.0747 29.6042 26.9087 28.4602 24.8627 28.4602C22.8167 28.4602 21.6507 29.6042 21.6507 35.2582C21.6507 40.9122 22.8167 42.0562 24.8627 42.0562ZM38.3073 44.4102V42.1222H42.0253V37.8762C39.6933 36.9082 38.5713 35.0822 38.5713 32.3982C38.5713 28.3502 41.2333 26.1282 46.9753 26.1282C52.7173 26.1282 55.3793 28.3502 55.3793 32.3982C55.3793 35.0822 54.2573 36.9082 51.9253 37.8762V42.1222H55.6213V44.4102H38.3073ZM46.9753 36.3582C51.1553 36.3582 52.8273 35.0382 52.8273 32.3982C52.8273 29.7582 51.1553 28.4382 46.9753 28.4382C42.7953 28.4382 41.1233 29.7582 41.1233 32.3982C41.1233 35.0382 42.7953 36.3582 46.9753 36.3582ZM46.9753 38.6682C46.1173 38.6682 45.3473 38.6242 44.6213 38.5362V42.1222H49.3293V38.5362C48.6033 38.6242 47.8333 38.6682 46.9753 38.6682Z" fill="#173C28"/>
</svg>
