<svg width="56" height="46" viewBox="0 0 56 46" fill="none" xmlns="http://www.w3.org/2000/svg">
<path d="M6.75406 1.03144V-0.00256312H10.7141V1.03144C10.7141 2.37344 13.2661 3.51744 17.4681 4.13344L16.9841 7.30144C13.4421 6.90544 10.5601 5.98144 8.73406 4.79344C6.90806 5.98144 4.02606 6.90544 0.484063 7.30144L6.25551e-05 4.13344C4.20206 3.51744 6.75406 2.37344 6.75406 1.03144ZM0.0220625 11.1294V7.89544H17.4241V11.1294H0.0220625ZM16.9181 19.1814H0.572063V11.7014H4.42206V12.7134H13.0681V11.7014H16.9181V19.1814ZM13.0681 15.5294H4.42206V16.3654H13.0681V15.5294ZM36.0386 3.34144H23.5866V4.26544H36.1046V7.38944H19.7366V0.217437H36.0386V3.34144ZM19.1646 11.4154V8.11544H36.5666V11.4154H19.1646ZM32.1886 15.7934H19.5826V12.2734H36.0386V19.2914H32.1886V15.7934ZM9.13006 42.0574C8.66806 42.3214 7.70006 42.6294 6.31406 42.9814L6.11606 42.6074C4.99406 43.7074 2.94806 44.6094 0.462063 45.1814L0.0660625 43.0914C3.60806 42.0134 4.99406 41.0674 4.99406 39.6374V38.3834H7.50206V39.6374C7.50206 40.9574 7.78806 41.4854 9.13006 42.0574ZM18.1501 43.3994L17.5561 45.4674C15.4221 45.0054 13.6841 44.4114 12.7161 43.6634C11.5281 44.5434 9.81206 45.0934 7.23806 45.5334L6.57806 43.5314C10.6481 42.5414 11.4181 41.6834 11.4181 40.0114V38.3834H13.9261V40.0114C13.9261 41.6614 14.5421 42.3654 18.1501 43.3994ZM4.51006 37.5254C1.80406 37.5254 0.264063 36.7774 0.264063 34.6654C0.264063 32.6414 1.80406 31.8054 4.51006 31.8054C7.21606 31.8054 8.75606 32.6414 8.75606 34.6654C8.75606 36.7774 7.21606 37.5254 4.51006 37.5254ZM14.6961 32.6414H12.6061V37.5914H10.2081V25.8874H12.6061V30.3534H14.6961V25.7774H17.0941V37.5914H14.6961V32.6414ZM0.528063 27.4054L1.36406 25.3814C2.15606 25.7774 3.34406 26.0414 4.84006 26.0414H8.44806V28.1314H4.24606C2.64006 28.1314 1.36406 27.8674 0.528063 27.4054ZM8.95406 29.0114V31.1014H0.0440626V29.0114H8.95406ZM4.51006 35.5674C5.80806 35.5674 6.46806 35.3474 6.46806 34.6654C6.46806 34.0054 5.80806 33.7634 4.51006 33.7634C3.21206 33.7634 2.59606 34.0054 2.59606 34.6654C2.59606 35.3474 3.25606 35.5674 4.51006 35.5674ZM24.9066 44.1474C20.9906 44.1474 19.1646 41.9914 19.1646 35.0394C19.1646 28.0874 20.9906 25.9314 24.9066 25.9314C28.5146 25.9314 30.3406 27.7574 30.6046 33.4994H33.5746V25.7774H36.1046V44.8514H33.5746V35.8094H30.6486C30.5166 42.1454 28.6686 44.1474 24.9066 44.1474ZM24.9066 41.8374C26.9526 41.8374 28.1186 40.6934 28.1186 35.0394C28.1186 29.3854 26.9526 28.2414 24.9066 28.2414C22.8606 28.2414 21.6946 29.3854 21.6946 35.0394C21.6946 40.6934 22.8606 41.8374 24.9066 41.8374ZM38.3512 44.1914V41.9034H42.0692V37.6574C39.7372 36.6894 38.6152 34.8634 38.6152 32.1794C38.6152 28.1314 41.2772 25.9094 47.0192 25.9094C52.7612 25.9094 55.4232 28.1314 55.4232 32.1794C55.4232 34.8634 54.3012 36.6894 51.9692 37.6574V41.9034H55.6652V44.1914H38.3512ZM47.0192 36.1394C51.1992 36.1394 52.8712 34.8194 52.8712 32.1794C52.8712 29.5394 51.1992 28.2194 47.0192 28.2194C42.8392 28.2194 41.1672 29.5394 41.1672 32.1794C41.1672 34.8194 42.8392 36.1394 47.0192 36.1394ZM47.0192 38.4494C46.1612 38.4494 45.3912 38.4054 44.6652 38.3174V41.9034H49.3732V38.3174C48.6472 38.4054 47.8772 38.4494 47.0192 38.4494Z" fill="#173C28"/>
</svg>
