<svg width="60" height="45" viewBox="0 0 60 45" fill="none" xmlns="http://www.w3.org/2000/svg">
<g opacity="0.5">
<path d="M1.0498 34.168V6.46965C1.65234 2.85447 15.5105 1.04688 16.7156 1.04688C24.2141 1.04683 41.0995 2.15122 53.6284 5.94559C54.6193 6.24569 55.2792 7.16705 55.2816 8.20241L55.2987 15.6363C55.4372 15.6144 55.5625 15.5921 55.6779 15.5696C57.0894 15.2933 58.382 16.1635 58.4691 17.5991C58.8654 24.1318 58.8302 28.6523 58.3636 35.5421C58.3182 36.2126 57.9989 36.8458 57.4395 37.2183C54.5947 39.1124 51.1618 39.6088 46.2396 39.6088V40.6895C46.2396 42.0681 45.0803 43.1664 43.7039 43.0899C28.2657 42.2313 18.6321 40.8473 2.8098 36.4839C1.76903 36.1969 1.0498 35.2476 1.0498 34.168Z" fill="#BF856B" fill-opacity="0.5"/>
<path d="M1.0498 6.46965V34.168C1.0498 35.2476 1.76903 36.1969 2.8098 36.4839C18.6321 40.8473 28.2657 42.2313 43.7039 43.0899C45.0803 43.1664 46.2396 42.0681 46.2396 40.6895V39.6088M1.0498 6.46965C2.12667 2.16219 23.4099 5.23062 40.3969 9.23011C43.8539 10.044 46.2396 13.161 46.2396 16.7125M1.0498 6.46965C1.65234 2.85447 15.5105 1.04688 16.7156 1.04688C24.2141 1.04683 41.0995 2.15122 53.6284 5.94559C54.6193 6.24569 55.2792 7.16705 55.2816 8.20241L55.2987 15.6363M55.2987 15.6363C52.6335 16.058 50.4573 17.3152 46.2396 16.7125M55.2987 15.6363C55.4372 15.6144 55.5625 15.5921 55.6779 15.5696C57.0894 15.2933 58.382 16.1635 58.4691 17.5991C58.8654 24.1318 58.8303 28.6523 58.3636 35.5421C58.3182 36.2126 57.9989 36.8458 57.4395 37.2183C54.5947 39.1124 51.1618 39.6088 46.2396 39.6088M46.2396 16.7125V39.6088" stroke="#462918" stroke-width="2.09956" stroke-linecap="round" stroke-dasharray="7 4"/>
</g>
<path opacity="0.5" d="M1.0498 6.46965C2.15831 2.03563 24.6781 5.41732 41.8825 9.58492C44.4597 10.2092 46.2396 12.5342 46.2396 15.1859C46.2396 16.0619 46.8841 16.8177 47.7591 16.858C50.0538 16.9636 51.7008 16.4979 53.2854 16.0845C54.4347 15.7846 55.2967 14.7605 55.2939 13.5727L55.2816 8.20241C55.2792 7.16705 54.6193 6.24569 53.6284 5.94559C41.0995 2.15122 24.2141 1.04683 16.7156 1.04688C15.5105 1.04688 1.65234 2.85447 1.0498 6.46965Z" fill="#8C6858" fill-opacity="0.5"/>
<path opacity="0.5" d="M31.8516 22.5195C32.4746 21.8665 33.3308 21.5765 34.3145 21.6953C35.5994 21.8506 36.7658 21.977 37.8418 22.0762L38.8887 22.166C39.4634 22.212 39.8924 22.713 39.8516 23.2871C40.9967 23.3616 42.0481 23.4005 43.0508 23.4053C43.0472 22.8321 43.5053 22.361 44.0801 22.3496C45.6038 22.3201 47.0479 22.207 48.5986 22.0186C49.1711 21.949 49.7367 22.0204 50.251 22.208C50.5888 22.3313 50.825 22.6097 50.9082 22.9336C51.2123 22.916 51.5189 23.0309 51.7373 23.2656L51.8066 23.3477C52.1061 23.7429 52.3191 24.2105 52.4131 24.7275L52.4463 24.9521C52.501 25.4426 52.5405 25.9101 52.5654 26.3643L52.5859 26.8145C52.6036 27.3293 52.2468 27.7691 51.7607 27.875C52.2426 27.9969 52.5841 28.4483 52.5498 28.9619C52.5095 29.5652 52.4451 30.1727 52.3604 30.8086C52.2973 31.2811 52.1355 31.7218 51.8975 32.1094C51.7481 32.3526 51.5154 32.5127 51.2588 32.5771C51.1946 32.8334 51.0345 33.0661 50.792 33.2158C50.4084 33.4525 49.9741 33.6152 49.5107 33.6855C47.7066 33.9592 46.1423 34.1575 44.7549 34.2861C44.1777 34.3394 43.6668 33.9141 43.6133 33.3369C43.6129 33.3324 43.6127 33.3278 43.6123 33.3232C42.3769 33.4111 41.2962 33.4365 40.3086 33.4053C40.3081 33.414 40.3093 33.4229 40.3086 33.4316C40.267 33.9735 39.8209 34.3882 39.2891 34.4014L39.1816 34.3984C37.6547 34.2813 36.3148 34.0258 34.9336 33.6689L34.3389 33.5098C34.2767 33.4926 34.2128 33.4739 34.1484 33.4521L33.9531 33.3789C33.8717 33.3452 33.7973 33.3011 33.7295 33.251C33.6806 33.234 33.6319 33.2151 33.585 33.1904L33.4922 33.1357C33.4252 33.0913 33.3588 33.0426 33.2939 32.9893L33.1055 32.8145C32.3706 32.0568 31.7961 30.9207 31.4043 29.7354L31.2471 29.2256C31.0886 28.668 31.4122 28.0874 31.9697 27.9287C31.9849 27.9244 32.0004 27.9206 32.0156 27.917C31.8882 27.2529 31.8176 26.5844 31.8193 25.958C31.7906 25.9558 31.7614 25.9538 31.7324 25.9492C31.16 25.8579 30.7701 25.3195 30.8613 24.7471C30.9888 23.9471 31.2733 23.1258 31.8516 22.5195Z" fill="#BF856B" fill-opacity="0.5" stroke="#462918" stroke-width="2.09956" stroke-linecap="round" stroke-dasharray="7 4"/>
<path d="M40.7204 28.9715C40.3754 30.3864 38.5794 31.1636 36.709 30.7075C34.8385 30.2513 33.602 28.7346 33.947 27.3197C34.2921 25.9048 36.0881 25.1276 37.9585 25.5837C39.8289 26.0399 41.0655 27.5566 40.7204 28.9715Z" fill="#FCE2B5"/>
</svg>
