<svg width="56" height="46" viewBox="0 0 56 46" fill="none" xmlns="http://www.w3.org/2000/svg">
<path d="M13.1341 1.69019V0.216187H16.9181V8.59819H0.48409V0.216187H4.26809V1.69019H13.1341ZM4.26809 4.70419V5.58419H13.1341V4.70419H4.26809ZM8.98615e-05 12.8442V9.36819H17.4021V12.8442H11.5721V14.8902H7.54609V12.8442H8.98615e-05ZM4.40009 15.7702H17.0721V19.2902H0.55009V13.5482H4.40009V15.7702ZM32.5627 -0.00381291H36.5227V10.0502H32.5627V-0.00381291ZM23.0367 0.216187H27.1287V3.25219C27.1287 4.94619 28.1847 5.78219 31.2867 6.57419L30.6487 9.63219C28.2287 9.28019 26.3367 8.66419 25.0827 7.78419C23.9607 8.64219 21.6727 9.47819 19.2747 9.94019L18.7027 6.79419C21.9587 5.87019 23.0367 4.99019 23.0367 3.27419V0.216187ZM20.1327 10.6002H36.5227V16.3422H24.0267V16.9142H36.7207V19.5102H20.0887V13.7462H32.5847V13.1962H20.1327V10.6002ZM9.10809 42.2762C8.64609 42.5402 7.67809 42.8482 6.29209 43.2002L6.09409 42.8262C4.97209 43.9262 2.92609 44.8282 0.44009 45.4002L0.0440899 43.3102C3.58609 42.2322 4.97209 41.2862 4.97209 39.8562V38.6022H7.48009V39.8562C7.48009 41.1762 7.76609 41.7042 9.10809 42.2762ZM18.1281 43.6182L17.5341 45.6862C15.4001 45.2242 13.6621 44.6302 12.6941 43.8822C11.5061 44.7622 9.79009 45.3122 7.21609 45.7522L6.55609 43.7502C10.6261 42.7602 11.3961 41.9022 11.3961 40.2302V38.6022H13.9041V40.2302C13.9041 41.8802 14.5201 42.5842 18.1281 43.6182ZM4.48809 37.7442C1.78209 37.7442 0.24209 36.9962 0.24209 34.8842C0.24209 32.8602 1.78209 32.0242 4.48809 32.0242C7.19409 32.0242 8.73409 32.8602 8.73409 34.8842C8.73409 36.9962 7.19409 37.7442 4.48809 37.7442ZM14.6741 32.8602H12.5841V37.8102H10.1861V26.1062H12.5841V30.5722H14.6741V25.9962H17.0721V37.8102H14.6741V32.8602ZM0.50609 27.6242L1.34209 25.6002C2.13409 25.9962 3.32209 26.2602 4.81809 26.2602H8.42609V28.3502H4.22409C2.61809 28.3502 1.34209 28.0862 0.50609 27.6242ZM8.93209 29.2302V31.3202H0.0220899V29.2302H8.93209ZM4.48809 35.7862C5.78609 35.7862 6.44609 35.5662 6.44609 34.8842C6.44609 34.2242 5.78609 33.9822 4.48809 33.9822C3.19009 33.9822 2.57409 34.2242 2.57409 34.8842C2.57409 35.5662 3.23409 35.7862 4.48809 35.7862ZM24.8847 44.3662C20.9687 44.3662 19.1427 42.2102 19.1427 35.2582C19.1427 28.3062 20.9687 26.1502 24.8847 26.1502C28.4927 26.1502 30.3187 27.9762 30.5827 33.7182H33.5527V25.9962H36.0827V45.0702H33.5527V36.0282H30.6267C30.4947 42.3642 28.6467 44.3662 24.8847 44.3662ZM24.8847 42.0562C26.9307 42.0562 28.0967 40.9122 28.0967 35.2582C28.0967 29.6042 26.9307 28.4602 24.8847 28.4602C22.8387 28.4602 21.6727 29.6042 21.6727 35.2582C21.6727 40.9122 22.8387 42.0562 24.8847 42.0562ZM38.3292 44.4102V42.1222H42.0472V37.8762C39.7152 36.9082 38.5932 35.0822 38.5932 32.3982C38.5932 28.3502 41.2552 26.1282 46.9972 26.1282C52.7392 26.1282 55.4012 28.3502 55.4012 32.3982C55.4012 35.0822 54.2792 36.9082 51.9472 37.8762V42.1222H55.6432V44.4102H38.3292ZM46.9972 36.3582C51.1772 36.3582 52.8492 35.0382 52.8492 32.3982C52.8492 29.7582 51.1772 28.4382 46.9972 28.4382C42.8172 28.4382 41.1452 29.7582 41.1452 32.3982C41.1452 35.0382 42.8172 36.3582 46.9972 36.3582ZM46.9972 38.6682C46.1392 38.6682 45.3692 38.6242 44.6432 38.5362V42.1222H49.3512V38.5362C48.6252 38.6242 47.8552 38.6682 46.9972 38.6682Z" fill="#5B3322"/>
</svg>
