<svg width="27" height="39" viewBox="0 0 27 39" fill="none" xmlns="http://www.w3.org/2000/svg">
<path d="M20.9654 31.3907L20.9653 31.4981C20.9695 33.4559 20.0569 36.0766 17.3154 36.5975L16.0002 36.8528L16 36.8519C15.123 37.0254 13.9583 36.8552 12.9544 36.3329C11.9078 35.7882 10.9205 34.7961 10.6488 33.2577L10.4155 32.0516L10.4203 31.9223C10.4939 29.9575 11.3945 28.4088 12.5434 27.538C11.872 27.422 11.2773 27.0748 10.8235 26.6681C10.1484 26.0629 9.62955 25.2007 9.45197 24.2826C8.81152 20.9714 10.5184 18.2541 12.2285 16.5094C12.4571 16.2747 12.6844 16.0525 12.8985 15.8437C13.1164 15.6311 13.3176 15.4357 13.51 15.2411C13.8957 14.8509 14.2032 14.5046 14.4381 14.1514C14.8655 13.509 15.1029 12.7752 14.8718 11.5799C14.7265 10.829 14.4314 10.3181 14.1157 10.0362C13.8317 9.78269 13.4771 9.65952 12.9878 9.75405C12.1783 9.91062 11.7213 10.1261 11.3879 10.4146C11.044 10.7122 10.7232 11.1795 10.36 12.0428C10.113 12.7935 9.55232 13.5704 8.96796 14.1641C8.36664 14.7749 7.51519 15.4267 6.61883 15.6002C5.8874 15.7416 5.15607 15.6966 4.55392 15.5848C3.96438 15.4753 3.40362 15.2841 3.01664 15.0575C2.56899 14.7953 2.05085 14.2569 1.68259 13.6216C1.30772 12.9749 0.99284 12.0602 1.19905 11.0445C1.64776 8.49432 2.55024 6.35971 4.2072 4.71553C5.85884 3.07669 8.14786 2.03663 11.1559 1.45483C14.6403 0.78096 17.7254 1.17345 20.1145 2.54392C22.5221 3.92504 24.1058 6.23483 24.6676 9.13917C25.2772 12.2912 24.5931 14.6353 23.3952 16.5279C22.2682 18.3084 20.6007 19.7656 19.5182 20.9362L19.5051 20.9506C19.2695 21.1968 19.014 21.4416 18.8467 21.6091C18.6581 21.798 18.5373 21.9301 18.4545 22.0451C18.3788 22.1503 18.3522 22.2178 18.3403 22.2671C18.329 22.3141 18.3175 22.4012 18.3486 22.5619C18.5262 23.48 18.3663 24.4734 17.9655 25.2867C17.7313 25.7619 17.3807 26.2338 16.9125 26.5845C18.4572 26.8809 19.9914 28.0119 20.6909 30.0333L20.7176 30.1097L20.9654 31.3907Z" fill="#F6AE49" stroke="white" stroke-width="2.26551"/>
</svg>
