<svg width="280" height="76" viewBox="0 0 280 76" fill="none" xmlns="http://www.w3.org/2000/svg">
<g opacity="0.5">
<path d="M0 8.80502C0 3.94213 3.94215 0 8.80503 0H271.195C276.058 0 280 3.94215 280 8.80503V66.9183C280 71.7811 276.058 75.7233 271.195 75.7233H8.80502C3.94214 75.7233 0 71.7811 0 66.9182V8.80502Z" fill="white"/>
<circle cx="30.8177" cy="30.8169" r="13.2075" fill="#FFC642"/>
<path d="M30.078 25.4019C30.4077 24.84 31.229 24.84 31.5586 25.4019L31.5898 25.46L33.0053 28.3282L36.1707 28.7882C36.8763 28.8907 37.158 29.7582 36.6474 30.2559L34.3564 32.4883L34.8976 35.6408C35.0181 36.3434 34.2807 36.8795 33.6497 36.5479L30.8181 35.0593L27.9869 36.5479C27.3559 36.8795 26.6186 36.3434 26.7391 35.6408L27.2797 32.4883L24.9892 30.2559C24.4787 29.7582 24.7604 28.8907 25.4659 28.7882L28.6308 28.3282L30.0469 25.46L30.078 25.4019ZM29.5627 28.929C29.453 29.1512 29.2535 29.3133 29.0177 29.3777L28.9145 29.3992L26.106 29.8071L28.1385 31.7886C28.3411 31.9861 28.4335 32.2706 28.3857 32.5496L27.9058 35.3468L30.4182 34.0264L30.5139 33.9828C30.7099 33.9087 30.9267 33.9087 31.1228 33.9828L31.2184 34.0264L33.7303 35.3468L33.2509 32.5496C33.2032 32.2706 33.2956 31.9861 33.4982 31.7886L35.5301 29.8071L32.7221 29.3992C32.477 29.3636 32.2608 29.2246 32.1267 29.0203L32.0745 28.929L30.8181 26.3843L29.5627 28.929Z" fill="white"/>
<path d="M64.8237 25.3728V26.2877H54.9886V25.3728H64.8237ZM63.5838 27.1544V29.6945H57.2999V30.6455H63.8847V31.5243H56.1803V28.8638H62.4522V28.0091H56.1683V27.1544H63.5838ZM63.9449 21.2437V22.1586H60.5863C60.7909 23.1096 62.3378 23.8801 64.3302 24.0245L63.957 24.9153C62.0971 24.7408 60.5502 24.0727 59.9001 23.0494C59.244 24.0727 57.7032 24.7408 55.8553 24.9153L55.4942 24.0245C57.4624 23.8801 59.0093 23.0976 59.214 22.1586H55.8914V21.2437H63.9449ZM71.1317 22.0021C71.1317 22.598 71.0775 23.1818 70.9752 23.7476H73.4912V20.8344H74.6228V31.6206H73.4912V27.5758H70.59V26.6368H73.4912V24.6625H70.7585C70.1446 26.6669 68.7481 28.4004 66.2081 29.6463L65.6062 28.7314C68.387 27.3651 69.7654 25.4089 69.9881 22.917H66.0998V22.0021H71.1317ZM80.076 23.0735C80.076 24.3014 81.0511 25.4571 82.7003 25.9145L82.1827 26.7933C80.9247 26.4442 80.0038 25.6858 79.5223 24.7107C79.0468 25.7761 78.1018 26.6067 76.8257 26.9979L76.272 26.0951C77.9212 25.6256 78.9444 24.4218 78.9444 23.0735V22.9531H76.597V22.0382H78.9444V20.7983H80.0881V22.0382H82.4235V22.9531H80.076V23.0735ZM84.7709 20.8465V23.4346H86.3359V24.3857H84.7709V27.0702H83.6273V20.8465H84.7709ZM84.9394 27.6119V28.5268H81.9901C82.1947 29.532 83.5791 30.4529 85.3848 30.7177L84.9635 31.5965C83.3263 31.3437 81.9781 30.5913 81.3521 29.5621C80.7321 30.5853 79.3959 31.3256 77.7647 31.5845L77.3434 30.7057C79.1551 30.4529 80.5214 29.5621 80.7381 28.5268H77.7767V27.6119H84.9394ZM95.9182 20.8465V31.6326H94.7625V20.8465H95.9182ZM92.704 22.0021C92.704 25.1561 91.3558 27.9008 87.6601 29.6704L87.0581 28.7435C89.9292 27.3771 91.3257 25.433 91.5484 22.917H87.5758V22.0021H92.704ZM106.078 20.8585V24.3255H107.643V25.2765H106.078V28.924H104.935V20.8585H106.078ZM104.044 22.1105V23.0374H97.6156V22.1105H100.264V20.8465H101.408V22.1105H104.044ZM100.83 23.555C102.383 23.555 103.442 24.3616 103.442 25.5895C103.442 26.8174 102.383 27.6119 100.83 27.6119C99.2648 27.6119 98.2055 26.8174 98.2055 25.5895C98.2055 24.3616 99.2648 23.555 100.83 23.555ZM100.83 24.4338C99.9149 24.4338 99.3009 24.8792 99.313 25.5895C99.3009 26.2877 99.9149 26.7211 100.83 26.7211C101.745 26.7211 102.359 26.2877 102.371 25.5895C102.359 24.8792 101.745 24.4338 100.83 24.4338ZM106.536 30.477V31.4039H99.2407V28.286H100.384V30.477H106.536ZM120.536 20.8465V31.6326H119.453V20.8465H120.536ZM118.261 21.1233V31.1029H117.178V26.0951H115.071C114.427 27.347 113.404 28.4425 111.881 29.3333L111.231 28.5147C113.518 27.1544 114.619 25.3427 114.818 23.1217H111.736V22.1827H115.95C115.944 23.236 115.799 24.2412 115.468 25.1802H117.178V21.1233H118.261ZM125.881 23.5911C125.869 25.5654 127.061 27.5397 128.734 28.286L128.048 29.1889C126.808 28.599 125.827 27.3892 125.327 25.9145C124.822 27.4915 123.829 28.7976 122.535 29.4296L121.836 28.4666C123.534 27.7082 124.725 25.6497 124.725 23.5911V21.7493H125.881V23.5911ZM130.853 20.8465V31.6567H129.709V20.8465H130.853ZM141.194 21.3039V22.0142C141.194 22.7304 141.194 23.6333 140.965 24.807H142.446V25.7219H132.574V24.807H139.821C140.038 23.7115 140.062 22.8869 140.062 22.2188H133.814V21.3039H141.194ZM141.206 26.6849V29.5139H134.886V30.6094H141.483V31.5243H133.742V28.6351H140.074V27.5998H133.73V26.6849H141.206ZM146.743 21.6169C148.453 21.6049 149.668 22.6642 149.68 24.181C149.668 25.6978 148.453 26.7572 146.743 26.7572C145.046 26.7572 143.794 25.6978 143.806 24.181C143.794 22.6642 145.046 21.6049 146.743 21.6169ZM146.743 22.604C145.696 22.604 144.925 23.23 144.937 24.181C144.925 25.132 145.696 25.758 146.743 25.758C147.791 25.758 148.561 25.132 148.561 24.181C148.561 23.23 147.791 22.604 146.743 22.604ZM152.148 20.8465V31.6567H151.005V20.8465H152.148ZM143.288 28.3823C145.25 28.3823 147.971 28.3582 150.331 28.0212L150.415 28.8518C147.971 29.3213 145.359 29.3333 143.433 29.3333L143.288 28.3823ZM160.611 22.5679C160.611 23.9884 161.598 25.3006 163.211 25.8302L162.597 26.7331C161.418 26.3178 160.533 25.4751 160.069 24.4097C159.594 25.6196 158.679 26.5646 157.421 27.0341L156.807 26.1192C158.492 25.5172 159.467 24.0847 159.48 22.4716V21.4122H160.611V22.5679ZM165.366 20.8465V23.555H166.931V24.5181H165.366V27.3591H164.223V20.8465H165.366ZM161.887 27.6119C164.102 27.6119 165.462 28.3462 165.462 29.6102C165.462 30.8863 164.102 31.6206 161.887 31.6085C159.648 31.6206 158.264 30.8863 158.264 29.6102C158.264 28.3462 159.648 27.6119 161.887 27.6119ZM161.887 28.5147C160.322 28.5147 159.395 28.924 159.407 29.6102C159.395 30.3205 160.322 30.7057 161.887 30.7177C163.44 30.7057 164.343 30.3205 164.343 29.6102C164.343 28.924 163.44 28.5147 161.887 28.5147ZM172.276 22.0503V22.9652H169.05V24.8913H172.095V25.7941H169.05V28.0693C170.506 28.0633 171.47 28.0031 172.613 27.8165L172.709 28.7555C171.445 28.9842 170.398 29.0324 168.677 29.0324H167.954V22.0503H172.276ZM176.826 20.8465V31.6326H175.731V26.059H174.431V31.1029H173.335V21.0511H174.431V25.132H175.731V20.8465H176.826Z" fill="#1EB87B"/>
<path d="M186.601 20.8465V25.1441H188.275V26.0951H186.601V31.6206H185.458V20.8465H186.601ZM183.785 21.978C183.772 25.0959 182.4 27.8767 178.849 29.6343L178.211 28.7435C180.913 27.3952 182.382 25.445 182.617 22.929H178.753V21.978H183.785ZM200.855 20.8585V28.8277H199.711V26.0228H197.351V27.0341H192.38V21.5687H193.523V23.3985H196.22V21.5687H197.351V22.7726H199.711V20.8585H200.855ZM201.095 30.477V31.4039H193.812V28.0453H194.968V30.477H201.095ZM193.523 26.1071H196.22V24.2773H193.523V26.1071ZM197.351 25.0959H199.711V23.7115H197.351V25.0959ZM211.508 20.8585V27.2387H210.365V25.9265H207.644V24.9876H210.365V23.6754H207.752C207.06 25.4089 205.441 26.6308 203.106 27.2989L202.648 26.4081C205.2 25.6737 206.693 24.3074 206.898 22.5679H203.202V21.6289H208.138C208.138 22.0262 208.096 22.4114 208.029 22.7726H210.365V20.8585H211.508ZM207.957 27.3591C210.136 27.3591 211.569 28.1536 211.581 29.4658C211.569 30.7779 210.136 31.5845 207.957 31.5845C205.742 31.5845 204.322 30.7779 204.322 29.4658C204.322 28.1536 205.742 27.3591 207.957 27.3591ZM207.957 28.2619C206.416 28.2619 205.453 28.6953 205.453 29.4658C205.453 30.2242 206.416 30.6696 207.957 30.6696C209.474 30.6696 210.425 30.2242 210.437 29.4658C210.425 28.6953 209.474 28.2619 207.957 28.2619ZM219.598 25.4089V26.3479H217.323V28.3462C218.322 28.2981 219.327 28.2318 220.272 28.1295L220.356 28.9722C217.985 29.3333 215.421 29.3574 213.374 29.3694L213.23 28.4184C214.139 28.4184 215.144 28.4124 216.179 28.3823V26.3479H214.012V21.8456H219.55V22.7726H215.144V25.4089H219.598ZM222.09 20.8465V31.6567H220.946V20.8465H222.09ZM227.651 27.961C227.651 28.8939 228.109 29.875 229.096 30.477C230.083 29.8269 230.553 28.7796 230.553 27.961V27.3832H231.672V27.961C231.672 29.0805 232.407 30.176 233.839 30.6335L233.249 31.4882C232.19 31.109 231.468 30.3867 231.094 29.4898C230.757 30.3686 230.107 31.1691 229.108 31.5845C228.085 31.1932 227.435 30.4288 227.098 29.538C226.706 30.3927 225.996 31.109 224.979 31.4882L224.425 30.6335C225.798 30.1519 226.544 29.0083 226.556 27.961V27.3832H227.651V27.961ZM226.809 21.4363C228.199 21.4363 229.313 22.2609 229.566 23.4828H231.672V20.8465H232.816V26.9618H231.672V24.4218H229.578C229.355 25.6798 228.229 26.5284 226.809 26.5284C225.184 26.5284 223.992 25.4811 223.992 23.9884C223.992 22.4957 225.184 21.4363 226.809 21.4363ZM226.809 22.3994C225.81 22.3994 225.075 23.0374 225.087 23.9884C225.075 24.9153 225.81 25.5774 226.809 25.5774C227.784 25.5774 228.518 24.9153 228.518 23.9884C228.518 23.0374 227.784 22.3994 226.809 22.3994ZM237.402 21.653C238.865 21.653 239.936 22.8929 240.111 24.8913H242.338V20.8465H243.47V31.6567H242.338V25.8182H240.123C239.997 27.9189 238.901 29.225 237.402 29.225C235.789 29.225 234.658 27.7563 234.67 25.433C234.658 23.1217 235.789 21.653 237.402 21.653ZM237.402 22.6762C236.427 22.6762 235.753 23.7356 235.753 25.433C235.753 27.1424 236.427 28.2017 237.402 28.2017C238.377 28.2017 239.052 27.1424 239.052 25.433C239.052 23.7356 238.377 22.6762 237.402 22.6762ZM255.002 29.3333V30.2843H245.131V29.3333H247.49V26.5164C246.605 26.0289 246.07 25.2524 246.07 24.2894C246.07 22.592 247.731 21.4724 250.042 21.4724C252.366 21.4724 254.027 22.592 254.027 24.2894C254.027 25.2404 253.509 26.0048 252.643 26.4923V29.3333H255.002ZM250.042 22.3873C248.345 22.3873 247.177 23.1217 247.177 24.2894C247.177 25.445 248.345 26.2034 250.042 26.2034C251.728 26.2034 252.919 25.445 252.919 24.2894C252.919 23.1217 251.728 22.3873 250.042 22.3873ZM248.622 29.3333H251.487V26.9257C251.048 27.0401 250.56 27.0942 250.042 27.0942C249.537 27.0942 249.055 27.0401 248.622 26.9377V29.3333ZM257.012 30.6936C256.543 30.6936 256.146 30.3084 256.158 29.8389C256.146 29.3694 256.543 28.9842 257.012 28.9842C257.47 28.9842 257.867 29.3694 257.867 29.8389C257.867 30.3084 257.47 30.6936 257.012 30.6936Z" fill="#5D5D5D"/>
<path d="M63.6921 46.2814V47.076H60.3696V49.929H64.8237V50.7115H55.0247V49.929H59.4306V47.076H56.2285V42.3209H57.1915V46.2814H63.6921ZM74.5024 41.418V49.5438H73.5514V48.4363H71.3363V47.7501H73.5514V41.418H74.5024ZM74.7672 51.0847V51.8792H67.1591V48.7493H68.1101V51.0847H74.7672ZM65.6182 46.3778C67.6166 46.3657 70.289 46.3537 72.5883 46.0648L72.6485 46.7509C71.6915 46.9014 70.6923 46.9977 69.7112 47.0519V49.1706H68.7602V47.1C67.6768 47.1482 66.6475 47.1542 65.7507 47.1482L65.6182 46.3778ZM69.1334 41.8514C70.6983 41.8514 71.7697 42.5978 71.7818 43.7173C71.7697 44.8609 70.6983 45.5712 69.1334 45.5712C67.5564 45.5712 66.485 44.8609 66.485 43.7173C66.485 42.5978 67.5564 41.8514 69.1334 41.8514ZM69.1334 42.5737C68.0861 42.5617 67.3758 43.0312 67.3878 43.7173C67.3758 44.4155 68.0861 44.873 69.1334 44.873C70.1446 44.873 70.8669 44.4155 70.8789 43.7173C70.8669 43.0312 70.1446 42.5617 69.1334 42.5737ZM84.795 42.1042V43.0432C84.795 44.0604 84.795 45.1619 84.494 46.7028H86.0831V47.4853H81.6651V52.132H80.714V47.4853H76.3322V46.7028H83.531C83.856 45.1619 83.856 44.0363 83.856 43.0432V42.8867H77.5601V42.1042H84.795ZM96.159 41.406V52.1079H95.2441V41.406H96.159ZM94.0041 41.6347V51.5662H93.1013V46.3657H91.7289C91.6266 48.4483 90.7418 49.7484 89.4176 49.7484C88.0212 49.7484 87.1183 48.3039 87.1183 46.0286C87.1183 43.7534 88.0212 42.3089 89.4176 42.3089C90.7177 42.3089 91.5965 43.5668 91.7169 45.5832H93.1013V41.6347H94.0041ZM89.4176 43.1997C88.5509 43.1997 87.9971 44.2831 88.0092 46.0286C87.9971 47.7621 88.5509 48.8576 89.4176 48.8456C90.2844 48.8576 90.8381 47.7621 90.8381 46.0286C90.8381 44.2831 90.2844 43.1997 89.4176 43.1997ZM101.408 44.2831C101.408 46.2213 102.648 48.1714 104.2 48.8817L103.635 49.6521C102.419 49.0261 101.414 47.7441 100.938 46.2213C100.463 47.8223 99.4574 49.1947 98.2416 49.8447L97.6276 49.0863C99.1926 48.3159 100.445 46.2574 100.445 44.2831V42.3329H101.408V44.2831ZM106.512 41.406V52.132H105.573V45.836H103.033V45.0656H105.573V41.406H106.512ZM116.913 42.1042C116.901 44.7887 114.987 46.7148 111.905 47.5936L111.508 46.8472C114.066 46.125 115.697 44.7045 115.902 42.8867H112.061V42.1042H116.913ZM120.259 41.418V47.5214H119.308V44.9693H116.937V44.1748H119.308V41.418H120.259ZM120.259 47.9788V51.9634H113.313V47.9788H120.259ZM114.228 48.7372V51.193H119.32V48.7372H114.228ZM130.913 41.406V47.7862H129.962V44.9813H127.807V44.1988H129.962V41.406H130.913ZM127.362 48.1233C129.589 48.1233 130.949 48.8456 130.949 50.1096C130.949 51.3736 129.589 52.0959 127.362 52.1079C125.135 52.0959 123.774 51.3736 123.774 50.1096C123.774 48.8456 125.135 48.1233 127.362 48.1233ZM127.362 48.8576C125.725 48.8576 124.701 49.3271 124.713 50.1096C124.701 50.88 125.725 51.3495 127.362 51.3495C128.999 51.3495 130.01 50.88 130.01 50.1096C130.01 49.3271 128.999 48.8576 127.362 48.8576ZM125.761 43.3682C125.761 44.7646 126.832 46.0888 128.397 46.6306L127.904 47.389C126.7 46.9556 125.767 46.0587 125.315 44.9452C124.846 46.2032 123.853 47.2084 122.583 47.6899L122.089 46.9315C123.678 46.3537 124.81 44.9091 124.81 43.3803V42.983H122.39V42.1885H128.156V42.983H125.761V43.3682ZM135.885 43.5006C135.885 44.7165 136.703 45.9444 138.076 46.4861L137.57 47.2204C136.559 46.7991 135.819 46.0166 135.439 45.0656C135.042 46.1069 134.272 47.0158 133.224 47.4853L132.707 46.7509C134.115 46.125 134.982 44.7165 134.982 43.5006V42.0681H135.885V43.5006ZM141.783 41.418V47.8825H140.881V45.0054H139.46V47.8223H138.569V41.6107H139.46V44.2109H140.881V41.418H141.783ZM141.783 48.4724V52.1079H140.857V49.2549H134.573V48.4724H141.783ZM151.992 42.5255C151.98 45.6193 150.932 48.4483 147.08 50.3383L146.551 49.616C148.567 48.6409 149.777 47.401 150.427 45.9564L146.755 46.3055L146.599 45.4749L150.716 45.198C150.902 44.5961 151.011 43.9641 151.053 43.308H147.14V42.5255H151.992ZM154.724 41.406V45.7638H156.458V46.5583H154.724V52.1079H153.785V41.406H154.724ZM165.739 46.5583V47.3408H158.348V42.4052H165.631V43.1876H159.287V46.5583H165.739ZM166.895 49.8568V50.6513H157.096V49.8568H166.895ZM174.672 44.6924C174.672 46.5102 175.996 48.352 177.573 49.0382L177.043 49.7845C175.791 49.2127 174.708 47.9788 174.214 46.4981C173.709 48.0691 172.631 49.4354 171.409 50.0494L170.844 49.303C172.372 48.5687 173.709 46.5463 173.721 44.6924V43.296H171.193V42.5135H177.224V43.296H174.672V44.6924ZM179.667 41.406V52.1079H178.716V41.406H179.667ZM189.864 41.406V43.9581H191.477V44.7526H189.864V47.1963H188.913V41.406H189.864ZM186.951 42.0681C186.951 44.7406 185.036 46.5583 181.882 47.3408L181.521 46.5583C184.17 45.9203 185.741 44.566 185.915 42.8385H181.991V42.0681H186.951ZM184.013 47.6899V49.0502H188.925V47.6899H189.864V51.9634H183.062V47.6899H184.013ZM184.013 51.193H188.925V49.8086H184.013V51.193ZM204.069 41.406V46.8352H203.142V41.406H204.069ZM199.831 47.4973V49.9892H197.412V51.205C198.603 51.199 199.302 51.1749 200.18 51.0004L200.289 51.7227C199.278 51.9273 198.507 51.9514 197.063 51.9394H196.509V49.3151H198.904V48.2075H196.473V47.4973H199.831ZM204.827 47.9788V48.7131H200.229V47.9788H202.082V46.9917H203.009V47.9788H204.827ZM202.528 49.1465C203.587 49.1465 204.394 49.7244 204.394 50.6031C204.394 51.5301 203.587 52.0838 202.528 52.0838C201.456 52.0838 200.662 51.5301 200.674 50.6031C200.662 49.7244 201.456 49.1465 202.528 49.1465ZM202.528 49.8327C201.902 49.8327 201.481 50.1336 201.481 50.6031C201.481 51.1087 201.902 51.4097 202.528 51.4097C203.142 51.4097 203.563 51.1087 203.575 50.6031C203.563 50.1336 203.142 49.8327 202.528 49.8327ZM198.278 41.8033C199.879 41.8153 201.047 42.7784 201.047 44.1748C201.047 45.5712 199.879 46.5342 198.278 46.5342C196.653 46.5342 195.498 45.5712 195.498 44.1748C195.498 42.7784 196.653 41.8153 198.278 41.8033ZM198.278 42.5978C197.207 42.5978 196.413 43.2478 196.425 44.1748C196.413 45.1137 197.207 45.7638 198.278 45.7638C199.338 45.7638 200.132 45.1137 200.132 44.1748C200.132 43.2478 199.338 42.5978 198.278 42.5978ZM208.776 42.2366C210.232 42.2487 211.28 43.4946 211.436 45.499H213.832V41.406H214.771V52.132H213.832V46.2814H211.448C211.334 48.3761 210.268 49.6882 208.776 49.6882C207.199 49.6882 206.091 48.2437 206.091 45.9685C206.091 43.6932 207.199 42.2487 208.776 42.2366ZM208.776 43.0793C207.716 43.0913 206.994 44.2229 206.994 45.9685C206.994 47.714 207.716 48.8456 208.776 48.8456C209.823 48.8456 210.557 47.714 210.557 45.9685C210.557 44.2229 209.823 43.0913 208.776 43.0793ZM225.424 41.406V52.132H224.485V46.1731H221.921V49.4234H216.986V42.2487H217.937V45.0415H220.994V42.2487H221.921V45.3906H224.485V41.406H225.424ZM217.937 48.6409H220.994V45.7999H217.937V48.6409ZM232.286 41.9598V44.9573H228.602V46.5583C230.589 46.5583 231.636 46.5162 232.912 46.2935L233.008 47.0639C231.648 47.3047 230.553 47.3408 228.422 47.3288H227.663V44.2229H231.347V42.7422H227.639V41.9598H232.286ZM236.078 41.418V47.8344H235.127V45.9203H233.008V45.1499H235.127V43.6812H233.008V42.9108H235.127V41.418H236.078ZM230.854 48.7252C230.854 49.6822 231.359 50.7055 232.382 51.2893C233.406 50.6513 233.935 49.5618 233.935 48.7252V48.0992H234.862V48.7252C234.862 49.8447 235.657 50.9522 237.041 51.4217L236.56 52.132C235.494 51.7468 234.748 50.9884 234.381 50.0855C234.05 50.9583 233.4 51.7889 232.394 52.2162C231.365 51.813 230.709 51.0185 230.384 50.1216C229.999 50.9944 229.265 51.7468 228.253 52.132L227.76 51.4217C229.108 50.9282 229.951 49.7725 229.951 48.7252V48.0992H230.854V48.7252ZM240.737 42.2366C242.194 42.2487 243.241 43.4946 243.397 45.499H245.793V41.406H246.732V52.132H245.793V46.2814H243.409C243.295 48.3761 242.23 49.6882 240.737 49.6882C239.16 49.6882 238.052 48.2437 238.052 45.9685C238.052 43.6932 239.16 42.2487 240.737 42.2366ZM240.737 43.0793C239.678 43.0913 238.955 44.2229 238.955 45.9685C238.955 47.714 239.678 48.8456 240.737 48.8456C241.784 48.8456 242.519 47.714 242.519 45.9685C242.519 44.2229 241.784 43.0913 240.737 43.0793ZM258.313 49.941V50.7356H248.514V49.941H250.945V47.0519C250.03 46.5764 249.477 45.8059 249.477 44.8369C249.477 43.1756 251.102 42.0922 253.389 42.0801C255.676 42.0922 257.301 43.1756 257.301 44.8369C257.301 45.7879 256.766 46.5523 255.881 47.0278V49.941H258.313ZM253.389 42.8626C251.631 42.8506 250.391 43.6451 250.391 44.8369C250.391 46.0286 251.631 46.8352 253.389 46.8352C255.135 46.8352 256.386 46.0286 256.386 44.8369C256.386 43.6451 255.135 42.8506 253.389 42.8626ZM251.872 49.941H254.93V47.389C254.466 47.5154 253.949 47.5816 253.389 47.5816C252.841 47.5816 252.33 47.5214 251.872 47.401V49.941Z" fill="#5D5D5D"/>
</g>
</svg>
