<svg width="318" height="86" viewBox="0 0 318 86" fill="none" xmlns="http://www.w3.org/2000/svg">
<path d="M0 10C0 4.47715 4.47715 0 10 0H308C313.523 0 318 4.47715 318 10V76C318 81.5228 313.523 86 308 86H9.99999C4.47714 86 0 81.5228 0 76V10Z" fill="white"/>
<circle cx="35" cy="35" r="15" fill="#4F95FF"/>
<path d="M39.2455 30.4105C39.2007 29.9693 38.8282 29.625 38.3751 29.625H31.6252C31.142 29.625 30.75 30.017 30.75 30.5002V39.4999C30.75 39.9831 31.142 40.3751 31.6252 40.3751H38.3751C38.8281 40.3751 39.2006 40.0307 39.2455 39.5896L39.2498 39.4999L39.2504 30.5002L39.2455 30.4105ZM35.0005 35.875L35.064 35.8781C35.3792 35.91 35.6255 36.1763 35.6255 36.5C35.6255 36.8237 35.3792 37.09 35.064 37.1219L35.0005 37.125H32.7501C32.405 37.1249 32.1251 36.8451 32.1251 36.5C32.1251 36.1549 32.405 35.8751 32.7501 35.875H35.0005ZM37.2502 33.6252L37.3143 33.6283C37.6294 33.6604 37.8752 33.9267 37.8752 34.2502C37.8751 34.5737 37.6293 34.8395 37.3143 34.8716L37.2502 34.8752H32.7501C32.4051 34.8752 32.1253 34.5953 32.1251 34.2502C32.1251 33.9051 32.405 33.6253 32.7501 33.6252H37.2502ZM37.2502 31.3749L37.3143 31.3779C37.6294 31.41 37.8752 31.6764 37.8752 31.9999C37.8752 32.3234 37.6294 32.5897 37.3143 32.6218L37.2502 32.6249H32.7501C32.405 32.6248 32.1251 32.345 32.1251 31.9999C32.1252 31.6548 32.405 31.3749 32.7501 31.3749H37.2502ZM40.4998 39.4999L40.4973 39.6091C40.4405 40.732 39.5121 41.6251 38.3751 41.6251H31.6252C30.4516 41.6251 29.5 40.6735 29.5 39.4999V30.5002C29.5 29.3266 30.4516 28.375 31.6252 28.375H38.3751C39.5487 28.375 40.5004 29.3266 40.5004 30.5002L40.4998 39.4999Z" fill="white"/>
<path d="M72.6641 23.9258V32.8945H71.3652V28.2871H69.0273V27.2344H71.3652V23.9258H72.6641ZM72.9922 34.8496V35.9023H64.707V32.0879H66.0059V34.8496H72.9922ZM66.8398 26.4004C66.8398 27.9316 67.9473 29.4629 69.793 30.0781L69.123 31.1172C67.749 30.6318 66.7305 29.6475 66.1973 28.4375C65.6641 29.7842 64.5908 30.8711 63.1348 31.3906L62.4648 30.3379C64.3516 29.6953 65.5137 28.082 65.5137 26.4004V25.9219H62.8613V24.8555H69.4648V25.9219H66.8398V26.4004ZM78.8164 27.5215C78.8164 29.4629 80.0879 31.623 81.9473 32.498L81.209 33.5098C79.835 32.8467 78.748 31.4658 78.2012 29.8594C77.6338 31.6162 76.4854 33.127 75.084 33.8242L74.3184 32.7988C76.1777 31.9102 77.5312 29.5996 77.5312 27.5215V26.2227H74.7695V25.1426H81.4824V26.2227H78.8164V27.5215ZM84.0938 23.9121V28.7656H86.0625V29.8594H84.0938V36.1621H82.7949V23.9121H84.0938ZM96.8359 23.9121V36.1621H95.5234V23.9121H96.8359ZM93.1855 25.2246C93.1855 28.8066 91.6543 31.9238 87.457 33.9336L86.7734 32.8809C90.0342 31.3291 91.6201 29.1211 91.873 26.2637H87.3613V25.2246H93.1855ZM108.936 23.9121V36.1621H107.623V23.9121H108.936ZM105.285 25.2246C105.285 28.8066 103.754 31.9238 99.5566 33.9336L98.873 32.8809C102.134 31.3291 103.72 29.1211 103.973 26.2637H99.4609V25.2246H105.285Z" fill="#1EB87B"/>
<path d="M118.041 27.2344C118.041 29.2715 118.875 31.3223 120.543 32.2109L119.777 33.2363C118.622 32.5869 117.836 31.4248 117.412 30.0371C116.954 31.5547 116.113 32.8535 114.924 33.5508L114.104 32.6074C115.854 31.582 116.783 29.4082 116.783 27.3164V25.0332H118.041V27.2344ZM124.809 23.9121V36.1621H123.564V29.8457H122.088V35.5605H120.844V24.1445H122.088V28.793H123.564V23.9121H124.809ZM140.312 23.9121V36.1621H139.082V23.9121H140.312ZM137.729 24.2266V35.5605H136.498V29.873H134.105C133.374 31.2949 132.212 32.5391 130.482 33.5508L129.744 32.6211C132.342 31.0762 133.593 29.0186 133.818 26.4961H130.318V25.4297H135.104C135.097 26.626 134.933 27.7676 134.557 28.834H136.498V24.2266H137.729ZM146.383 27.0293C146.369 29.2715 147.723 31.5137 149.623 32.3613L148.844 33.3867C147.436 32.7168 146.321 31.3428 145.754 29.668C145.18 31.459 144.052 32.9424 142.582 33.6602L141.789 32.5664C143.717 31.7051 145.07 29.3672 145.07 27.0293V24.9375H146.383V27.0293ZM152.029 23.9121V36.1895H150.73V23.9121H152.029ZM163.773 24.4316V25.2383C163.773 26.0518 163.773 27.0771 163.514 28.4102H165.195V29.4492H153.984V28.4102H162.215C162.461 27.166 162.488 26.2295 162.488 25.4707H155.393V24.4316H163.773ZM163.787 30.543V33.7559H156.609V35H164.102V36.0391H155.311V32.7578H162.502V31.582H155.297V30.543H163.787ZM176.229 23.9121V36.1895H174.93V23.9121H176.229ZM169.68 24.8281C171.498 24.8281 172.838 26.4961 172.838 29.1211C172.838 31.7598 171.498 33.4277 169.68 33.4277C167.834 33.4277 166.508 31.7598 166.508 29.1211C166.508 26.4961 167.834 24.8281 169.68 24.8281ZM169.68 25.9902C168.545 25.9902 167.766 27.1934 167.766 29.1211C167.766 31.0625 168.545 32.2656 169.68 32.2656C170.801 32.2656 171.58 31.0625 171.58 29.1211C171.58 27.1934 170.801 25.9902 169.68 25.9902ZM192.785 29.668V30.7344H181.602V29.668H192.785ZM191.486 27.5488V28.6016H182.996V24.3496H191.404V25.416H184.281V27.5488H191.486ZM187.18 31.6914C189.818 31.6914 191.404 32.498 191.404 33.9199C191.404 35.3418 189.818 36.1484 187.18 36.1348C184.527 36.1484 182.928 35.3418 182.928 33.9199C182.928 32.498 184.527 31.6914 187.18 31.6914ZM187.18 32.6895C185.307 32.7031 184.24 33.1406 184.24 33.9199C184.24 34.6992 185.307 35.1367 187.18 35.1367C189.025 35.1367 190.105 34.6992 190.105 33.9199C190.105 33.1406 189.025 32.7031 187.18 32.6895ZM204.898 30.5977V31.6504H193.688V30.5977H198.65V29.4355H195.123V26.3184H202.191V25.2246H195.096V24.1992H203.49V27.2754H196.408V28.4238H203.736V29.4355H199.936V30.5977H204.898ZM203.559 32.5117V36.0664H202.246V33.5508H194.945V32.5117H203.559ZM213.102 29.0938V30.1602H210.518V32.4297C211.652 32.375 212.794 32.2998 213.867 32.1836L213.963 33.1406C211.27 33.5508 208.357 33.5781 206.033 33.5918L205.869 32.5117C206.901 32.5117 208.043 32.5049 209.219 32.4707V30.1602H206.758V25.0469H213.047V26.0996H208.043V29.0938H213.102ZM215.932 23.9121V36.1895H214.633V23.9121H215.932ZM222.248 31.9922C222.248 33.0518 222.768 34.166 223.889 34.8496C225.01 34.1113 225.543 32.9219 225.543 31.9922V31.3359H226.814V31.9922C226.814 33.2637 227.648 34.5078 229.275 35.0273L228.605 35.998C227.402 35.5674 226.582 34.7471 226.158 33.7285C225.775 34.7266 225.037 35.6357 223.902 36.1074C222.74 35.6631 222.002 34.7949 221.619 33.7832C221.175 34.7539 220.368 35.5674 219.213 35.998L218.584 35.0273C220.143 34.4805 220.99 33.1816 221.004 31.9922V31.3359H222.248V31.9922ZM221.291 24.582C222.87 24.582 224.135 25.5186 224.422 26.9062H226.814V23.9121H228.113V30.8574H226.814V27.9727H224.436C224.183 29.4014 222.904 30.3652 221.291 30.3652C219.445 30.3652 218.092 29.1758 218.092 27.4805C218.092 25.7852 219.445 24.582 221.291 24.582ZM221.291 25.6758C220.156 25.6758 219.322 26.4004 219.336 27.4805C219.322 28.5332 220.156 29.2852 221.291 29.2852C222.398 29.2852 223.232 28.5332 223.232 27.4805C223.232 26.4004 222.398 25.6758 221.291 25.6758ZM233.322 24.8281C234.983 24.8281 236.2 26.2363 236.398 28.5059H238.928V23.9121H240.213V36.1895H238.928V29.5586H236.412C236.269 31.9443 235.024 33.4277 233.322 33.4277C231.49 33.4277 230.205 31.7598 230.219 29.1211C230.205 26.4961 231.49 24.8281 233.322 24.8281ZM233.322 25.9902C232.215 25.9902 231.449 27.1934 231.449 29.1211C231.449 31.0625 232.215 32.2656 233.322 32.2656C234.43 32.2656 235.195 31.0625 235.195 29.1211C235.195 27.1934 234.43 25.9902 233.322 25.9902ZM253.311 33.5508V34.6309H242.1V33.5508H244.779V30.3516C243.774 29.7979 243.166 28.916 243.166 27.8223C243.166 25.8945 245.053 24.623 247.678 24.623C250.316 24.623 252.203 25.8945 252.203 27.8223C252.203 28.9023 251.615 29.7705 250.631 30.3242V33.5508H253.311ZM247.678 25.6621C245.75 25.6621 244.424 26.4961 244.424 27.8223C244.424 29.1348 245.75 29.9961 247.678 29.9961C249.592 29.9961 250.945 29.1348 250.945 27.8223C250.945 26.4961 249.592 25.6621 247.678 25.6621ZM246.064 33.5508H249.318V30.8164C248.819 30.9463 248.266 31.0078 247.678 31.0078C247.104 31.0078 246.557 30.9463 246.064 30.8301V33.5508ZM255.594 35.0957C255.061 35.0957 254.609 34.6582 254.623 34.125C254.609 33.5918 255.061 33.1543 255.594 33.1543C256.113 33.1543 256.564 33.5918 256.564 34.125C256.564 34.6582 256.113 35.0957 255.594 35.0957Z" fill="#5D5D5D"/>
<path d="M282.227 31.082C284.371 31.082 285.66 31.7852 285.66 33.0039C285.66 34.2344 284.371 34.9375 282.227 34.9492C280.082 34.9375 278.77 34.2344 278.77 33.0039C278.77 31.7852 280.082 31.082 282.227 31.082ZM282.227 31.8086C280.656 31.8203 279.684 32.2539 279.695 33.0039C279.684 33.7539 280.656 34.1992 282.227 34.1992C283.809 34.1992 284.77 33.7539 284.77 33.0039C284.77 32.2539 283.809 31.8203 282.227 31.8086ZM285.566 24.5312V27.1562H287.137V27.9414H285.566V30.8008H284.652V24.5312H285.566ZM278.77 25.1875V26.7812H281.805V25.1875H282.719V29.9922H277.867V25.1875H278.77ZM278.77 29.2422H281.805V27.5078H278.77V29.2422ZM296.318 25.0938V25.8672C296.318 26.6758 296.318 27.625 296.049 28.9258H297.572V29.6875H288.033V28.9258H295.123C295.404 27.6191 295.404 26.6758 295.404 25.8672V25.8555H289.24V25.0938H296.318ZM296.365 31.1289V34.8086H289.205V31.1289H296.365ZM290.119 31.8555V34.0586H295.451V31.8555H290.119Z" fill="#9D9D9D"/>
<path d="M66.8125 51.2207C66.7988 53.4355 68.3164 55.6777 70.1074 56.4844L69.4512 57.332C68.0703 56.6553 66.874 55.2266 66.293 53.4902C65.7256 55.3291 64.5293 56.8604 63.1074 57.5781L62.4238 56.6758C64.2285 55.8418 65.7324 53.5312 65.7461 51.2207V49.0059H66.8125V51.2207ZM72.5137 47.9531V60.1348H71.4336V47.9531H72.5137ZM78.7344 50.5645C78.7344 52.082 80.0469 53.4355 81.8379 53.9688L81.3184 54.8027C79.9102 54.3857 78.7822 53.4629 78.2422 52.2598C77.709 53.5928 76.6016 54.6387 75.1523 55.1172L74.6328 54.2969C76.4238 53.6953 77.6816 52.2188 77.6816 50.5645V50.3047H74.9336V49.4434H77.6816V47.8984H78.7617V49.4434H81.4824V50.3047H78.7344V50.5645ZM84.668 47.9531V55.3223H83.5879V52.3281H81.0996V51.4395H83.5879V47.9531H84.668ZM80.6348 55.6504C83.1641 55.6504 84.709 56.4434 84.709 57.8652C84.709 59.2734 83.1641 60.0801 80.6348 60.0801C78.1055 60.0801 76.5605 59.2734 76.5605 57.8652C76.5605 56.4434 78.1055 55.6504 80.6348 55.6504ZM80.6348 56.4844C78.7754 56.498 77.6133 57.0039 77.627 57.8652C77.6133 58.7129 78.7754 59.2324 80.6348 59.2324C82.5078 59.2324 83.6426 58.7129 83.6426 57.8652C83.6426 57.0039 82.5078 56.498 80.6348 56.4844ZM96.7676 55.7871V60.1074H95.6875V56.6484H88.5918V55.7871H96.7676ZM96.7676 47.9531V55.1172H95.6875V53.3672H92.5566C91.9893 54.0576 91.0938 54.4678 90.041 54.4609C88.2227 54.4746 86.8828 53.2715 86.8828 51.5488C86.8828 49.8535 88.2227 48.6504 90.041 48.6504C91.0869 48.6504 91.9824 49.0605 92.5566 49.7441H95.6875V47.9531H96.7676ZM90.041 49.5664C88.7969 49.5664 87.9082 50.4004 87.9082 51.5488C87.9082 52.7383 88.7969 53.5586 90.041 53.5586C91.2305 53.5586 92.1465 52.7383 92.1465 51.5488C92.1465 50.4004 91.2305 49.5664 90.041 49.5664ZM93.0352 52.4785H95.6875V50.6328H93.0352C93.1309 50.9199 93.1855 51.2207 93.1855 51.5488C93.1855 51.877 93.1309 52.1914 93.0352 52.4785ZM105.559 48.8965C107.35 48.9102 108.621 50.5508 108.635 53.1348C108.621 55.7188 107.35 57.3594 105.559 57.3594C103.754 57.3594 102.496 55.7188 102.496 53.1348C102.496 50.5508 103.754 48.9102 105.559 48.8965ZM105.559 49.8535C104.355 49.8672 103.508 51.1523 103.508 53.1348C103.508 55.1172 104.355 56.4023 105.559 56.4023C106.775 56.4023 107.596 55.1172 107.596 53.1348C107.596 51.1523 106.775 49.8672 105.559 49.8535ZM111.711 47.9531V52.8066H113.748V53.7363H111.711V60.1074H110.645V47.9531H111.711ZM124.426 47.9531V60.1348H123.346V47.9531H124.426ZM117.959 48.8965C119.764 48.9102 121.062 50.5508 121.062 53.1348C121.062 55.7188 119.764 57.3594 117.959 57.3594C116.141 57.3594 114.855 55.7188 114.855 53.1348C114.855 50.5508 116.141 48.9102 117.959 48.8965ZM117.959 49.8535C116.742 49.8672 115.895 51.1523 115.895 53.1348C115.895 55.1172 116.742 56.4023 117.959 56.4023C119.176 56.4023 120.023 55.1172 120.023 53.1348C120.023 51.1523 119.176 49.8672 117.959 49.8535ZM136.525 48.5137V49.4023H134.652V52.1914H136.484V53.0527H132.574V54.543H137.578V55.418H126.504V54.543H131.508V53.0527H127.584V52.1914H129.416V49.4023H127.543V48.5137H136.525ZM136.348 58.9453V59.8477H127.939V56.4844H129.02V58.9453H136.348ZM130.482 52.1914H133.586V49.4023H130.482V52.1914ZM146.055 49.1016V59H144.811V50.3867H144.756L142.35 51.9863V50.7422L144.811 49.1016H146.055ZM148.447 56.9766V55.9648L152.904 49.1016H154.422V55.8965H155.803V56.9766H154.422V59H153.246V56.9766H148.447ZM149.773 55.8965H153.246V50.6602H153.123L149.773 55.8145V55.8965ZM171.635 57.6602V58.5488H160.506V57.6602H165.51V55.0352H161.818V48.8145H162.898V51.0156H169.215V48.8145H170.268V55.0352H166.562V57.6602H171.635ZM162.898 54.1602H169.215V51.8906H162.898V54.1602ZM179.346 48.8965V49.5391C179.332 50.332 179.332 51.5488 179.031 53.1348L177.951 53.0527C178.245 51.5967 178.272 50.5645 178.293 49.7988H173.289V48.8965H179.346ZM176.215 51.5898V54.2012C177.562 54.1465 178.956 54.0508 180.221 53.873L180.289 54.666C177.746 55.1035 174.807 55.1582 172.646 55.1582L172.537 54.2695C173.323 54.2627 174.212 54.2559 175.148 54.2285V51.5898H176.215ZM182.135 47.9531V51.918H183.912V52.834H182.135V57.0996H181.041V47.9531H182.135ZM182.531 58.9453V59.8477H174.41V56.2793H175.49V58.9453H182.531ZM195.779 53.6406V54.5293H190.762V55.8281C193.059 55.9238 194.412 56.6758 194.426 57.9609C194.412 59.3145 192.854 60.0801 190.242 60.0801C187.604 60.0801 186.045 59.3145 186.045 57.9609C186.045 56.6758 187.392 55.9238 189.709 55.8281V54.5293H184.705V53.6406H195.779ZM190.242 56.6484C188.287 56.6621 187.125 57.1406 187.139 57.9609C187.125 58.7676 188.287 59.2461 190.242 59.2461C192.17 59.2461 193.346 58.7676 193.346 57.9609C193.346 57.1406 192.17 56.6621 190.242 56.6484ZM194.795 48.5273V49.4023H190.939C191.008 50.7695 193.018 51.8291 195.164 52.0547L194.768 52.9023C192.778 52.6631 190.912 51.7744 190.242 50.4141C189.579 51.7744 187.72 52.6631 185.717 52.9023L185.334 52.0547C187.439 51.8291 189.463 50.7695 189.545 49.4023H185.717V48.5273H194.795ZM206.84 47.9531V54.4746H205.773V47.9531H206.84ZM200.031 55.0898V56.5664H205.773V55.0898H206.84V59.9434H198.965V55.0898H200.031ZM200.031 59.0684H205.773V57.4277H200.031V59.0684ZM200.277 48.5547C202.123 48.541 203.463 49.6758 203.463 51.3438C203.463 52.998 202.123 54.1328 200.277 54.1328C198.432 54.1328 197.092 52.998 197.092 51.3438C197.092 49.6758 198.432 48.541 200.277 48.5547ZM200.277 49.457C199.033 49.4434 198.131 50.2363 198.145 51.3438C198.131 52.4512 199.033 53.2441 200.277 53.2441C201.508 53.2441 202.41 52.4512 202.41 51.3438C202.41 50.2363 201.508 49.4434 200.277 49.457ZM218.926 47.9531V60.1074H217.859V47.9531H218.926ZM210.75 49.1562V56.0469C212.603 56.04 214.523 55.8896 216.561 55.459L216.711 56.375C214.551 56.8262 212.623 56.9766 210.682 56.9766H209.697V49.1562H210.75ZM230.41 47.9531V52.7656H232.447V53.668H230.41V60.1348H229.344V47.9531H230.41ZM227.211 49.1426V50.0312H222.604V56.1836C224.805 56.1836 226.363 56.0811 228.168 55.7461L228.305 56.6758C226.404 57.0176 224.805 57.0859 222.494 57.0859H221.537V49.1426H227.211Z" fill="#5D5D5D"/>
</svg>
