<svg width="318" height="144" viewBox="0 0 318 144" fill="none" xmlns="http://www.w3.org/2000/svg">
<g opacity="0.5">
<path d="M19 76.8089C19 71.946 22.9421 68.0039 27.805 68.0039H290.195C295.058 68.0039 299 71.9461 299 76.8089V134.922C299 139.785 295.058 143.727 290.195 143.727H27.805C22.9421 143.727 19 139.785 19 134.922V76.8089Z" fill="white"/>
<circle cx="49.8174" cy="98.8208" r="13.2075" fill="#FFC642"/>
<path d="M49.0775 93.4058C49.4072 92.8439 50.2285 92.8439 50.5581 93.4058L50.5893 93.4639L52.0049 96.3321L55.1702 96.7921C55.8758 96.8946 56.1575 97.7621 55.6469 98.2598L53.3559 100.492L53.8971 103.645C54.0176 104.347 53.2803 104.883 52.6492 104.552L49.8176 103.063L46.9865 104.552C46.3554 104.883 45.6181 104.347 45.7386 103.645L46.2792 100.492L43.9887 98.2598C43.4782 97.7621 43.7599 96.8946 44.4654 96.7921L47.6303 96.3321L49.0464 93.4639L49.0775 93.4058ZM48.5622 96.9329C48.4525 97.1551 48.253 97.3172 48.0172 97.3816L47.914 97.4031L45.1055 97.811L47.138 99.7925C47.3406 99.9901 47.433 100.275 47.3852 100.553L46.9053 103.351L49.4177 102.03L49.5134 101.987C49.7094 101.913 49.9263 101.913 50.1223 101.987L50.2179 102.03L52.7298 103.351L52.2505 100.553C52.2027 100.275 52.2951 99.99 52.4977 99.7925L54.5296 97.811L51.7216 97.4031C51.4765 97.3675 51.2603 97.2286 51.1262 97.0243L51.074 96.9329L49.8176 94.3882L48.5622 96.9329Z" fill="white"/>
<path d="M83.8232 93.3767V94.2916H73.9881V93.3767H83.8232ZM82.5833 95.1583V97.6984H76.2994V98.6494H82.8843V99.5282H75.1799V96.8678H81.4517V96.013H75.1678V95.1583H82.5833ZM82.9444 89.2476V90.1625H79.5858C79.7905 91.1135 81.3374 91.884 83.3297 92.0284L82.9565 92.9192C81.0966 92.7447 79.5497 92.0766 78.8996 91.0533C78.2436 92.0766 76.7027 92.7447 74.8548 92.9192L74.4937 92.0284C76.4619 91.884 78.0088 91.1015 78.2135 90.1625H74.8909V89.2476H82.9444ZM90.1312 90.006C90.1312 90.6019 90.077 91.1858 89.9747 91.7515H92.4907V88.8383H93.6223V99.6245H92.4907V95.5797H89.5895V94.6407H92.4907V92.6664H89.758C89.1441 94.6708 87.7477 96.4043 85.2076 97.6502L84.6057 96.7353C87.3865 95.369 88.7649 93.4128 88.9876 90.9209H85.0993V90.006H90.1312ZM99.0755 91.0774C99.0755 92.3053 100.051 93.461 101.7 93.9184L101.182 94.7972C99.9242 94.4481 99.0033 93.6897 98.5218 92.7146C98.0463 93.78 97.1013 94.6106 95.8252 95.0018L95.2715 94.099C96.9207 93.6295 97.944 92.4257 97.944 91.0774V90.957H95.5965V90.0421H97.944V88.8022H99.0876V90.0421H101.423V90.957H99.0755V91.0774ZM103.77 88.8504V91.4386H105.335V92.3896H103.77V95.0741H102.627V88.8504H103.77ZM103.939 95.6158V96.5307H100.99C101.194 97.5359 102.579 98.4568 104.384 98.7216L103.963 99.6004C102.326 99.3476 100.978 98.5952 100.352 97.566C99.7316 98.5892 98.3954 99.3295 96.7642 99.5884L96.3429 98.7096C98.1546 98.4568 99.521 97.566 99.7376 96.5307H96.7763V95.6158H103.939ZM114.918 88.8504V99.6365H113.762V88.8504H114.918ZM111.704 90.006C111.704 93.16 110.355 95.9047 106.66 97.6743L106.058 96.7474C108.929 95.381 110.325 93.4369 110.548 90.9209H106.575V90.006H111.704ZM125.078 88.8624V92.3294H126.643V93.2804H125.078V96.9279H123.934V88.8624H125.078ZM123.043 90.1144V91.0413H116.615V90.1144H119.263V88.8504H120.407V90.1144H123.043ZM119.829 91.5589C121.382 91.5589 122.442 92.3655 122.442 93.5934C122.442 94.8213 121.382 95.6158 119.829 95.6158C118.264 95.6158 117.205 94.8213 117.205 93.5934C117.205 92.3655 118.264 91.5589 119.829 91.5589ZM119.829 92.4377C118.914 92.4377 118.3 92.8831 118.312 93.5934C118.3 94.2916 118.914 94.725 119.829 94.725C120.744 94.725 121.358 94.2916 121.37 93.5934C121.358 92.8831 120.744 92.4377 119.829 92.4377ZM125.535 98.4809V99.4078H118.24V96.2899H119.384V98.4809H125.535ZM139.536 88.8504V99.6365H138.452V88.8504H139.536ZM137.26 89.1272V99.1068H136.177V94.099H134.07C133.426 95.3509 132.403 96.4464 130.88 97.3372L130.23 96.5186C132.517 95.1583 133.619 93.3466 133.818 91.1256H130.736V90.1866H134.949C134.943 91.2399 134.799 92.2451 134.468 93.1841H136.177V89.1272H137.26ZM144.881 91.5951C144.869 93.5693 146.06 95.5436 147.734 96.2899L147.047 97.1928C145.808 96.6029 144.826 95.3931 144.327 93.9184C143.821 95.4954 142.828 96.8015 141.534 97.4335L140.836 96.4705C142.533 95.7121 143.725 93.6536 143.725 91.5951V89.7532H144.881V91.5951ZM149.852 88.8504V99.6606H148.709V88.8504H149.852ZM160.193 89.3078V90.0181C160.193 90.7343 160.193 91.6372 159.964 92.8109H161.445V93.7258H151.574V92.8109H158.821C159.037 91.7154 159.062 90.8908 159.062 90.2227H152.814V89.3078H160.193ZM160.205 94.6889V97.5178H153.885V98.6133H160.482V99.5282H152.742V96.639H159.074V95.6037H152.729V94.6889H160.205ZM165.743 89.6208C167.452 89.6088 168.668 90.6681 168.68 92.1849C168.668 93.7017 167.452 94.7611 165.743 94.7611C164.045 94.7611 162.793 93.7017 162.805 92.1849C162.793 90.6681 164.045 89.6088 165.743 89.6208ZM165.743 90.6079C164.695 90.6079 163.925 91.2339 163.937 92.1849C163.925 93.1359 164.695 93.7619 165.743 93.7619C166.79 93.7619 167.56 93.1359 167.56 92.1849C167.56 91.2339 166.79 90.6079 165.743 90.6079ZM171.148 88.8504V99.6606H170.004V88.8504H171.148ZM162.288 96.3862C164.25 96.3862 166.971 96.3622 169.33 96.0251L169.414 96.8557C166.971 97.3252 164.358 97.3372 162.432 97.3372L162.288 96.3862ZM179.611 90.5718C179.611 91.9923 180.598 93.3045 182.211 93.8341L181.597 94.737C180.417 94.3217 179.532 93.479 179.069 92.4136C178.593 93.6235 177.679 94.5685 176.421 95.038L175.807 94.1231C177.492 93.5212 178.467 92.0886 178.479 90.4755V89.4162H179.611V90.5718ZM184.366 88.8504V91.5589H185.931V92.522H184.366V95.363H183.222V88.8504H184.366ZM180.887 95.6158C183.102 95.6158 184.462 96.3501 184.462 97.6141C184.462 98.8902 183.102 99.6245 180.887 99.6124C178.648 99.6245 177.263 98.8902 177.263 97.6141C177.263 96.3501 178.648 95.6158 180.887 95.6158ZM180.887 96.5186C179.322 96.5186 178.395 96.9279 178.407 97.6141C178.395 98.3244 179.322 98.7096 180.887 98.7216C182.44 98.7096 183.342 98.3244 183.342 97.6141C183.342 96.9279 182.44 96.5186 180.887 96.5186ZM191.276 90.0542V90.9691H188.049V92.8952H191.095V93.798H188.049V96.0732C189.506 96.0672 190.469 96.007 191.613 95.8204L191.709 96.7594C190.445 96.9881 189.398 97.0363 187.676 97.0363H186.954V90.0542H191.276ZM195.826 88.8504V99.6365H194.731V94.0629H193.43V99.1068H192.335V89.055H193.43V93.1359H194.731V88.8504H195.826Z" fill="#1EB87B"/>
<path d="M205.601 88.8504V93.148H207.274V94.099H205.601V99.6245H204.457V88.8504H205.601ZM202.784 89.9819C202.772 93.0998 201.4 95.8806 197.848 97.6382L197.21 96.7474C199.913 95.3991 201.382 93.4489 201.616 90.933H197.752V89.9819H202.784ZM219.854 88.8624V96.8316H218.71V94.0268H216.351V95.038H211.379V89.5726H212.523V91.4024H215.219V89.5726H216.351V90.7765H218.71V88.8624H219.854ZM220.095 98.4809V99.4078H212.812V96.0492H213.967V98.4809H220.095ZM212.523 94.111H215.219V92.2812H212.523V94.111ZM216.351 93.0998H218.71V91.7154H216.351V93.0998ZM230.508 88.8624V95.2426H229.364V93.9304H226.644V92.9915H229.364V91.6793H226.752C226.06 93.4128 224.441 94.6347 222.105 95.3028L221.648 94.412C224.2 93.6776 225.693 92.3113 225.897 90.5718H222.202V89.6328H227.137C227.137 90.0301 227.095 90.4153 227.029 90.7765H229.364V88.8624H230.508ZM226.957 95.363C229.135 95.363 230.568 96.1575 230.58 97.4697C230.568 98.7818 229.135 99.5884 226.957 99.5884C224.742 99.5884 223.321 98.7818 223.321 97.4697C223.321 96.1575 224.742 95.363 226.957 95.363ZM226.957 96.2658C225.416 96.2658 224.453 96.6992 224.453 97.4697C224.453 98.2281 225.416 98.6735 226.957 98.6735C228.473 98.6735 229.424 98.2281 229.436 97.4697C229.424 96.6992 228.473 96.2658 226.957 96.2658ZM238.597 93.4128V94.3518H236.322V96.3501C237.321 96.302 238.327 96.2358 239.272 96.1334L239.356 96.9761C236.984 97.3372 234.42 97.3613 232.374 97.3734L232.229 96.4223C233.138 96.4223 234.143 96.4163 235.179 96.3862V94.3518H233.012V89.8495H238.549V90.7765H234.143V93.4128H238.597ZM241.089 88.8504V99.6606H239.946V88.8504H241.089ZM246.651 95.9649C246.651 96.8978 247.108 97.879 248.096 98.4809C249.083 97.8308 249.552 96.7835 249.552 95.9649V95.3871H250.672V95.9649C250.672 97.0844 251.406 98.1799 252.839 98.6374L252.249 99.4921C251.189 99.1129 250.467 98.3906 250.094 97.4937C249.757 98.3725 249.107 99.1731 248.108 99.5884C247.084 99.1971 246.434 98.4327 246.097 97.5419C245.706 98.3966 244.996 99.1129 243.979 99.4921L243.425 98.6374C244.797 98.1558 245.543 97.0122 245.555 95.9649V95.3871H246.651V95.9649ZM245.808 89.4402C247.199 89.4402 248.312 90.2648 248.565 91.4867H250.672V88.8504H251.815V94.9657H250.672V92.4257H248.577C248.354 93.6837 247.229 94.5324 245.808 94.5324C244.183 94.5324 242.991 93.485 242.991 91.9923C242.991 90.4996 244.183 89.4402 245.808 89.4402ZM245.808 90.4033C244.809 90.4033 244.075 91.0413 244.087 91.9923C244.075 92.9192 244.809 93.5813 245.808 93.5813C246.783 93.5813 247.518 92.9192 247.518 91.9923C247.518 91.0413 246.783 90.4033 245.808 90.4033ZM256.402 89.6569C257.864 89.6569 258.936 90.8968 259.11 92.8952H261.337V88.8504H262.469V99.6606H261.337V93.8221H259.122C258.996 95.9228 257.901 97.2289 256.402 97.2289C254.789 97.2289 253.657 95.7602 253.669 93.4369C253.657 91.1256 254.789 89.6569 256.402 89.6569ZM256.402 90.6802C255.427 90.6802 254.753 91.7395 254.753 93.4369C254.753 95.1463 255.427 96.2057 256.402 96.2057C257.377 96.2057 258.051 95.1463 258.051 93.4369C258.051 91.7395 257.377 90.6802 256.402 90.6802ZM274.002 97.3372V98.2883H264.13V97.3372H266.49V94.5203C265.605 94.0328 265.069 93.2563 265.069 92.2933C265.069 90.5959 266.731 89.4763 269.042 89.4763C271.365 89.4763 273.027 90.5959 273.027 92.2933C273.027 93.2443 272.509 94.0087 271.642 94.4962V97.3372H274.002ZM269.042 90.3912C267.345 90.3912 266.177 91.1256 266.177 92.2933C266.177 93.4489 267.345 94.2073 269.042 94.2073C270.727 94.2073 271.919 93.4489 271.919 92.2933C271.919 91.1256 270.727 90.3912 269.042 90.3912ZM267.621 97.3372H270.486V94.9296C270.047 95.044 269.56 95.0981 269.042 95.0981C268.536 95.0981 268.055 95.044 267.621 94.9417V97.3372ZM276.012 98.6975C275.542 98.6975 275.145 98.3123 275.157 97.8428C275.145 97.3734 275.542 96.9881 276.012 96.9881C276.469 96.9881 276.867 97.3734 276.867 97.8428C276.867 98.3123 276.469 98.6975 276.012 98.6975Z" fill="#5D5D5D"/>
<path d="M82.6916 114.285V115.08H79.3691V117.933H83.8232V118.715H74.0242V117.933H78.4301V115.08H75.228V110.325H76.1911V114.285H82.6916ZM93.5019 109.422V117.548H92.5509V116.44H90.3359V115.754H92.5509V109.422H93.5019ZM93.7667 119.089V119.883H86.1586V116.753H87.1096V119.089H93.7667ZM84.6177 114.382C86.6161 114.37 89.2885 114.358 91.5878 114.069L91.648 114.755C90.691 114.905 89.6918 115.002 88.7107 115.056V117.175H87.7597V115.104C86.6763 115.152 85.647 115.158 84.7502 115.152L84.6177 114.382ZM88.1329 109.855C89.6978 109.855 90.7692 110.602 90.7813 111.721C90.7692 112.865 89.6978 113.575 88.1329 113.575C86.5559 113.575 85.4845 112.865 85.4845 111.721C85.4845 110.602 86.5559 109.855 88.1329 109.855ZM88.1329 110.578C87.0856 110.566 86.3753 111.035 86.3874 111.721C86.3753 112.419 87.0856 112.877 88.1329 112.877C89.1441 112.877 89.8664 112.419 89.8784 111.721C89.8664 111.035 89.1441 110.566 88.1329 110.578ZM103.794 110.108V111.047C103.794 112.064 103.794 113.166 103.494 114.707H105.083V115.489H100.665V120.136H99.7136V115.489H95.3317V114.707H102.53C102.856 113.166 102.856 112.04 102.856 111.047V110.891H96.5596V110.108H103.794ZM115.158 109.41V120.112H114.244V109.41H115.158ZM113.004 109.639V119.57H112.101V114.37H110.728C110.626 116.452 109.741 117.752 108.417 117.752C107.021 117.752 106.118 116.308 106.118 114.033C106.118 111.757 107.021 110.313 108.417 110.313C109.717 110.313 110.596 111.571 110.716 113.587H112.101V109.639H113.004ZM108.417 111.204C107.55 111.204 106.997 112.287 107.009 114.033C106.997 115.766 107.55 116.862 108.417 116.849C109.284 116.862 109.838 115.766 109.838 114.033C109.838 112.287 109.284 111.204 108.417 111.204ZM120.407 112.287C120.407 114.225 121.647 116.175 123.2 116.886L122.634 117.656C121.418 117.03 120.413 115.748 119.938 114.225C119.462 115.826 118.457 117.199 117.241 117.849L116.627 117.09C118.192 116.32 119.444 114.261 119.444 112.287V110.337H120.407V112.287ZM125.511 109.41V120.136H124.572V113.84H122.032V113.07H124.572V109.41H125.511ZM135.912 110.108C135.9 112.793 133.986 114.719 130.904 115.598L130.507 114.851C133.065 114.129 134.696 112.708 134.901 110.891H131.061V110.108H135.912ZM139.259 109.422V115.525H138.308V112.973H135.936V112.179H138.308V109.422H139.259ZM139.259 115.983V119.967H132.313V115.983H139.259ZM133.228 116.741V119.197H138.32V116.741H133.228ZM149.913 109.41V115.79H148.962V112.985H146.807V112.203H148.962V109.41H149.913ZM146.361 116.127C148.588 116.127 149.949 116.849 149.949 118.113C149.949 119.377 148.588 120.1 146.361 120.112C144.134 120.1 142.774 119.377 142.774 118.113C142.774 116.849 144.134 116.127 146.361 116.127ZM146.361 116.862C144.724 116.862 143.701 117.331 143.713 118.113C143.701 118.884 144.724 119.353 146.361 119.353C147.998 119.353 149.01 118.884 149.01 118.113C149.01 117.331 147.998 116.862 146.361 116.862ZM144.76 111.372C144.76 112.769 145.832 114.093 147.397 114.634L146.903 115.393C145.699 114.959 144.766 114.063 144.315 112.949C143.845 114.207 142.852 115.212 141.582 115.694L141.089 114.935C142.678 114.358 143.809 112.913 143.809 111.384V110.987H141.39V110.192H147.156V110.987H144.76V111.372ZM154.884 111.505C154.884 112.72 155.703 113.948 157.075 114.49L156.57 115.224C155.558 114.803 154.818 114.021 154.439 113.07C154.042 114.111 153.271 115.02 152.224 115.489L151.706 114.755C153.115 114.129 153.981 112.72 153.981 111.505V110.072H154.884V111.505ZM160.783 109.422V115.886H159.88V113.009H158.46V115.826H157.569V109.615H158.46V112.215H159.88V109.422H160.783ZM160.783 116.476V120.112H159.856V117.259H153.572V116.476H160.783ZM170.991 110.529C170.979 113.623 169.932 116.452 166.08 118.342L165.55 117.62C167.566 116.645 168.776 115.405 169.426 113.96L165.755 114.309L165.598 113.479L169.715 113.202C169.902 112.6 170.01 111.968 170.052 111.312H166.14V110.529H170.991ZM173.724 109.41V113.768H175.457V114.562H173.724V120.112H172.785V109.41H173.724ZM184.739 114.562V115.345H177.347V110.409H184.631V111.192H178.286V114.562H184.739ZM185.895 117.861V118.655H176.095V117.861H185.895ZM193.671 112.696C193.671 114.514 194.995 116.356 196.572 117.042L196.043 117.788C194.791 117.217 193.707 115.983 193.214 114.502C192.708 116.073 191.631 117.439 190.409 118.053L189.843 117.307C191.372 116.573 192.708 114.55 192.72 112.696V111.3H190.192V110.517H196.223V111.3H193.671V112.696ZM198.667 109.41V120.112H197.716V109.41H198.667ZM208.863 109.41V111.962H210.476V112.757H208.863V115.2H207.912V109.41H208.863ZM205.95 110.072C205.95 112.744 204.036 114.562 200.882 115.345L200.521 114.562C203.169 113.924 204.74 112.57 204.915 110.842H200.99V110.072H205.95ZM203.013 115.694V117.054H207.924V115.694H208.863V119.967H202.062V115.694H203.013ZM203.013 119.197H207.924V117.813H203.013V119.197ZM223.068 109.41V114.839H222.141V109.41H223.068ZM218.831 115.501V117.993H216.411V119.209C217.603 119.203 218.301 119.179 219.18 119.004L219.288 119.727C218.277 119.931 217.507 119.955 216.062 119.943H215.508V117.319H217.904V116.211H215.472V115.501H218.831ZM223.827 115.983V116.717H219.228V115.983H221.082V114.996H222.009V115.983H223.827ZM221.527 117.15C222.587 117.15 223.393 117.728 223.393 118.607C223.393 119.534 222.587 120.088 221.527 120.088C220.456 120.088 219.661 119.534 219.674 118.607C219.661 117.728 220.456 117.15 221.527 117.15ZM221.527 117.837C220.901 117.837 220.48 118.138 220.48 118.607C220.48 119.113 220.901 119.414 221.527 119.414C222.141 119.414 222.563 119.113 222.575 118.607C222.563 118.138 222.141 117.837 221.527 117.837ZM217.278 109.807C218.879 109.819 220.047 110.782 220.047 112.179C220.047 113.575 218.879 114.538 217.278 114.538C215.653 114.538 214.497 113.575 214.497 112.179C214.497 110.782 215.653 109.819 217.278 109.807ZM217.278 110.602C216.207 110.602 215.412 111.252 215.424 112.179C215.412 113.118 216.207 113.768 217.278 113.768C218.337 113.768 219.132 113.118 219.132 112.179C219.132 111.252 218.337 110.602 217.278 110.602ZM227.775 110.241C229.232 110.253 230.279 111.499 230.436 113.503H232.831V109.41H233.77V120.136H232.831V114.285H230.448C230.333 116.38 229.268 117.692 227.775 117.692C226.198 117.692 225.091 116.248 225.091 113.972C225.091 111.697 226.198 110.253 227.775 110.241ZM227.775 111.083C226.716 111.095 225.994 112.227 225.994 113.972C225.994 115.718 226.716 116.849 227.775 116.849C228.822 116.849 229.557 115.718 229.557 113.972C229.557 112.227 228.822 111.095 227.775 111.083ZM244.424 109.41V120.136H243.485V114.177H240.921V117.427H235.985V110.253H236.936V113.045H239.994V110.253H240.921V113.395H243.485V109.41H244.424ZM236.936 116.645H239.994V113.804H236.936V116.645ZM251.286 109.964V112.961H247.602V114.562C249.588 114.562 250.636 114.52 251.912 114.297L252.008 115.068C250.648 115.309 249.552 115.345 247.421 115.333H246.663V112.227H250.347V110.746H246.639V109.964H251.286ZM255.078 109.422V115.838H254.127V113.924H252.008V113.154H254.127V111.685H252.008V110.915H254.127V109.422H255.078ZM249.853 116.729C249.853 117.686 250.359 118.709 251.382 119.293C252.405 118.655 252.935 117.566 252.935 116.729V116.103H253.862V116.729C253.862 117.849 254.656 118.956 256.041 119.426L255.559 120.136C254.494 119.751 253.747 118.992 253.38 118.089C253.049 118.962 252.399 119.793 251.394 120.22C250.365 119.817 249.709 119.022 249.384 118.126C248.998 118.998 248.264 119.751 247.253 120.136L246.759 119.426C248.108 118.932 248.95 117.776 248.95 116.729V116.103H249.853V116.729ZM259.736 110.241C261.193 110.253 262.24 111.499 262.397 113.503H264.792V109.41H265.731V120.136H264.792V114.285H262.409C262.295 116.38 261.229 117.692 259.736 117.692C258.159 117.692 257.052 116.248 257.052 113.972C257.052 111.697 258.159 110.253 259.736 110.241ZM259.736 111.083C258.677 111.095 257.955 112.227 257.955 113.972C257.955 115.718 258.677 116.849 259.736 116.849C260.784 116.849 261.518 115.718 261.518 113.972C261.518 112.227 260.784 111.095 259.736 111.083ZM277.312 117.945V118.739H267.513V117.945H269.945V115.056C269.03 114.58 268.476 113.81 268.476 112.841C268.476 111.18 270.101 110.096 272.388 110.084C274.676 110.096 276.301 111.18 276.301 112.841C276.301 113.792 275.765 114.556 274.88 115.032V117.945H277.312ZM272.388 110.867C270.631 110.854 269.391 111.649 269.391 112.841C269.391 114.033 270.631 114.839 272.388 114.839C274.134 114.839 275.386 114.033 275.386 112.841C275.386 111.649 274.134 110.854 272.388 110.867ZM270.872 117.945H273.929V115.393C273.466 115.519 272.948 115.585 272.388 115.585C271.841 115.585 271.329 115.525 270.872 115.405V117.945Z" fill="#5D5D5D"/>
</g>
<path d="M0 10C0 4.47715 4.47715 0 10 0H308C313.523 0 318 4.47715 318 10V76C318 81.5229 313.523 86 308 86H9.99999C4.47714 86 0 81.5229 0 76V10Z" fill="white"/>
<circle cx="35" cy="35" r="15" fill="#4F95FF"/>
<path d="M39.2455 30.4105C39.2007 29.9693 38.8282 29.625 38.3751 29.625H31.6252C31.142 29.625 30.75 30.017 30.75 30.5002V39.4999C30.75 39.9831 31.142 40.3751 31.6252 40.3751H38.3751C38.8281 40.3751 39.2006 40.0307 39.2455 39.5896L39.2498 39.4999L39.2504 30.5002L39.2455 30.4105ZM35.0005 35.875L35.064 35.8781C35.3792 35.91 35.6255 36.1763 35.6255 36.5C35.6255 36.8237 35.3792 37.09 35.064 37.1219L35.0005 37.125H32.7501C32.405 37.1249 32.1251 36.8451 32.1251 36.5C32.1251 36.1549 32.405 35.8751 32.7501 35.875H35.0005ZM37.2502 33.6252L37.3143 33.6283C37.6294 33.6604 37.8752 33.9267 37.8752 34.2502C37.8751 34.5737 37.6293 34.8395 37.3143 34.8716L37.2502 34.8752H32.7501C32.4051 34.8752 32.1253 34.5953 32.1251 34.2502C32.1251 33.9051 32.405 33.6253 32.7501 33.6252H37.2502ZM37.2502 31.3749L37.3143 31.3779C37.6294 31.41 37.8752 31.6764 37.8752 31.9999C37.8752 32.3234 37.6294 32.5897 37.3143 32.6218L37.2502 32.6249H32.7501C32.405 32.6248 32.1251 32.345 32.1251 31.9999C32.1252 31.6548 32.405 31.3749 32.7501 31.3749H37.2502ZM40.4998 39.4999L40.4973 39.6091C40.4405 40.732 39.5121 41.6251 38.3751 41.6251H31.6252C30.4516 41.6251 29.5 40.6735 29.5 39.4999V30.5002C29.5 29.3266 30.4516 28.375 31.6252 28.375H38.3751C39.5487 28.375 40.5004 29.3266 40.5004 30.5002L40.4998 39.4999Z" fill="white"/>
<path d="M72.6641 23.9258V32.8945H71.3652V28.2871H69.0273V27.2344H71.3652V23.9258H72.6641ZM72.9922 34.8496V35.9023H64.707V32.0879H66.0059V34.8496H72.9922ZM66.8398 26.4004C66.8398 27.9316 67.9473 29.4629 69.793 30.0781L69.123 31.1172C67.749 30.6318 66.7305 29.6475 66.1973 28.4375C65.6641 29.7842 64.5908 30.8711 63.1348 31.3906L62.4648 30.3379C64.3516 29.6953 65.5137 28.082 65.5137 26.4004V25.9219H62.8613V24.8555H69.4648V25.9219H66.8398V26.4004ZM78.8164 27.5215C78.8164 29.4629 80.0879 31.623 81.9473 32.498L81.209 33.5098C79.835 32.8467 78.748 31.4658 78.2012 29.8594C77.6338 31.6162 76.4854 33.127 75.084 33.8242L74.3184 32.7988C76.1777 31.9102 77.5312 29.5996 77.5312 27.5215V26.2227H74.7695V25.1426H81.4824V26.2227H78.8164V27.5215ZM84.0938 23.9121V28.7656H86.0625V29.8594H84.0938V36.1621H82.7949V23.9121H84.0938ZM96.8359 23.9121V36.1621H95.5234V23.9121H96.8359ZM93.1855 25.2246C93.1855 28.8066 91.6543 31.9238 87.457 33.9336L86.7734 32.8809C90.0342 31.3291 91.6201 29.1211 91.873 26.2637H87.3613V25.2246H93.1855ZM108.936 23.9121V36.1621H107.623V23.9121H108.936ZM105.285 25.2246C105.285 28.8066 103.754 31.9238 99.5566 33.9336L98.873 32.8809C102.134 31.3291 103.72 29.1211 103.973 26.2637H99.4609V25.2246H105.285Z" fill="#1EB87B"/>
<path d="M118.041 27.2344C118.041 29.2715 118.875 31.3223 120.543 32.2109L119.777 33.2363C118.622 32.5869 117.836 31.4248 117.412 30.0371C116.954 31.5547 116.113 32.8535 114.924 33.5508L114.104 32.6074C115.854 31.582 116.783 29.4082 116.783 27.3164V25.0332H118.041V27.2344ZM124.809 23.9121V36.1621H123.564V29.8457H122.088V35.5605H120.844V24.1445H122.088V28.793H123.564V23.9121H124.809ZM140.312 23.9121V36.1621H139.082V23.9121H140.312ZM137.729 24.2266V35.5605H136.498V29.873H134.105C133.374 31.2949 132.212 32.5391 130.482 33.5508L129.744 32.6211C132.342 31.0762 133.593 29.0186 133.818 26.4961H130.318V25.4297H135.104C135.097 26.626 134.933 27.7676 134.557 28.834H136.498V24.2266H137.729ZM146.383 27.0293C146.369 29.2715 147.723 31.5137 149.623 32.3613L148.844 33.3867C147.436 32.7168 146.321 31.3428 145.754 29.668C145.18 31.459 144.052 32.9424 142.582 33.6602L141.789 32.5664C143.717 31.7051 145.07 29.3672 145.07 27.0293V24.9375H146.383V27.0293ZM152.029 23.9121V36.1895H150.73V23.9121H152.029ZM163.773 24.4316V25.2383C163.773 26.0518 163.773 27.0771 163.514 28.4102H165.195V29.4492H153.984V28.4102H162.215C162.461 27.166 162.488 26.2295 162.488 25.4707H155.393V24.4316H163.773ZM163.787 30.543V33.7559H156.609V35H164.102V36.0391H155.311V32.7578H162.502V31.582H155.297V30.543H163.787ZM176.229 23.9121V36.1895H174.93V23.9121H176.229ZM169.68 24.8281C171.498 24.8281 172.838 26.4961 172.838 29.1211C172.838 31.7598 171.498 33.4277 169.68 33.4277C167.834 33.4277 166.508 31.7598 166.508 29.1211C166.508 26.4961 167.834 24.8281 169.68 24.8281ZM169.68 25.9902C168.545 25.9902 167.766 27.1934 167.766 29.1211C167.766 31.0625 168.545 32.2656 169.68 32.2656C170.801 32.2656 171.58 31.0625 171.58 29.1211C171.58 27.1934 170.801 25.9902 169.68 25.9902ZM192.785 29.668V30.7344H181.602V29.668H192.785ZM191.486 27.5488V28.6016H182.996V24.3496H191.404V25.416H184.281V27.5488H191.486ZM187.18 31.6914C189.818 31.6914 191.404 32.498 191.404 33.9199C191.404 35.3418 189.818 36.1484 187.18 36.1348C184.527 36.1484 182.928 35.3418 182.928 33.9199C182.928 32.498 184.527 31.6914 187.18 31.6914ZM187.18 32.6895C185.307 32.7031 184.24 33.1406 184.24 33.9199C184.24 34.6992 185.307 35.1367 187.18 35.1367C189.025 35.1367 190.105 34.6992 190.105 33.9199C190.105 33.1406 189.025 32.7031 187.18 32.6895ZM204.898 30.5977V31.6504H193.688V30.5977H198.65V29.4355H195.123V26.3184H202.191V25.2246H195.096V24.1992H203.49V27.2754H196.408V28.4238H203.736V29.4355H199.936V30.5977H204.898ZM203.559 32.5117V36.0664H202.246V33.5508H194.945V32.5117H203.559ZM213.102 29.0938V30.1602H210.518V32.4297C211.652 32.375 212.794 32.2998 213.867 32.1836L213.963 33.1406C211.27 33.5508 208.357 33.5781 206.033 33.5918L205.869 32.5117C206.901 32.5117 208.043 32.5049 209.219 32.4707V30.1602H206.758V25.0469H213.047V26.0996H208.043V29.0938H213.102ZM215.932 23.9121V36.1895H214.633V23.9121H215.932ZM222.248 31.9922C222.248 33.0518 222.768 34.166 223.889 34.8496C225.01 34.1113 225.543 32.9219 225.543 31.9922V31.3359H226.814V31.9922C226.814 33.2637 227.648 34.5078 229.275 35.0273L228.605 35.998C227.402 35.5674 226.582 34.7471 226.158 33.7285C225.775 34.7266 225.037 35.6357 223.902 36.1074C222.74 35.6631 222.002 34.7949 221.619 33.7832C221.175 34.7539 220.368 35.5674 219.213 35.998L218.584 35.0273C220.143 34.4805 220.99 33.1816 221.004 31.9922V31.3359H222.248V31.9922ZM221.291 24.582C222.87 24.582 224.135 25.5186 224.422 26.9062H226.814V23.9121H228.113V30.8574H226.814V27.9727H224.436C224.183 29.4014 222.904 30.3652 221.291 30.3652C219.445 30.3652 218.092 29.1758 218.092 27.4805C218.092 25.7852 219.445 24.582 221.291 24.582ZM221.291 25.6758C220.156 25.6758 219.322 26.4004 219.336 27.4805C219.322 28.5332 220.156 29.2852 221.291 29.2852C222.398 29.2852 223.232 28.5332 223.232 27.4805C223.232 26.4004 222.398 25.6758 221.291 25.6758ZM233.322 24.8281C234.983 24.8281 236.2 26.2363 236.398 28.5059H238.928V23.9121H240.213V36.1895H238.928V29.5586H236.412C236.269 31.9443 235.024 33.4277 233.322 33.4277C231.49 33.4277 230.205 31.7598 230.219 29.1211C230.205 26.4961 231.49 24.8281 233.322 24.8281ZM233.322 25.9902C232.215 25.9902 231.449 27.1934 231.449 29.1211C231.449 31.0625 232.215 32.2656 233.322 32.2656C234.43 32.2656 235.195 31.0625 235.195 29.1211C235.195 27.1934 234.43 25.9902 233.322 25.9902ZM253.311 33.5508V34.6309H242.1V33.5508H244.779V30.3516C243.774 29.7979 243.166 28.916 243.166 27.8223C243.166 25.8945 245.053 24.623 247.678 24.623C250.316 24.623 252.203 25.8945 252.203 27.8223C252.203 28.9023 251.615 29.7705 250.631 30.3242V33.5508H253.311ZM247.678 25.6621C245.75 25.6621 244.424 26.4961 244.424 27.8223C244.424 29.1348 245.75 29.9961 247.678 29.9961C249.592 29.9961 250.945 29.1348 250.945 27.8223C250.945 26.4961 249.592 25.6621 247.678 25.6621ZM246.064 33.5508H249.318V30.8164C248.819 30.9463 248.266 31.0078 247.678 31.0078C247.104 31.0078 246.557 30.9463 246.064 30.8301V33.5508ZM255.594 35.0957C255.061 35.0957 254.609 34.6582 254.623 34.125C254.609 33.5918 255.061 33.1543 255.594 33.1543C256.113 33.1543 256.564 33.5918 256.564 34.125C256.564 34.6582 256.113 35.0957 255.594 35.0957Z" fill="#5D5D5D"/>
<path d="M282.227 31.082C284.371 31.082 285.66 31.7852 285.66 33.0039C285.66 34.2344 284.371 34.9375 282.227 34.9492C280.082 34.9375 278.77 34.2344 278.77 33.0039C278.77 31.7852 280.082 31.082 282.227 31.082ZM282.227 31.8086C280.656 31.8203 279.684 32.2539 279.695 33.0039C279.684 33.7539 280.656 34.1992 282.227 34.1992C283.809 34.1992 284.77 33.7539 284.77 33.0039C284.77 32.2539 283.809 31.8203 282.227 31.8086ZM285.566 24.5312V27.1562H287.137V27.9414H285.566V30.8008H284.652V24.5312H285.566ZM278.77 25.1875V26.7812H281.805V25.1875H282.719V29.9922H277.867V25.1875H278.77ZM278.77 29.2422H281.805V27.5078H278.77V29.2422ZM296.318 25.0938V25.8672C296.318 26.6758 296.318 27.625 296.049 28.9258H297.572V29.6875H288.033V28.9258H295.123C295.404 27.6191 295.404 26.6758 295.404 25.8672V25.8555H289.24V25.0938H296.318ZM296.365 31.1289V34.8086H289.205V31.1289H296.365ZM290.119 31.8555V34.0586H295.451V31.8555H290.119Z" fill="#9D9D9D"/>
<path d="M66.8125 51.2207C66.7988 53.4355 68.3164 55.6777 70.1074 56.4844L69.4512 57.332C68.0703 56.6553 66.874 55.2266 66.293 53.4902C65.7256 55.3291 64.5293 56.8604 63.1074 57.5781L62.4238 56.6758C64.2285 55.8418 65.7324 53.5312 65.7461 51.2207V49.0059H66.8125V51.2207ZM72.5137 47.9531V60.1348H71.4336V47.9531H72.5137ZM78.7344 50.5645C78.7344 52.082 80.0469 53.4355 81.8379 53.9688L81.3184 54.8027C79.9102 54.3857 78.7822 53.4629 78.2422 52.2598C77.709 53.5928 76.6016 54.6387 75.1523 55.1172L74.6328 54.2969C76.4238 53.6953 77.6816 52.2188 77.6816 50.5645V50.3047H74.9336V49.4434H77.6816V47.8984H78.7617V49.4434H81.4824V50.3047H78.7344V50.5645ZM84.668 47.9531V55.3223H83.5879V52.3281H81.0996V51.4395H83.5879V47.9531H84.668ZM80.6348 55.6504C83.1641 55.6504 84.709 56.4434 84.709 57.8652C84.709 59.2734 83.1641 60.0801 80.6348 60.0801C78.1055 60.0801 76.5605 59.2734 76.5605 57.8652C76.5605 56.4434 78.1055 55.6504 80.6348 55.6504ZM80.6348 56.4844C78.7754 56.498 77.6133 57.0039 77.627 57.8652C77.6133 58.7129 78.7754 59.2324 80.6348 59.2324C82.5078 59.2324 83.6426 58.7129 83.6426 57.8652C83.6426 57.0039 82.5078 56.498 80.6348 56.4844ZM96.7676 55.7871V60.1074H95.6875V56.6484H88.5918V55.7871H96.7676ZM96.7676 47.9531V55.1172H95.6875V53.3672H92.5566C91.9893 54.0576 91.0938 54.4678 90.041 54.4609C88.2227 54.4746 86.8828 53.2715 86.8828 51.5488C86.8828 49.8535 88.2227 48.6504 90.041 48.6504C91.0869 48.6504 91.9824 49.0605 92.5566 49.7441H95.6875V47.9531H96.7676ZM90.041 49.5664C88.7969 49.5664 87.9082 50.4004 87.9082 51.5488C87.9082 52.7383 88.7969 53.5586 90.041 53.5586C91.2305 53.5586 92.1465 52.7383 92.1465 51.5488C92.1465 50.4004 91.2305 49.5664 90.041 49.5664ZM93.0352 52.4785H95.6875V50.6328H93.0352C93.1309 50.9199 93.1855 51.2207 93.1855 51.5488C93.1855 51.877 93.1309 52.1914 93.0352 52.4785ZM105.559 48.8965C107.35 48.9102 108.621 50.5508 108.635 53.1348C108.621 55.7188 107.35 57.3594 105.559 57.3594C103.754 57.3594 102.496 55.7188 102.496 53.1348C102.496 50.5508 103.754 48.9102 105.559 48.8965ZM105.559 49.8535C104.355 49.8672 103.508 51.1523 103.508 53.1348C103.508 55.1172 104.355 56.4023 105.559 56.4023C106.775 56.4023 107.596 55.1172 107.596 53.1348C107.596 51.1523 106.775 49.8672 105.559 49.8535ZM111.711 47.9531V52.8066H113.748V53.7363H111.711V60.1074H110.645V47.9531H111.711ZM124.426 47.9531V60.1348H123.346V47.9531H124.426ZM117.959 48.8965C119.764 48.9102 121.062 50.5508 121.062 53.1348C121.062 55.7188 119.764 57.3594 117.959 57.3594C116.141 57.3594 114.855 55.7188 114.855 53.1348C114.855 50.5508 116.141 48.9102 117.959 48.8965ZM117.959 49.8535C116.742 49.8672 115.895 51.1523 115.895 53.1348C115.895 55.1172 116.742 56.4023 117.959 56.4023C119.176 56.4023 120.023 55.1172 120.023 53.1348C120.023 51.1523 119.176 49.8672 117.959 49.8535ZM136.525 48.5137V49.4023H134.652V52.1914H136.484V53.0527H132.574V54.543H137.578V55.418H126.504V54.543H131.508V53.0527H127.584V52.1914H129.416V49.4023H127.543V48.5137H136.525ZM136.348 58.9453V59.8477H127.939V56.4844H129.02V58.9453H136.348ZM130.482 52.1914H133.586V49.4023H130.482V52.1914ZM146.055 49.1016V59H144.811V50.3867H144.756L142.35 51.9863V50.7422L144.811 49.1016H146.055ZM148.447 56.9766V55.9648L152.904 49.1016H154.422V55.8965H155.803V56.9766H154.422V59H153.246V56.9766H148.447ZM149.773 55.8965H153.246V50.6602H153.123L149.773 55.8145V55.8965ZM171.635 57.6602V58.5488H160.506V57.6602H165.51V55.0352H161.818V48.8145H162.898V51.0156H169.215V48.8145H170.268V55.0352H166.562V57.6602H171.635ZM162.898 54.1602H169.215V51.8906H162.898V54.1602ZM179.346 48.8965V49.5391C179.332 50.332 179.332 51.5488 179.031 53.1348L177.951 53.0527C178.245 51.5967 178.272 50.5645 178.293 49.7988H173.289V48.8965H179.346ZM176.215 51.5898V54.2012C177.562 54.1465 178.956 54.0508 180.221 53.873L180.289 54.666C177.746 55.1035 174.807 55.1582 172.646 55.1582L172.537 54.2695C173.323 54.2627 174.212 54.2559 175.148 54.2285V51.5898H176.215ZM182.135 47.9531V51.918H183.912V52.834H182.135V57.0996H181.041V47.9531H182.135ZM182.531 58.9453V59.8477H174.41V56.2793H175.49V58.9453H182.531ZM195.779 53.6406V54.5293H190.762V55.8281C193.059 55.9238 194.412 56.6758 194.426 57.9609C194.412 59.3145 192.854 60.0801 190.242 60.0801C187.604 60.0801 186.045 59.3145 186.045 57.9609C186.045 56.6758 187.392 55.9238 189.709 55.8281V54.5293H184.705V53.6406H195.779ZM190.242 56.6484C188.287 56.6621 187.125 57.1406 187.139 57.9609C187.125 58.7676 188.287 59.2461 190.242 59.2461C192.17 59.2461 193.346 58.7676 193.346 57.9609C193.346 57.1406 192.17 56.6621 190.242 56.6484ZM194.795 48.5273V49.4023H190.939C191.008 50.7695 193.018 51.8291 195.164 52.0547L194.768 52.9023C192.778 52.6631 190.912 51.7744 190.242 50.4141C189.579 51.7744 187.72 52.6631 185.717 52.9023L185.334 52.0547C187.439 51.8291 189.463 50.7695 189.545 49.4023H185.717V48.5273H194.795ZM206.84 47.9531V54.4746H205.773V47.9531H206.84ZM200.031 55.0898V56.5664H205.773V55.0898H206.84V59.9434H198.965V55.0898H200.031ZM200.031 59.0684H205.773V57.4277H200.031V59.0684ZM200.277 48.5547C202.123 48.541 203.463 49.6758 203.463 51.3438C203.463 52.998 202.123 54.1328 200.277 54.1328C198.432 54.1328 197.092 52.998 197.092 51.3438C197.092 49.6758 198.432 48.541 200.277 48.5547ZM200.277 49.457C199.033 49.4434 198.131 50.2363 198.145 51.3438C198.131 52.4512 199.033 53.2441 200.277 53.2441C201.508 53.2441 202.41 52.4512 202.41 51.3438C202.41 50.2363 201.508 49.4434 200.277 49.457ZM218.926 47.9531V60.1074H217.859V47.9531H218.926ZM210.75 49.1562V56.0469C212.603 56.04 214.523 55.8896 216.561 55.459L216.711 56.375C214.551 56.8262 212.623 56.9766 210.682 56.9766H209.697V49.1562H210.75ZM230.41 47.9531V52.7656H232.447V53.668H230.41V60.1348H229.344V47.9531H230.41ZM227.211 49.1426V50.0312H222.604V56.1836C224.805 56.1836 226.363 56.0811 228.168 55.7461L228.305 56.6758C226.404 57.0176 224.805 57.0859 222.494 57.0859H221.537V49.1426H227.211Z" fill="#5D5D5D"/>
</svg>
