<svg width="50" height="50" viewBox="0 0 50 50" fill="none" xmlns="http://www.w3.org/2000/svg">
<rect width="50" height="50" rx="5.8296" fill="#1BC587"/>
<ellipse cx="24.9999" cy="40.1907" rx="10.8744" ry="5.1009" fill="#288966"/>
<foreignObject x="13.0678" y="5.96385" width="23.8379" height="34.8379"><div xmlns="http://www.w3.org/1999/xhtml" style="backdrop-filter:blur(0.27px);clip-path:url(#bgblur_0_7437_112092_clip_path);height:100%;width:100%"></div></foreignObject><path data-figma-bg-blur-radius="0.540061" d="M36.3659 17.9147C36.3659 24.2167 29.254 40.2615 24.9869 40.2615C20.7198 40.2615 13.6079 24.2167 13.6079 17.9147C13.6079 11.6127 19.279 6.50391 24.9869 6.50391C30.6948 6.50391 36.3659 11.6127 36.3659 17.9147Z" fill="white"/>
<ellipse cx="18.1593" cy="19.2676" rx="1.39076" ry="1.8965" fill="black"/>
<path d="M29.6507 19.3158C29.6507 21.5764 28.0407 23.409 26.0546 23.409C24.0685 23.409 22.4585 21.5764 22.4585 19.3158C22.4585 17.0552 24.0685 15.2227 26.0546 15.2227C28.0407 15.2227 29.6507 17.0552 29.6507 19.3158Z" fill="black"/>
<ellipse cx="25.0587" cy="18.8776" rx="1.84192" ry="2.51436" fill="white"/>
<path d="M27.5786 12.3564C31.3128 12.3564 34.4292 15.6488 34.4292 19.8242C34.4292 22.1521 33.4528 24.2195 31.938 25.584C31.3098 26.1498 30.5902 26.5945 29.8091 26.8877C29.1103 27.15 28.36 27.292 27.5786 27.292C23.8445 27.2918 20.729 23.9995 20.729 19.8242C20.729 15.6489 23.8445 12.3566 27.5786 12.3564Z" stroke="#101010" stroke-width="1.34529"/>
<rect x="29.791" y="26.7344" width="3.66656" height="6.44809" transform="rotate(-33.4973 29.791 26.7344)" fill="black"/>
<path d="M36.581 30.4428C35.2661 31.5554 33.8837 30.9064 33.3569 30.4428C32.5478 29.3302 33.6941 27.9563 34.3684 27.4084C34.5707 27.2567 34.8487 27.1911 34.9119 27.2754C34.9119 27.2754 35.1648 27.2754 35.9866 28.5397C36.8084 29.8041 36.7452 30.0569 36.7452 30.0569C36.8463 30.2086 36.6231 30.3796 36.581 30.4428Z" fill="white"/>
<defs>
<clipPath id="bgblur_0_7437_112092_clip_path" transform="translate(-13.0678 -5.96385)"><path d="M36.3659 17.9147C36.3659 24.2167 29.254 40.2615 24.9869 40.2615C20.7198 40.2615 13.6079 24.2167 13.6079 17.9147C13.6079 11.6127 19.279 6.50391 24.9869 6.50391C30.6948 6.50391 36.3659 11.6127 36.3659 17.9147Z"/>
</clipPath></defs>
</svg>
