<svg width="60" height="60" viewBox="0 0 60 60" fill="none" xmlns="http://www.w3.org/2000/svg">
<rect width="60" height="60" rx="30" fill="#F5F5F5"/>
<path d="M37.0005 26.5002C37.0005 25.6948 36.3471 25.0414 35.5417 25.0414H27.6667C26.8613 25.0414 26.2079 25.6948 26.2079 26.5002V37.8752C26.2079 38.6806 26.8613 39.334 27.6667 39.334H35.5417C36.3471 39.334 37.0005 38.6806 37.0005 37.8752V26.5002ZM19.5005 31.3127V24.1664C19.5007 20.9451 22.1116 18.3342 25.3329 18.334H32.4792C33.1235 18.334 33.6454 18.8559 33.6454 19.5002C33.6454 20.1445 33.1235 20.6664 32.4792 20.6664H25.3329C23.4003 20.6667 21.8332 22.2338 21.8329 24.1664V31.3127C21.8329 31.957 21.311 32.4789 20.6667 32.4789C20.0224 32.4789 19.5005 31.957 19.5005 31.3127ZM39.3329 37.8752C39.3329 39.9693 37.6358 41.6664 35.5417 41.6664H27.6667C25.5726 41.6664 23.8755 39.9693 23.8755 37.8752V26.5002C23.8755 24.4061 25.5726 22.709 27.6667 22.709H35.5417C37.6358 22.709 39.3329 24.4061 39.3329 26.5002V37.8752Z" fill="#5D5D5D"/>
</svg>
