<svg width="60" height="60" viewBox="0 0 60 60" fill="none" xmlns="http://www.w3.org/2000/svg">
<rect width="60" height="60" rx="30" fill="#D6F8E1"/>
<path d="M19.5 38.0411V33.7379C19.5002 33.0937 20.0224 32.5712 20.6667 32.5712C21.3109 32.5712 21.8332 33.0937 21.8333 33.7379V38.0411C21.8334 38.4029 21.9708 38.7383 22.1968 38.9765C22.4208 39.2125 22.711 39.3331 23 39.3331H37C37.289 39.3331 37.5792 39.2125 37.8032 38.9765L37.8841 38.8831C38.0618 38.6543 38.1666 38.3578 38.1667 38.0411V33.7379C38.1668 33.0937 38.6891 32.5712 39.3333 32.5712C39.9776 32.5712 40.4998 33.0937 40.5 33.7379V38.0411C40.5 38.9835 40.1454 39.8989 39.4963 40.5829C38.8452 41.269 37.9485 41.6664 37 41.6664H23C22.0515 41.6664 21.1548 41.269 20.5037 40.5829C19.8546 39.8989 19.5 38.9835 19.5 38.0411ZM28.8345 33.4325V22.3116L25.4917 25.6487C25.0357 26.1039 24.2972 26.1036 23.842 25.6476C23.3868 25.1916 23.3872 24.453 23.8431 23.9978L29.1763 18.6738L29.2651 18.594C29.723 18.2212 30.3979 18.2478 30.8249 18.6738L36.158 23.9978L36.2389 24.0867C36.6127 24.5445 36.5867 25.2201 36.1603 25.6476C35.7336 26.0751 35.0569 26.1029 34.5983 25.7296L34.5094 25.6487L31.1678 22.3128V33.4325C31.1678 34.0768 30.6453 34.5991 30.0011 34.5992C29.3568 34.5992 28.8345 34.0769 28.8345 33.4325Z" fill="#1EB87B"/>
</svg>
