<svg width="146" height="20" viewBox="0 0 146 20" fill="none" xmlns="http://www.w3.org/2000/svg">
<path d="M0 10.9953C0 4.92275 4.92275 0 10.9953 0H58.6627C64.1843 0 68.6603 4.47609 68.6603 9.99763C68.6603 15.5192 64.1843 19.9953 58.6627 19.9953H0V10.9953Z" fill="white"/>
<path d="M12.6729 11.8134V12.3019H7.53678V11.8134H12.6729ZM8.72059 7.80467V8.81311H11.4766V7.80467H12.0653V10.7486H8.12555V7.80467H8.72059ZM8.72059 10.2788H11.4766V9.28288H8.72059V10.2788ZM17.8654 7.4226V11.5941H17.3017V9.55848H16.6127V11.4438H16.0552V7.52281H16.6127V9.06992H17.3017V7.4226H17.8654ZM18.0283 12.4272V12.9095H14.1448V11.2058H14.7336V12.4272H18.0283ZM15.4477 7.89237V9.53969H13.9068V10.2976C14.6021 10.2976 15.1314 10.26 15.7483 10.141L15.811 10.617C15.1032 10.7486 14.5207 10.7736 13.7001 10.7736H13.3306V9.08871H14.8777V8.3684H13.3181V7.89237H15.4477ZM23.1707 10.0784V10.5669H19.2622V7.91742H23.1206V8.40598H19.851V10.0784H23.1707ZM23.7594 11.7946V12.2894H18.6233V11.7946H23.7594ZM28.7077 9.05739V9.53342H24.843V7.61677H25.4318V9.05739H28.7077ZM29.2964 10.2412V10.7172H24.1603V10.2412H29.2964ZM28.7452 12.4084V12.897H24.7992V11.2496H25.3942V12.4084H28.7452ZM36.4119 11.8322V12.327H31.2757V11.8322H33.5369V10.5356H31.8645V7.86731H35.798V10.5356H34.1257V11.8322H36.4119ZM32.4408 8.34334V10.0658H35.2155V8.34334H32.4408ZM41.9551 11.8509V12.3395H36.819V11.8509H41.9551ZM41.3288 7.82973V9.58353H38.0341V10.4041H41.4603V10.8801H37.4454V9.10124H40.74V8.31202H37.4328V7.82973H41.3288ZM44.8489 7.82347C44.8489 8.23999 44.78 8.62207 44.6485 8.9697H45.4439V7.53534H46.0077V10.5606H45.4439V9.452H44.3979C44.0409 10.0063 43.474 10.4479 42.7005 10.7736L42.3998 10.3289C43.5116 9.88731 44.1255 9.19832 44.2351 8.30576H42.6566V7.82347H44.8489ZM47.1476 7.4226V10.6483H46.5839V7.4226H47.1476ZM44.3603 11.1682C44.3541 11.6536 44.5952 12.161 45.1057 12.471C45.6162 12.1328 45.8636 11.5879 45.8699 11.1682V10.83H46.4461V11.1682C46.4461 11.7507 46.8345 12.327 47.561 12.565L47.2729 13.0034C46.7154 12.8061 46.3396 12.4303 46.1455 11.9637C45.9669 12.4147 45.635 12.8312 45.112 13.0473C44.5764 12.8437 44.2413 12.4397 44.0722 11.9762C43.8687 12.4272 43.496 12.803 42.9698 13.0034L42.6692 12.565C43.3895 12.3082 43.7904 11.7131 43.7904 11.1682V10.83H44.3603V11.1682ZM49.4276 7.83599C50.1886 7.83599 50.7461 8.48114 50.8369 9.52089H51.9956V7.41633H52.5844V13.041H51.9956V10.0032H50.8431C50.7774 11.0962 50.2074 11.7758 49.4276 11.7758C48.5883 11.7758 47.9995 11.0116 48.0057 9.80276C47.9995 8.60015 48.5883 7.83599 49.4276 7.83599ZM49.4276 8.3684C48.9202 8.3684 48.5695 8.91959 48.5695 9.80276C48.5695 10.6922 48.9202 11.2434 49.4276 11.2434C49.9349 11.2434 50.2857 10.6922 50.2857 9.80276C50.2857 8.91959 49.9349 8.3684 49.4276 8.3684ZM58.5849 11.8322V12.327H53.4488V11.8322H54.6765V10.3665C54.2161 10.1128 53.9374 9.7088 53.9374 9.20772C53.9374 8.32455 54.8017 7.74204 56.0043 7.74204C57.2132 7.74204 58.0776 8.32455 58.0776 9.20772C58.0776 9.70254 57.8082 10.1003 57.3573 10.354V11.8322H58.5849ZM56.0043 8.21807C55.1212 8.21807 54.5136 8.60015 54.5136 9.20772C54.5136 9.80902 55.1212 10.2036 56.0043 10.2036C56.8812 10.2036 57.5013 9.80902 57.5013 9.20772C57.5013 8.60015 56.8812 8.21807 56.0043 8.21807ZM55.2652 11.8322H56.756V10.5794C56.5273 10.6389 56.2737 10.6671 56.0043 10.6671C55.7413 10.6671 55.4907 10.6389 55.2652 10.5857V11.8322ZM59.6309 12.5399C59.3867 12.5399 59.18 12.3395 59.1862 12.0952C59.18 11.8509 59.3867 11.6505 59.6309 11.6505C59.869 11.6505 60.0757 11.8509 60.0757 12.0952C60.0757 12.3395 59.869 12.5399 59.6309 12.5399Z" fill="#363636"/>
<path d="M74.022 18.0498C73.12 18.0498 72.5939 17.325 72.5939 16.0526C72.5939 14.7909 73.1308 14.0554 74.022 14.0554C74.9132 14.0554 75.4501 14.7909 75.4501 16.0526C75.4501 17.325 74.9186 18.0498 74.022 18.0498ZM74.022 17.5397C74.5481 17.5397 74.8595 17.0243 74.8595 16.0526C74.8595 15.0862 74.5427 14.5547 74.022 14.5547C73.5012 14.5547 73.1844 15.0862 73.1844 16.0526C73.1844 17.0243 73.4958 17.5397 74.022 17.5397ZM77.5089 14.0554C78.2229 14.0608 78.9746 14.4903 78.9746 15.913C78.9746 17.2767 78.3894 18.0498 77.4552 18.0498C76.7412 18.0498 76.2365 17.6095 76.1452 16.976H76.7304C76.8109 17.3035 77.0633 17.5344 77.4552 17.5344C78.0565 17.5344 78.4055 17.0082 78.4108 16.1224H78.3625C78.1531 16.4499 77.7881 16.6485 77.3693 16.6485C76.6714 16.6485 76.113 16.117 76.113 15.3708C76.113 14.6299 76.666 14.05 77.5089 14.0554ZM77.5089 14.5493C77.0364 14.5493 76.6875 14.9144 76.6875 15.36C76.6875 15.811 77.0257 16.1653 77.4982 16.1653C77.9652 16.1653 78.3303 15.7842 78.3303 15.3547C78.3303 14.9359 77.9867 14.5493 77.5089 14.5493ZM80.0885 17.4968C79.8791 17.4968 79.7019 17.325 79.7073 17.1156C79.7019 16.9062 79.8791 16.7344 80.0885 16.7344C80.2925 16.7344 80.4697 16.9062 80.4697 17.1156C80.4697 17.325 80.2925 17.4968 80.0885 17.4968ZM80.0885 15.3761C79.8791 15.3761 79.7019 15.2043 79.7073 14.9949C79.7019 14.7856 79.8791 14.6138 80.0885 14.6138C80.2925 14.6138 80.4697 14.7856 80.4697 14.9949C80.4697 15.2043 80.2925 15.3761 80.0885 15.3761ZM81.1809 17.2391V16.7613L82.8989 14.1091H83.6291V16.7398H84.1606V17.2391H83.6291V17.9961H83.0707V17.2391H81.1809ZM81.8037 16.7398H83.0707V14.8124H83.0278L81.8037 16.7076V16.7398ZM86.2194 18.0498C85.3175 18.0498 84.7913 17.325 84.7913 16.0526C84.7913 14.7909 85.3282 14.0554 86.2194 14.0554C87.1106 14.0554 87.6475 14.7909 87.6475 16.0526C87.6475 17.325 87.116 18.0498 86.2194 18.0498ZM86.2194 17.5397C86.7456 17.5397 87.0569 17.0243 87.0569 16.0526C87.0569 15.0862 86.7402 14.5547 86.2194 14.5547C85.6986 14.5547 85.3819 15.0862 85.3819 16.0526C85.3819 17.0243 85.6933 17.5397 86.2194 17.5397Z" fill="#787878"/>
</svg>
