<svg width="62" height="20" viewBox="0 0 62 20" fill="none" xmlns="http://www.w3.org/2000/svg">
<path d="M0 10.9953C0 4.92275 4.92275 0 10.9953 0H34.6627C40.1843 0 44.6603 4.47609 44.6603 9.99763C44.6603 15.5192 40.1843 19.9953 34.6627 19.9953H0V10.9953Z" fill="white"/>
<path d="M11.9463 7.41007V9.08871H12.7606V9.58979H11.9463V11.5378H11.3513V7.41007H11.9463ZM12.1843 12.4272V12.9095H8.38862V11.1056H8.98366V12.4272H12.1843ZM9.1152 7.79841C9.96078 7.79841 10.6059 8.37466 10.6122 9.19519C10.6059 10.0095 9.96078 10.592 9.1152 10.592C8.26961 10.592 7.6182 10.0095 7.62447 9.19519C7.6182 8.37466 8.26961 7.79841 9.1152 7.79841ZM9.1152 8.31829C8.60158 8.31829 8.20072 8.67531 8.20698 9.19519C8.20072 9.71507 8.60158 10.0721 9.1152 10.0721C9.63507 10.0721 10.0297 9.71507 10.0297 9.19519C10.0297 8.67531 9.63507 8.31829 9.1152 8.31829ZM14.0133 7.74204V10.0095C14.9153 10.0063 15.5667 9.96248 16.3058 9.81528L16.3747 10.2976C15.5729 10.4604 14.8652 10.5043 13.8505 10.498H13.412V7.74204H14.0133ZM17.7589 7.41633V10.8362H17.1639V9.47705H15.6356V9.01981H17.1639V8.49367H15.6356V8.03016H17.1639V7.41633H17.7589ZM15.8799 10.8864C17.0574 10.8864 17.7777 11.2872 17.7777 11.9637C17.7777 12.6339 17.0574 13.0222 15.8799 13.0285C14.7023 13.0222 13.9757 12.6339 13.982 11.9637C13.9757 11.2872 14.7023 10.8864 15.8799 10.8864ZM15.8799 11.3561C15.0593 11.3624 14.5708 11.5816 14.5708 11.9637C14.5708 12.3332 15.0593 12.5525 15.8799 12.5525C16.7004 12.5525 17.1889 12.3332 17.1889 11.9637C17.1889 11.5816 16.7004 11.3624 15.8799 11.3561ZM22.9953 7.41633V9.69001H23.8972V10.1848H22.9953V13.0285H22.4065V7.41633H22.9953ZM21.9179 8.29323V8.78179H18.592V8.29323H19.9762V7.4915H20.5713V8.29323H21.9179ZM20.2769 9.19519C21.0786 9.19519 21.6674 9.73386 21.6737 10.498C21.6674 11.2684 21.0786 11.8008 20.2769 11.8071C19.4689 11.8008 18.8801 11.2684 18.8801 10.498C18.8801 9.73386 19.4689 9.19519 20.2769 9.19519ZM20.2769 9.68375C19.8009 9.68375 19.4438 10.0157 19.4501 10.498C19.4438 10.9866 19.8009 11.3123 20.2769 11.306C20.7529 11.3123 21.1037 10.9866 21.1037 10.498C21.1037 10.0157 20.7529 9.68375 20.2769 9.68375ZM25.8765 8.95091C25.8765 9.8466 26.2523 10.8049 27.004 11.2622L26.672 11.7194C26.1459 11.4031 25.7888 10.8425 25.6009 10.1911C25.3911 10.9051 25.0059 11.5127 24.461 11.8447L24.0914 11.4C24.8869 10.9239 25.3003 9.93429 25.3003 8.97596V7.92995H25.8765V8.95091ZM28.9958 7.41633V13.0285H28.4258V7.41633H28.9958ZM27.8308 7.52281V12.7529H27.267V9.88418H26.3964V9.38936H27.267V7.52281H27.8308ZM34.846 11.8322V12.327H29.7098V11.8322H30.9375V10.3665C30.4771 10.1128 30.1984 9.7088 30.1984 9.20772C30.1984 8.32455 31.0628 7.74204 32.2654 7.74204C33.4742 7.74204 34.3386 8.32455 34.3386 9.20772C34.3386 9.70254 34.0693 10.1003 33.6183 10.354V11.8322H34.846ZM32.2654 8.21807C31.3822 8.21807 30.7746 8.60015 30.7746 9.20772C30.7746 9.80902 31.3822 10.2036 32.2654 10.2036C33.1423 10.2036 33.7624 9.80902 33.7624 9.20772C33.7624 8.60015 33.1423 8.21807 32.2654 8.21807ZM31.5263 11.8322H33.017V10.5794C32.7884 10.6389 32.5347 10.6671 32.2654 10.6671C32.0023 10.6671 31.7518 10.6389 31.5263 10.5857V11.8322ZM36.2866 7.96126L36.2302 11.187H35.6101L35.5538 7.96126H36.2866ZM35.9233 12.5399C35.679 12.5399 35.4723 12.3395 35.4786 12.0952C35.4723 11.8509 35.679 11.6505 35.9233 11.6505C36.1613 11.6505 36.368 11.8509 36.368 12.0952C36.368 12.3395 36.1613 12.5399 35.9233 12.5399Z" fill="#363636"/>
<path d="M50.1455 14.1091V17.9961H49.5495V14.6997H49.528L48.5992 15.3063V14.7426L49.5656 14.1091H50.1455ZM52.5962 18.0498C51.6942 18.0498 51.1681 17.325 51.1681 16.0526C51.1681 14.7909 51.705 14.0554 52.5962 14.0554C53.4874 14.0554 54.0243 14.7909 54.0243 16.0526C54.0243 17.325 53.4928 18.0498 52.5962 18.0498ZM52.5962 17.5397C53.1223 17.5397 53.4337 17.0243 53.4337 16.0526C53.4337 15.0862 53.117 14.5547 52.5962 14.5547C52.0754 14.5547 51.7587 15.0862 51.7587 16.0526C51.7587 17.0243 52.0701 17.5397 52.5962 17.5397ZM55.1275 17.4968C54.9181 17.4968 54.7409 17.325 54.7463 17.1156C54.7409 16.9062 54.9181 16.7344 55.1275 16.7344C55.3315 16.7344 55.5087 16.9062 55.5087 17.1156C55.5087 17.325 55.3315 17.4968 55.1275 17.4968ZM55.1275 15.3761C54.9181 15.3761 54.7409 15.2043 54.7463 14.9949C54.7409 14.7856 54.9181 14.6138 55.1275 14.6138C55.3315 14.6138 55.5087 14.7856 55.5087 14.9949C55.5087 15.2043 55.3315 15.3761 55.1275 15.3761ZM57.7822 14.1091V17.9961H57.1863V14.6997H57.1648L56.236 15.3063V14.7426L57.2024 14.1091H57.7822ZM60.3564 14.1091V17.9961H59.7605V14.6997H59.739L58.8102 15.3063V14.7426L59.7766 14.1091H60.3564Z" fill="#787878"/>
</svg>
