<svg width="49" height="10" viewBox="0 0 49 10" fill="none" xmlns="http://www.w3.org/2000/svg">
<path d="M0 4.83254C0 2.1636 2.1636 0 4.83254 0H43.4976C46.1666 0 48.3302 2.1636 48.3302 4.83254C48.3302 7.50148 46.1666 9.66509 43.4976 9.66509H4.83254C2.1636 9.66509 0 7.50148 0 4.83254Z" fill="#5D5D5D" fill-opacity="0.7"/>
<path d="M3.93348 6.83203V6.41148L5.07882 5.3064C5.40542 4.9798 5.57543 4.78742 5.57543 4.51451C5.57543 4.21475 5.33831 4.02237 5.02066 4.02237C4.68511 4.02237 4.47036 4.23265 4.47483 4.55925H3.92006C3.91558 3.94631 4.3764 3.54813 5.02513 3.54813C5.68728 3.54813 6.13468 3.94184 6.13468 4.48766C6.13468 4.85453 5.95572 5.14981 5.32041 5.74933L4.74327 6.322V6.34437H6.18389V6.83203H3.93348ZM8.02592 6.87677C7.24745 6.87677 6.78215 6.27278 6.78215 5.21245C6.78215 4.15659 7.24745 3.54813 8.02592 3.54813C8.79992 3.54813 9.26969 4.15659 9.26969 5.21245C9.26969 6.27278 8.80439 6.87677 8.02592 6.87677ZM8.02592 6.38911C8.43305 6.38911 8.6836 5.99092 8.6836 5.21245C8.6836 4.43845 8.42858 4.03132 8.02592 4.03132C7.62326 4.03132 7.36824 4.43845 7.36824 5.21245C7.36824 5.99092 7.61879 6.38911 8.02592 6.38911ZM9.89479 6.83203V6.41148L11.0401 5.3064C11.3667 4.9798 11.5367 4.78742 11.5367 4.51451C11.5367 4.21475 11.2996 4.02237 10.982 4.02237C10.6464 4.02237 10.4317 4.23265 10.4361 4.55925H9.88137C9.8769 3.94631 10.3377 3.54813 10.9864 3.54813C11.6486 3.54813 12.096 3.94184 12.096 4.48766C12.096 4.85453 11.917 5.14981 11.2817 5.74933L10.7046 6.322V6.34437H12.1452V6.83203H9.89479ZM13.9425 6.87677C13.2938 6.87677 12.8195 6.49201 12.8016 5.95513H13.3698C13.3877 6.2191 13.6338 6.407 13.9425 6.407C14.3049 6.407 14.5644 6.14304 14.5644 5.78512C14.5644 5.41378 14.2959 5.14981 13.9246 5.14981C13.6741 5.14534 13.4906 5.23482 13.3877 5.4272H12.8464L13.0432 3.59287H14.9581V4.08053H13.5219L13.4235 4.93954H13.4548C13.5801 4.79637 13.8172 4.69347 14.0812 4.69347C14.6852 4.69347 15.1281 5.14534 15.1281 5.76722C15.1281 6.41595 14.6404 6.87677 13.9425 6.87677ZM16.0082 6.86782C15.8158 6.86782 15.6593 6.71123 15.6593 6.51885C15.6593 6.33095 15.8158 6.17436 16.0082 6.17436C16.1917 6.17436 16.3527 6.33095 16.3527 6.51885C16.3527 6.71123 16.1917 6.86782 16.0082 6.86782ZM19.4731 3.59287V6.83203H18.887V4.16106H18.8691L18.113 4.64425V4.11185L18.9138 3.59287H19.4731ZM21.5925 6.87677C20.814 6.87677 20.3487 6.27278 20.3487 5.21245C20.3487 4.15659 20.814 3.54813 21.5925 3.54813C22.3665 3.54813 22.8362 4.15659 22.8362 5.21245C22.8362 6.27278 22.3709 6.87677 21.5925 6.87677ZM21.5925 6.38911C21.9996 6.38911 22.2501 5.99092 22.2501 5.21245C22.2501 4.43845 21.9951 4.03132 21.5925 4.03132C21.1898 4.03132 20.9348 4.43845 20.9348 5.21245C20.9348 5.99092 21.1853 6.38911 21.5925 6.38911ZM23.6895 6.86782C23.4971 6.86782 23.3405 6.71123 23.3405 6.51885C23.3405 6.33095 23.4971 6.17436 23.6895 6.17436C23.8729 6.17436 24.034 6.33095 24.034 6.51885C24.034 6.71123 23.8729 6.86782 23.6895 6.86782ZM27.0335 6.87677C26.2551 6.87677 25.7898 6.27278 25.7898 5.21245C25.7898 4.15659 26.2551 3.54813 27.0335 3.54813C27.8075 3.54813 28.2773 4.15659 28.2773 5.21245C28.2773 6.27278 27.812 6.87677 27.0335 6.87677ZM27.0335 6.38911C27.4407 6.38911 27.6912 5.99092 27.6912 5.21245C27.6912 4.43845 27.4362 4.03132 27.0335 4.03132C26.6309 4.03132 26.3759 4.43845 26.3759 5.21245C26.3759 5.99092 26.6264 6.38911 27.0335 6.38911ZM28.9337 6.83203L30.3386 4.1029V4.08053H28.71V3.59287H30.9426V4.08948L29.5377 6.83203H28.9337ZM35.8391 3.18573V4.85453H36.4073V5.27061H35.8391V7.23022H35.338V3.18573H35.8391ZM32.591 6.10725C32.8974 6.10725 33.2531 6.10725 33.6244 6.0983V5.71801C33.1838 5.64419 32.8952 5.3668 32.8997 4.98875C32.8952 4.5324 33.2978 4.22817 33.8795 4.22817C34.4521 4.22817 34.8593 4.5324 34.8637 4.98875C34.8593 5.36904 34.5662 5.64643 34.1255 5.71801V6.0804C34.4656 6.06251 34.8056 6.03566 35.1232 5.99092L35.1545 6.35332C34.2866 6.5099 33.3515 6.51885 32.6625 6.51885L32.591 6.10725ZM35.0785 3.65103V4.04474H32.667V3.65103H33.6244V3.20363H34.1255V3.65103H35.0785ZM33.8795 4.60846C33.5708 4.61294 33.3694 4.75163 33.3694 4.98875C33.3694 5.2214 33.5708 5.36009 33.8795 5.35562C34.1837 5.36009 34.385 5.2214 34.385 4.98875C34.385 4.75163 34.1837 4.61294 33.8795 4.60846ZM40.4326 6.33095V6.73808H36.7371V6.33095H37.5916V5.3064C37.2695 5.12297 37.0749 4.8344 37.0771 4.47424C37.0726 3.82999 37.7079 3.40496 38.5759 3.40496C39.4483 3.40496 40.0836 3.82999 40.0836 4.47424C40.0836 4.82769 39.8957 5.11178 39.5825 5.29745V6.33095H40.4326ZM38.5759 3.79867C37.9719 3.79867 37.5603 4.05369 37.5648 4.47424C37.5603 4.89032 37.9719 5.14981 38.5759 5.14981C39.1799 5.14981 39.596 4.89032 39.596 4.47424C39.596 4.05369 39.1799 3.79867 38.5759 3.79867ZM38.0838 6.33095H39.077V5.48536C38.9226 5.52115 38.7548 5.53905 38.5759 5.53905C38.4014 5.53905 38.2359 5.52115 38.0838 5.48984V6.33095ZM41.9793 3.31548C42.5923 3.31548 43.0486 3.69577 43.0531 4.22817C43.0486 4.76505 42.5923 5.14087 41.9793 5.14087C41.3619 5.14087 40.9056 4.76505 40.9056 4.22817C40.9056 3.69577 41.3619 3.31548 41.9793 3.31548ZM41.9793 3.72709C41.6393 3.72709 41.3888 3.91947 41.3888 4.22817C41.3888 4.54135 41.6393 4.73821 41.9793 4.73821C42.3194 4.73821 42.5699 4.54135 42.5699 4.22817C42.5699 3.91947 42.3194 3.72709 41.9793 3.72709ZM44.2029 3.18573V5.23035H43.7018V3.18573H44.2029ZM44.2029 5.40483V6.46069H42.0151V6.78729H44.3237V7.181H41.5275V6.09382H43.7063V5.79407H41.5185V5.40483H44.2029Z" fill="white"/>
</svg>
