<svg width="86" height="20" viewBox="0 0 86 20" fill="none" xmlns="http://www.w3.org/2000/svg">
<path d="M0 10.9953C0 4.92275 4.92275 0 10.9953 0H58.6627C64.1843 0 68.6603 4.47609 68.6603 9.99763C68.6603 15.5192 64.1843 19.9953 58.6627 19.9953H0V10.9953Z" fill="white"/>
<path d="M12.6729 11.8134V12.3019H7.53678V11.8134H12.6729ZM8.72059 7.80467V8.81311H11.4766V7.80467H12.0653V10.7486H8.12555V7.80467H8.72059ZM8.72059 10.2788H11.4766V9.28288H8.72059V10.2788ZM17.8654 7.4226V11.5941H17.3017V9.55848H16.6127V11.4438H16.0552V7.52281H16.6127V9.06992H17.3017V7.4226H17.8654ZM18.0283 12.4272V12.9095H14.1448V11.2058H14.7336V12.4272H18.0283ZM15.4477 7.89237V9.53969H13.9068V10.2976C14.6021 10.2976 15.1314 10.26 15.7483 10.141L15.811 10.617C15.1032 10.7486 14.5207 10.7736 13.7001 10.7736H13.3306V9.08871H14.8777V8.3684H13.3181V7.89237H15.4477ZM23.1707 10.0784V10.5669H19.2622V7.91742H23.1206V8.40598H19.851V10.0784H23.1707ZM23.7594 11.7946V12.2894H18.6233V11.7946H23.7594ZM28.7077 9.05739V9.53342H24.843V7.61677H25.4318V9.05739H28.7077ZM29.2964 10.2412V10.7172H24.1603V10.2412H29.2964ZM28.7452 12.4084V12.897H24.7992V11.2496H25.3942V12.4084H28.7452ZM36.4119 11.8322V12.327H31.2757V11.8322H33.5369V10.5356H31.8645V7.86731H35.798V10.5356H34.1257V11.8322H36.4119ZM32.4408 8.34334V10.0658H35.2155V8.34334H32.4408ZM41.9551 11.8509V12.3395H36.819V11.8509H41.9551ZM41.3288 7.82973V9.58353H38.0341V10.4041H41.4603V10.8801H37.4454V9.10124H40.74V8.31202H37.4328V7.82973H41.3288ZM44.8489 7.82347C44.8489 8.23999 44.78 8.62207 44.6485 8.9697H45.4439V7.53534H46.0077V10.5606H45.4439V9.452H44.3979C44.0409 10.0063 43.474 10.4479 42.7005 10.7736L42.3998 10.3289C43.5116 9.88731 44.1255 9.19832 44.2351 8.30576H42.6566V7.82347H44.8489ZM47.1476 7.4226V10.6483H46.5839V7.4226H47.1476ZM44.3603 11.1682C44.3541 11.6536 44.5952 12.161 45.1057 12.471C45.6162 12.1328 45.8636 11.5879 45.8699 11.1682V10.83H46.4461V11.1682C46.4461 11.7507 46.8345 12.327 47.561 12.565L47.2729 13.0034C46.7154 12.8061 46.3396 12.4303 46.1455 11.9637C45.9669 12.4147 45.635 12.8312 45.112 13.0473C44.5764 12.8437 44.2413 12.4397 44.0722 11.9762C43.8687 12.4272 43.496 12.803 42.9698 13.0034L42.6692 12.565C43.3895 12.3082 43.7904 11.7131 43.7904 11.1682V10.83H44.3603V11.1682ZM49.4276 7.83599C50.1886 7.83599 50.7461 8.48114 50.8369 9.52089H51.9956V7.41633H52.5844V13.041H51.9956V10.0032H50.8431C50.7774 11.0962 50.2074 11.7758 49.4276 11.7758C48.5883 11.7758 47.9995 11.0116 48.0057 9.80276C47.9995 8.60015 48.5883 7.83599 49.4276 7.83599ZM49.4276 8.3684C48.9202 8.3684 48.5695 8.91959 48.5695 9.80276C48.5695 10.6922 48.9202 11.2434 49.4276 11.2434C49.9349 11.2434 50.2857 10.6922 50.2857 9.80276C50.2857 8.91959 49.9349 8.3684 49.4276 8.3684ZM58.5849 11.8322V12.327H53.4488V11.8322H54.6765V10.3665C54.2161 10.1128 53.9374 9.7088 53.9374 9.20772C53.9374 8.32455 54.8017 7.74204 56.0043 7.74204C57.2132 7.74204 58.0776 8.32455 58.0776 9.20772C58.0776 9.70254 57.8082 10.1003 57.3573 10.354V11.8322H58.5849ZM56.0043 8.21807C55.1212 8.21807 54.5136 8.60015 54.5136 9.20772C54.5136 9.80902 55.1212 10.2036 56.0043 10.2036C56.8812 10.2036 57.5013 9.80902 57.5013 9.20772C57.5013 8.60015 56.8812 8.21807 56.0043 8.21807ZM55.2652 11.8322H56.756V10.5794C56.5273 10.6389 56.2737 10.6671 56.0043 10.6671C55.7413 10.6671 55.4907 10.6389 55.2652 10.5857V11.8322ZM59.6309 12.5399C59.3867 12.5399 59.18 12.3395 59.1862 12.0952C59.18 11.8509 59.3867 11.6505 59.6309 11.6505C59.869 11.6505 60.0757 11.8509 60.0757 12.0952C60.0757 12.3395 59.869 12.5399 59.6309 12.5399Z" fill="#363636"/>
<path d="M74.1455 14.1091V17.9961H73.5495V14.6997H73.528L72.5992 15.3063V14.7426L73.5656 14.1091H74.1455ZM76.5962 18.0498C75.6942 18.0498 75.1681 17.325 75.1681 16.0526C75.1681 14.7909 75.705 14.0554 76.5962 14.0554C77.4874 14.0554 78.0243 14.7909 78.0243 16.0526C78.0243 17.325 77.4928 18.0498 76.5962 18.0498ZM76.5962 17.5397C77.1223 17.5397 77.4337 17.0243 77.4337 16.0526C77.4337 15.0862 77.117 14.5547 76.5962 14.5547C76.0754 14.5547 75.7587 15.0862 75.7587 16.0526C75.7587 17.0243 76.0701 17.5397 76.5962 17.5397ZM79.1275 17.4968C78.9181 17.4968 78.7409 17.325 78.7463 17.1156C78.7409 16.9062 78.9181 16.7344 79.1275 16.7344C79.3315 16.7344 79.5087 16.9062 79.5087 17.1156C79.5087 17.325 79.3315 17.4968 79.1275 17.4968ZM79.1275 15.3761C78.9181 15.3761 78.7409 15.2043 78.7463 14.9949C78.7409 14.7856 78.9181 14.6138 79.1275 14.6138C79.3315 14.6138 79.5087 14.7856 79.5087 14.9949C79.5087 15.2043 79.3315 15.3761 79.1275 15.3761ZM81.7822 14.1091V17.9961H81.1863V14.6997H81.1648L80.236 15.3063V14.7426L81.2024 14.1091H81.7822ZM84.3564 14.1091V17.9961H83.7605V14.6997H83.739L82.8102 15.3063V14.7426L83.7766 14.1091H84.3564Z" fill="#787878"/>
</svg>
