<svg width="146" height="29" viewBox="0 0 146 29" fill="none" xmlns="http://www.w3.org/2000/svg">
<path d="M5.18183 23.1091V26.9961H4.5859V23.6997H4.56442L3.63562 24.3063V23.7426L4.602 23.1091H5.18183ZM7.63257 27.0498C6.73062 27.0498 6.20448 26.325 6.20448 25.0526C6.20448 23.7909 6.74136 23.0554 7.63257 23.0554C8.52379 23.0554 9.06067 23.7909 9.06067 25.0526C9.06067 26.325 8.52916 27.0498 7.63257 27.0498ZM7.63257 26.5397C8.15871 26.5397 8.4701 26.0243 8.4701 25.0526C8.4701 24.0862 8.15335 23.5547 7.63257 23.5547C7.1118 23.5547 6.79504 24.0862 6.79504 25.0526C6.79504 26.0243 7.10643 26.5397 7.63257 26.5397ZM10.1638 26.4968C9.95446 26.4968 9.77729 26.325 9.78266 26.1156C9.77729 25.9062 9.95446 25.7344 10.1638 25.7344C10.3679 25.7344 10.545 25.9062 10.545 26.1156C10.545 26.325 10.3679 26.4968 10.1638 26.4968ZM10.1638 24.3761C9.95446 24.3761 9.77729 24.2043 9.78266 23.9949C9.77729 23.7856 9.95446 23.6138 10.1638 23.6138C10.3679 23.6138 10.545 23.7856 10.545 23.9949C10.545 24.2043 10.3679 24.3761 10.1638 24.3761ZM12.8186 23.1091V26.9961H12.2227V23.6997H12.2012L11.2724 24.3063V23.7426L12.2388 23.1091H12.8186ZM13.9164 26.9961V26.5666L15.264 25.2083C15.6881 24.7627 15.9029 24.5157 15.9029 24.1775C15.9029 23.7963 15.5915 23.5493 15.1834 23.5493C14.7539 23.5493 14.4748 23.8231 14.4748 24.2365H13.9164C13.911 23.5279 14.4533 23.0554 15.1942 23.0554C15.9458 23.0554 16.4612 23.5279 16.4666 24.1614C16.4612 24.5962 16.2572 24.9399 15.527 25.6593L14.7378 26.4592V26.4914H16.531V26.9961H13.9164Z" fill="#787878"/>
<path d="M21.0269 10.9953C21.0269 4.92276 25.9496 0 32.0221 0H134.692C140.764 0 145.687 4.92274 145.687 10.9953V28.9953H32.0221C25.9496 28.9953 21.0269 24.0725 21.0269 18V10.9953Z" fill="#1EB87B" fill-opacity="0.7"/>
<path d="M33.4496 7.41633V10.498H32.8609V9.3831H31.9464V8.9008H32.8609V7.41633H33.4496ZM33.4496 10.7548V12.0576H30.3867V12.5211H33.6062V12.9721H29.7917V11.6255H32.8609V11.1995H29.7792V10.7548H33.4496ZM32.0717 7.87984V8.33708H28.7833V7.87984H30.1362V7.34743H30.725V7.87984H32.0717ZM30.4306 8.57509C31.201 8.57509 31.7459 8.93838 31.7459 9.49584C31.7459 10.0596 31.201 10.4228 30.4306 10.4166C29.6539 10.4228 29.109 10.0596 29.109 9.49584C29.109 8.93838 29.6539 8.57509 30.4306 8.57509ZM30.4306 9.01355C29.9796 9.00728 29.679 9.20145 29.679 9.49584C29.679 9.79649 29.9796 9.99066 30.4306 9.99066C30.8753 9.99066 31.176 9.79649 31.176 9.49584C31.176 9.20145 30.8753 9.00728 30.4306 9.01355ZM38.7298 7.79215V10.2099H36.1054V7.79215H38.7298ZM36.6879 8.26818V9.73386H38.1473V8.26818H36.6879ZM40.2957 7.41633V8.71916H41.11V9.21398H40.2957V10.5982H39.7007V7.41633H40.2957ZM40.3834 10.9114V11.3874H38.8488C38.9303 11.9198 39.66 12.4115 40.6152 12.5525L40.3959 13.0097C39.5441 12.8782 38.8426 12.4867 38.5169 11.9512C38.1974 12.4898 37.499 12.8782 36.6503 13.0034L36.4311 12.5462C37.3926 12.4115 38.1066 11.9355 38.2037 11.3874H36.6566V10.9114H40.3834ZM42.9327 7.83599C43.772 7.83599 44.3671 8.60015 44.3733 9.80276C44.3671 11.0116 43.772 11.7758 42.9327 11.7758C42.0934 11.7758 41.4921 11.0116 41.4983 9.80276C41.4921 8.60015 42.0934 7.83599 42.9327 7.83599ZM42.9327 8.3684C42.4191 8.3684 42.0683 8.91959 42.0683 9.80276C42.0683 10.6922 42.4191 11.2434 42.9327 11.2434C43.4526 11.2434 43.8033 10.6922 43.8033 9.80276C43.8033 8.91959 43.4526 8.3684 42.9327 8.3684ZM45.8014 7.41633V9.61485H46.7034V10.1159H45.8014V13.0285H45.2064V7.41633H45.8014ZM52.1088 11.8322V12.327H46.9727V11.8322H48.2004V10.3665C47.74 10.1128 47.4613 9.7088 47.4613 9.20772C47.4613 8.32455 48.3256 7.74204 49.5282 7.74204C50.7371 7.74204 51.6015 8.32455 51.6015 9.20772C51.6015 9.70254 51.3321 10.1003 50.8812 10.354V11.8322H52.1088ZM49.5282 8.21807C48.6451 8.21807 48.0375 8.60015 48.0375 9.20772C48.0375 9.80902 48.6451 10.2036 49.5282 10.2036C50.4051 10.2036 51.0252 9.80902 51.0252 9.20772C51.0252 8.60015 50.4051 8.21807 49.5282 8.21807ZM48.7891 11.8322H50.2799V10.5794C50.0512 10.6389 49.7976 10.6671 49.5282 10.6671C49.2652 10.6671 49.0146 10.6389 48.7891 10.5857V11.8322ZM53.1549 12.5399C52.9106 12.5399 52.7039 12.3395 52.7101 12.0952C52.7039 11.8509 52.9106 11.6505 53.1549 11.6505C53.3929 11.6505 53.5996 11.8509 53.5996 12.0952C53.5996 12.3395 53.3929 12.5399 53.1549 12.5399ZM54.846 12.5399C54.6017 12.5399 54.395 12.3395 54.4013 12.0952C54.395 11.8509 54.6017 11.6505 54.846 11.6505C55.084 11.6505 55.2907 11.8509 55.2907 12.0952C55.2907 12.3395 55.084 12.5399 54.846 12.5399ZM56.5372 12.5399C56.2929 12.5399 56.0862 12.3395 56.0925 12.0952C56.0862 11.8509 56.2929 11.6505 56.5372 11.6505C56.7752 11.6505 56.9819 11.8509 56.9819 12.0952C56.9819 12.3395 56.7752 12.5399 56.5372 12.5399ZM58.5916 7.96126L58.5353 11.187H57.9152L57.8588 7.96126H58.5916ZM58.2283 12.5399C57.9841 12.5399 57.7774 12.3395 57.7836 12.0952C57.7774 11.8509 57.9841 11.6505 58.2283 11.6505C58.4664 11.6505 58.6731 11.8509 58.6731 12.0952C58.6731 12.3395 58.4664 12.5399 58.2283 12.5399ZM65.563 7.41633V13.041H64.968V9.92176H63.8092V9.4332H64.968V7.41633H65.563ZM62.8822 8.99475C62.8822 9.94682 63.4772 10.9678 64.3416 11.3499L63.9846 11.8259C63.3363 11.5127 62.8352 10.8582 62.5878 10.0909C62.3373 10.9083 61.8268 11.6067 61.1785 11.9386L60.8152 11.4751C61.6733 11.068 62.2746 10.0032 62.2809 8.99475V8.46861H61.0407V7.98006H64.1286V8.46861H62.8822V8.99475ZM70.9622 9.05739V9.53342H67.0976V7.61677H67.6863V9.05739H70.9622ZM71.551 10.2412V10.7172H66.4148V10.2412H71.551ZM70.9998 12.4084V12.897H67.0537V11.2496H67.6488V12.4084H70.9998ZM78.1716 7.41633V13.0285H77.5765V7.41633H78.1716ZM73.5616 11.5002C74.022 11.4971 74.5512 11.4939 75.1024 11.4751V10.9177C74.4447 10.8331 74.0188 10.4479 74.0251 9.89671C74.0188 9.26409 74.57 8.84443 75.3843 8.84443C76.2048 8.84443 76.7685 9.26409 76.7685 9.89671C76.7685 10.4416 76.3426 10.8237 75.6912 10.9114V11.4563C76.2111 11.4344 76.7372 11.3937 77.232 11.3311L77.2759 11.7758C76.0294 11.9825 74.6702 11.995 73.643 11.995L73.5616 11.5002ZM77.1068 8.08654V8.56257H73.6806V8.08654H75.1024V7.42886H75.6975V8.08654H77.1068ZM75.3843 9.30793C74.9145 9.30793 74.5825 9.53969 74.5888 9.89671C74.5825 10.2537 74.9145 10.473 75.3843 10.473C75.8666 10.473 76.1985 10.2537 76.1985 9.89671C76.1985 9.53969 75.8666 9.30793 75.3843 9.30793ZM83.7524 7.4226V11.7006H83.1574V10.5419H82.2554V10.0658H83.1574V9.37057H82.2554V8.88201H83.1574V7.4226H83.7524ZM82.2366 8.07401V8.5563H79.0798V8.07401H80.3951V7.41633H80.9839V8.07401H82.2366ZM80.6833 8.82564C81.4412 8.82564 81.9736 9.26409 81.9798 9.90297C81.9736 10.5481 81.4412 10.9866 80.6833 10.9866C79.9254 10.9866 79.393 10.5481 79.393 9.90297C79.393 9.26409 79.9254 8.82564 80.6833 8.82564ZM80.6833 9.28914C80.2448 9.29541 79.9504 9.53342 79.9504 9.90297C79.9504 10.2851 80.2448 10.5231 80.6833 10.5231C81.1155 10.5231 81.4161 10.2851 81.4224 9.90297C81.4161 9.53342 81.1155 9.29541 80.6833 9.28914ZM83.8777 12.4272V12.9095H80.0882V11.3248H80.6895V12.4272H83.8777ZM89.7404 10.1473V10.6233H84.6168V10.1473H86.8905V9.55221H85.2557V7.67314H89.1078V8.14291H85.8445V9.07618H89.1454V9.55221H87.4667V10.1473H89.7404ZM87.1723 10.9866C88.3812 10.9866 89.1078 11.3561 89.1078 12.0075C89.1078 12.6589 88.3812 13.0222 87.1723 13.0285C85.9572 13.0222 85.2244 12.6589 85.2244 12.0075C85.2244 11.3561 85.9572 10.9866 87.1723 10.9866ZM87.1723 11.4501C86.3142 11.4501 85.8257 11.6505 85.8257 12.0075C85.8257 12.3646 86.3142 12.565 87.1723 12.5587C88.0179 12.565 88.5127 12.3646 88.5127 12.0075C88.5127 11.6505 88.0179 11.4501 87.1723 11.4501ZM94.9893 7.41633V13.0285H94.4193V7.41633H94.9893ZM93.8493 7.52281V12.7529H93.2793V10.047H92.6467C92.5966 11.1432 92.1268 11.8259 91.4316 11.8196C90.6987 11.8259 90.2227 11.0555 90.2227 9.84034C90.2227 8.6252 90.6987 7.86105 91.4316 7.86731C92.1143 7.86105 92.5778 8.50933 92.6467 9.56474H93.2793V7.52281H93.8493ZM91.4316 8.42477C91.0244 8.42477 90.7739 8.94465 90.7739 9.84034C90.7739 10.736 91.0244 11.2559 91.4316 11.2559C91.845 11.2559 92.1018 10.736 92.1018 9.84034C92.1018 8.94465 91.845 8.42477 91.4316 8.42477ZM97.7265 8.84443C97.7265 9.87166 98.3027 10.8926 99.1608 11.281L98.7975 11.757C98.1586 11.4375 97.6795 10.8018 97.4321 10.0345C97.1847 10.8425 96.693 11.5252 96.0478 11.8635L95.672 11.3812C96.5426 10.9678 97.1252 9.88418 97.1252 8.84443V7.8861H97.7265V8.84443ZM100.382 7.41633V13.041H99.7934V9.76517H98.5407V9.28288H99.7934V7.41633H100.382ZM107.46 7.41633V10.2349H106.871V7.41633H107.46ZM105.236 10.5857V11.9386H104.034V12.4898C104.62 12.4867 104.97 12.471 105.412 12.3833L105.468 12.8281C104.955 12.9283 104.547 12.9408 103.777 12.9408H103.476V11.5252H104.66V11.0304H103.451V10.5857H105.236ZM107.848 10.8175V11.2684H105.437V10.8175H106.358V10.3352H106.94V10.8175H107.848ZM106.64 11.4626C107.203 11.4626 107.623 11.7695 107.629 12.233C107.623 12.7216 107.203 13.0222 106.64 13.016C106.076 13.0222 105.65 12.7216 105.656 12.233C105.65 11.7695 106.076 11.4626 106.64 11.4626ZM106.64 11.8885C106.358 11.8885 106.157 12.0201 106.164 12.233C106.157 12.471 106.358 12.6026 106.64 12.6026C106.915 12.6026 107.116 12.471 107.116 12.233C107.116 12.0201 106.915 11.8885 106.64 11.8885ZM104.403 7.60424C105.249 7.6105 105.869 8.13038 105.875 8.86322C105.869 9.60232 105.249 10.1159 104.403 10.1159C103.552 10.1159 102.925 9.60232 102.925 8.86322C102.925 8.13038 103.552 7.6105 104.403 7.60424ZM104.403 8.10533C103.884 8.09906 103.501 8.40598 103.508 8.86322C103.501 9.32672 103.884 9.63364 104.403 9.63364C104.917 9.63364 105.299 9.32672 105.299 8.86322C105.299 8.40598 104.917 8.09906 104.403 8.10533ZM109.878 7.83599C110.639 7.83599 111.196 8.48114 111.287 9.52089H112.446V7.41633H113.035V13.041H112.446V10.0032H111.293C111.228 11.0962 110.658 11.7758 109.878 11.7758C109.038 11.7758 108.45 11.0116 108.456 9.80276C108.45 8.60015 109.038 7.83599 109.878 7.83599ZM109.878 8.3684C109.37 8.3684 109.02 8.91959 109.02 9.80276C109.02 10.6922 109.37 11.2434 109.878 11.2434C110.385 11.2434 110.736 10.6922 110.736 9.80276C110.736 8.91959 110.385 8.3684 109.878 8.3684ZM118.578 7.41633V13.041H117.989V9.95308H116.749V11.6505H114.118V7.84852H114.72V9.28288H116.166V7.84852H116.749V9.46452H117.989V7.41633H118.578ZM114.72 11.162H116.166V9.75265H114.72V11.162ZM124.09 7.4226V11.5503H123.501V7.4226H124.09ZM124.246 12.4272V12.9095H120.382V11.2246H120.977V12.4272H124.246ZM122.305 7.81094V9.48331H120.319V10.2913C121.353 10.2882 122.054 10.2537 122.887 10.1034L122.95 10.592C122.067 10.7486 121.321 10.7799 120.206 10.7799H119.737V9.03234H121.716V8.28697H119.724V7.81094H122.305ZM131.669 9.72133V10.1974H129.401V10.6984H131.024V12.0263H127.754V12.5149H131.18V12.9721H127.172V11.6004H130.435V11.1432H127.165V10.6984H128.813V10.1974H126.551V9.72133H131.669ZM131.212 7.59798V8.06775H129.47C129.589 8.55944 130.388 8.95091 131.412 9.0386L131.218 9.48958C130.25 9.39876 129.445 9.05113 129.107 8.51872C128.766 9.05113 127.964 9.39876 127.002 9.48958L126.815 9.0386C127.829 8.95091 128.625 8.56257 128.75 8.06775H127.021V7.59798H131.212ZM33.1866 16.4163V17.5876H34.0008V18.0824H33.1866V19.2537H32.5915V16.4163H33.1866ZM33.1866 19.5105V20.9324H30.155V21.4836H33.3807V21.9596H29.5725V20.4877H32.5978V19.974H29.56V19.5105H33.1866ZM30.3366 16.6105C31.1885 16.6105 31.8086 17.1241 31.8086 17.8632C31.8086 18.6023 31.1885 19.1159 30.3366 19.1159C29.4848 19.1159 28.8584 18.6023 28.8647 17.8632C28.8584 17.1241 29.4848 16.6105 30.3366 16.6105ZM30.3366 17.0991C29.8168 17.0991 29.4409 17.406 29.4409 17.8632C29.4409 18.3205 29.8168 18.6399 30.3366 18.6399C30.8503 18.6399 31.2323 18.3205 31.2323 17.8632C31.2323 17.406 30.8503 17.0991 30.3366 17.0991ZM38.8614 16.955V17.5062C38.8614 18.2015 38.8614 18.9781 38.6484 20.1244L38.0471 20.0617C38.2663 18.9781 38.2663 18.1827 38.2663 17.5062V17.4373H34.8589V16.955H38.8614ZM39.4376 20.7758V21.2706H34.3203V20.7758H36.2682V18.7965H36.857V20.7758H39.4376ZM46.2524 16.4163V22.0285H45.6887V16.4163H46.2524ZM45.1062 16.5604V21.7529H44.5424V19.8425H43.5841V19.354H44.5424V18.4395H43.6781C43.4056 19.3821 42.8074 20.1995 41.7489 20.8322L41.3981 20.4062C42.5882 19.6984 43.1613 18.7558 43.2647 17.6001H41.6737V17.1116H43.8534C43.8534 17.3997 43.8315 17.6784 43.7845 17.9509H44.5424V16.5604H45.1062ZM52.1026 19.2036V19.6922H46.9727V19.2036H49.2339V18.3831H49.8226V19.2036H52.1026ZM49.8289 16.742C49.8289 17.4561 50.7058 18.0824 51.7894 18.2202L51.5576 18.69C50.6651 18.5491 49.879 18.1138 49.5282 17.4937C49.1681 18.1138 48.382 18.5491 47.4863 18.69L47.2671 18.2202C48.3444 18.0824 49.2213 17.4498 49.2276 16.742V16.504H49.8289V16.742ZM51.4637 20.187V22.0285H50.8624V20.6568H47.5427V20.187H51.4637ZM58.7545 16.4163V22.0285H58.1657V19.1285H56.9067V18.6399H58.1657V16.4163H58.7545ZM56.9255 17.0176C56.9193 18.6462 56.2866 20.0429 54.3825 20.9887L54.0693 20.519C55.5569 19.7924 56.2177 18.7808 56.3242 17.4937H54.3199V17.0176H56.9255ZM64.2915 16.4163V22.0285H63.6902V16.4163H64.2915ZM62.6191 17.0176C62.6191 18.6587 61.9176 20.0868 59.9947 21.0075L59.6815 20.5252C61.1754 19.8143 61.9019 18.8028 62.0178 17.4937H59.9508V17.0176H62.6191ZM67.1915 17.8444C67.1915 18.8717 67.7678 19.8926 68.6259 20.281L68.2626 20.757C67.6237 20.4375 67.1445 19.8018 66.8971 19.0345C66.6497 19.8425 66.158 20.5252 65.5129 20.8635L65.1371 20.3812C66.0077 19.9678 66.5902 18.8842 66.5902 17.8444V16.8861H67.1915V17.8444ZM69.8473 16.4163V22.041H69.2585V18.7652H68.0058V18.2829H69.2585V16.4163H69.8473ZM74.2443 17.5751C74.2443 18.214 74.7517 18.8153 75.6098 19.0533L75.3404 19.5105C74.6859 19.3289 74.2067 18.9343 73.9562 18.4269C73.7088 18.9813 73.2171 19.4135 72.5531 19.617L72.265 19.1473C73.1231 18.903 73.6555 18.2766 73.6555 17.5751V17.5125H72.4341V17.0364H73.6555V16.3913H74.2506V17.0364H75.4657V17.5125H74.2443V17.5751ZM76.6871 16.4163V17.763H77.5014V18.2578H76.6871V19.6546H76.0921V16.4163H76.6871ZM76.7748 19.9365V20.4125H75.2402C75.3467 20.9355 76.067 21.4147 77.0066 21.5525L76.7873 22.0097C75.9355 21.8782 75.234 21.4867 74.9083 20.9512C74.5857 21.4836 73.8904 21.8688 73.0417 22.0034L72.8225 21.5462C73.7652 21.4147 74.4761 20.9512 74.5888 20.4125H73.048V19.9365H76.7748ZM82.3619 16.955V17.5062C82.3619 18.2015 82.3619 18.9781 82.1489 20.1244L81.5476 20.0617C81.7669 18.9781 81.7669 18.1827 81.7669 17.5062V17.4373H78.3595V16.955H82.3619ZM82.9382 20.7758V21.2706H77.8208V20.7758H79.7688V18.7965H80.3576V20.7758H82.9382ZM86.8779 20.1244C86.8779 20.6067 87.116 21.1171 87.6233 21.4209C88.1401 21.0921 88.3937 20.5534 88.3937 20.1244V19.855H88.9762V20.1244C88.9762 20.7069 89.3583 21.2706 90.0912 21.5086L89.7968 21.9471C89.2424 21.756 88.8666 21.3833 88.6693 20.9198C88.4908 21.374 88.1557 21.7842 87.6421 21.9972C87.1034 21.7936 86.7621 21.3959 86.5898 20.9386C86.3863 21.3802 86.0167 21.7529 85.4874 21.9471L85.1868 21.5086C85.9071 21.2518 86.2954 20.6693 86.3017 20.1244V19.855H86.8779V20.1244ZM89.5838 16.4226V19.617H88.9888V16.4226H89.5838ZM86.5397 16.7295C87.3978 16.7295 88.0304 17.2744 88.0304 18.0574C88.0304 18.8341 87.3978 19.3727 86.5397 19.3727C85.6816 19.3727 85.0427 18.8341 85.0427 18.0574C85.0427 17.2744 85.6816 16.7295 86.5397 16.7295ZM86.5397 17.2369C86.0073 17.2306 85.6252 17.5626 85.6252 18.0574C85.6252 18.5459 86.0073 18.8779 86.5397 18.8779C87.0659 18.8779 87.4479 18.5459 87.4479 18.0574C87.4479 17.5626 87.0659 17.2306 86.5397 17.2369ZM92.4651 20.1181C92.4651 20.6035 92.7031 21.114 93.2167 21.4272C93.7303 21.089 93.9746 20.544 93.9746 20.1181V19.8175H94.5571V20.1181C94.5571 20.7006 94.9392 21.2706 95.6845 21.5086L95.3776 21.9533C94.8264 21.756 94.4506 21.3802 94.2564 20.9136C94.0811 21.3708 93.7428 21.7874 93.2229 22.0034C92.6905 21.7999 92.3523 21.4021 92.1769 20.9386C91.9734 21.3833 91.6038 21.756 91.0745 21.9533L90.7864 21.5086C91.5005 21.2581 91.8888 20.663 91.8951 20.1181V19.8175H92.4651V20.1181ZM92.0266 16.7232C92.75 16.7232 93.3294 17.1523 93.461 17.7881H94.5571V16.4163H95.1521V19.5982H94.5571V18.2766H93.4672C93.3514 18.9312 92.7657 19.3727 92.0266 19.3727C91.181 19.3727 90.5609 18.8278 90.5609 18.0511C90.5609 17.2744 91.181 16.7232 92.0266 16.7232ZM92.0266 17.2243C91.5067 17.2243 91.1247 17.5563 91.1309 18.0511C91.1247 18.5334 91.5067 18.8779 92.0266 18.8779C92.534 18.8779 92.916 18.5334 92.916 18.0511C92.916 17.5563 92.534 17.2243 92.0266 17.2243ZM97.5386 16.836C98.2996 16.836 98.857 17.4811 98.9479 18.5209H100.107V16.4163H100.695V22.041H100.107V19.0032H98.9541C98.8884 20.0962 98.3184 20.7758 97.5386 20.7758C96.6992 20.7758 96.1105 20.0116 96.1167 18.8028C96.1105 17.6001 96.6992 16.836 97.5386 16.836ZM97.5386 17.3684C97.0312 17.3684 96.6804 17.9196 96.6804 18.8028C96.6804 19.6922 97.0312 20.2434 97.5386 20.2434C98.0459 20.2434 98.3967 19.6922 98.3967 18.8028C98.3967 17.9196 98.0459 17.3684 97.5386 17.3684ZM106.696 20.8322V21.327H101.56V20.8322H102.787V19.3665C102.327 19.1128 102.048 18.7088 102.048 18.2077C102.048 17.3246 102.913 16.742 104.115 16.742C105.324 16.742 106.189 17.3246 106.189 18.2077C106.189 18.7025 105.919 19.1003 105.468 19.354V20.8322H106.696ZM104.115 17.2181C103.232 17.2181 102.625 17.6001 102.625 18.2077C102.625 18.809 103.232 19.2036 104.115 19.2036C104.992 19.2036 105.612 18.809 105.612 18.2077C105.612 17.6001 104.992 17.2181 104.115 17.2181ZM103.376 20.8322H104.867V19.5794C104.638 19.6389 104.385 19.6671 104.115 19.6671C103.852 19.6671 103.602 19.6389 103.376 19.5857V20.8322ZM108.462 21.9451H114.876V15.5312H108.462V21.9451Z" fill="#F6FFFC"/>
</svg>
