<svg width="146" height="38" viewBox="0 0 146 38" fill="none" xmlns="http://www.w3.org/2000/svg">
<path d="M0 10.9953C0 4.92275 4.92275 0 10.9953 0H113.665C119.738 0 124.66 4.92274 124.66 10.9953V27C124.66 33.0725 119.738 37.9953 113.665 37.9953H0V10.9953Z" fill="white"/>
<path d="M12.0025 7.41633V10.7298H11.4075V9.89671H10.1861V10.354H7.58045V7.83599H10.1861V8.2995H11.4075V7.41633H12.0025ZM8.16922 8.31202V9.87792H9.60358V8.31202H8.16922ZM10.1235 10.8864C11.301 10.8864 12.0213 11.2747 12.0213 11.9574C12.0213 12.6339 11.301 13.0222 10.1235 13.016C8.94591 13.0222 8.21933 12.6339 8.2256 11.9574C8.21933 11.2747 8.94591 10.8864 10.1235 10.8864ZM10.1235 11.3436C9.30293 11.3499 8.81437 11.5628 8.81437 11.9574C8.81437 12.3332 9.30293 12.5587 10.1235 12.5587C10.944 12.5587 11.4325 12.3332 11.4325 11.9574C11.4325 11.5628 10.944 11.3499 10.1235 11.3436ZM10.1861 9.41441H11.4075V8.77553H10.1861V9.41441ZM17.9905 10.1473V10.6233H12.8669V10.1473H15.1406V9.55221H13.5058V7.67314H17.3579V8.14291H14.0946V9.07618H17.3955V9.55221H15.7168V10.1473H17.9905ZM15.4224 10.9866C16.6313 10.9866 17.3579 11.3561 17.3579 12.0075C17.3579 12.6589 16.6313 13.0222 15.4224 13.0285C14.2073 13.0222 13.4745 12.6589 13.4745 12.0075C13.4745 11.3561 14.2073 10.9866 15.4224 10.9866ZM15.4224 11.4501C14.5643 11.4501 14.0758 11.6505 14.0758 12.0075C14.0758 12.3646 14.5643 12.565 15.4224 12.5587C16.268 12.565 16.7629 12.3646 16.7629 12.0075C16.7629 11.6505 16.268 11.4501 15.4224 11.4501ZM24.6487 7.41633V13.0285H24.0599V10.1285H22.8009V9.6399H24.0599V7.41633H24.6487ZM22.8197 8.01764C22.8135 9.64617 22.1808 11.0429 20.2767 11.9887L19.9635 11.519C21.4511 10.7924 22.1119 9.78083 22.2184 8.49367H20.2141V8.01764H22.8197ZM30.1794 7.41633V13.041H29.5844V7.41633H30.1794ZM28.4632 7.92368V9.97187H26.4463V11.1995C27.3546 11.1964 28.15 11.1557 29.0896 10.9991L29.1459 11.4877C28.15 11.6568 27.3045 11.6944 26.3148 11.6944H25.8388V9.49584H27.8556V8.40598H25.8325V7.92368H28.4632ZM34.3886 8.1617C34.3886 8.45922 34.6798 8.86322 35.1903 9.08244C35.6882 8.86948 35.967 8.48114 35.967 8.1617V8.10533H35.2968V7.61677H37.4013V8.10533H36.5683V8.18675C36.5683 8.59389 36.9253 9.05113 37.6018 9.22651L37.3387 9.65869C36.7906 9.50524 36.4242 9.17013 36.2488 8.77553C36.0609 9.12942 35.7102 9.44573 35.184 9.58979C34.6548 9.4332 34.304 9.11063 34.1192 8.75674C33.9376 9.15134 33.5774 9.49897 33.0294 9.65869L32.7726 9.22651C33.4302 9.0386 33.7998 8.55004 33.7998 8.18675V8.10533H32.9605V7.61677H35.0713V8.10533H34.3886V8.1617ZM37.7584 10.166V10.6483H32.6285V10.166H34.8896V9.62738H35.4784V10.166H37.7584ZM37.1132 11.1933V13.0285H36.5119V11.6693H33.1859V11.1933H37.1132ZM43.001 7.41633V13.0285H42.431V7.41633H43.001ZM41.861 7.52281V12.7529H41.291V10.047H40.6584C40.6083 11.1432 40.1385 11.8259 39.4433 11.8196C38.7104 11.8259 38.2344 11.0555 38.2344 9.84034C38.2344 8.6252 38.7104 7.86105 39.4433 7.86731C40.126 7.86105 40.5895 8.50933 40.6584 9.56474H41.291V7.52281H41.861ZM39.4433 8.42477C39.0361 8.42477 38.7856 8.94465 38.7856 9.84034C38.7856 10.736 39.0361 11.2559 39.4433 11.2559C39.8567 11.2559 40.1135 10.736 40.1135 9.84034C40.1135 8.94465 39.8567 8.42477 39.4433 8.42477ZM45.7382 8.84443C45.7382 9.87166 46.3144 10.8926 47.1725 11.281L46.8092 11.757C46.1703 11.4375 45.6912 10.8018 45.4438 10.0345C45.1964 10.8425 44.7047 11.5252 44.0595 11.8635L43.6837 11.3812C44.5543 10.9678 45.1369 9.88418 45.1369 8.84443V7.8861H45.7382V8.84443ZM48.3939 7.41633V13.041H47.8051V9.76517H46.5524V9.28288H47.8051V7.41633H48.3939ZM55.9415 10.5794V11.0617H53.6616V13.0222H53.0791V11.0617H50.8242V10.5794H55.9415ZM55.4592 7.7483V8.22433H53.7242C53.7336 8.91959 54.598 9.53969 55.6597 9.68375L55.4404 10.1535C54.5197 10.0095 53.7242 9.55534 53.386 8.91333C53.0384 9.55534 52.246 10.0095 51.3378 10.1535L51.1123 9.68375C52.1615 9.53969 53.0258 8.91959 53.0478 8.22433H51.3002V7.7483H55.4592ZM61.0338 7.4226V10.9553H60.4388V10.6546H59.3301V10.2287H60.4388V7.4226H61.0338ZM56.3424 9.61485C57.3634 9.60859 58.7789 9.60232 59.9753 9.42694L60.0128 9.8466C59.5024 9.93429 58.9668 9.99066 58.4407 10.022V10.9302H57.8456V10.0533C57.3289 10.0752 56.8403 10.0784 56.4113 10.0784L56.3424 9.61485ZM58.1776 7.5416C59.0169 7.5416 59.5681 7.87357 59.5681 8.41851C59.5681 8.96344 59.0169 9.30167 58.1776 9.30167C57.3258 9.30167 56.7808 8.96344 56.7808 8.41851C56.7808 7.87357 57.3258 7.5416 58.1776 7.5416ZM58.1776 7.96753C57.6577 7.96753 57.332 8.14291 57.332 8.41851C57.332 8.70663 57.6577 8.87575 58.1776 8.87575C58.685 8.87575 59.0044 8.70663 59.0107 8.41851C59.0044 8.14291 58.685 7.96753 58.1776 7.96753ZM58.3092 11.2434C58.3092 11.685 58.5597 12.1641 59.0733 12.446C59.5713 12.1579 59.8249 11.6756 59.8312 11.2434V11.1557H60.4137V11.2434C60.4075 11.7946 60.8021 12.3082 61.5349 12.5149L61.253 12.9596C60.6924 12.7811 60.3104 12.4335 60.1193 11.9887C59.9377 12.4272 59.5995 12.8124 59.067 13.0097C58.544 12.8187 58.2058 12.4429 58.0336 12.0138C57.8269 12.4397 57.4448 12.7874 56.9061 12.9596L56.6243 12.5149C57.3383 12.3019 57.7392 11.7758 57.7454 11.2434V11.1557H58.3092V11.2434ZM63.4328 7.83599C64.1938 7.83599 64.7512 8.48114 64.8421 9.52089H66.0008V7.41633H66.5896V13.041H66.0008V10.0032H64.8483C64.7826 11.0962 64.2126 11.7758 63.4328 11.7758C62.5934 11.7758 62.0047 11.0116 62.0109 9.80276C62.0047 8.60015 62.5934 7.83599 63.4328 7.83599ZM63.4328 8.3684C62.9254 8.3684 62.5747 8.91959 62.5747 9.80276C62.5747 10.6922 62.9254 11.2434 63.4328 11.2434C63.9401 11.2434 64.2909 10.6922 64.2909 9.80276C64.2909 8.91959 63.9401 8.3684 63.4328 8.3684ZM72.5901 11.8322V12.327H67.454V11.8322H68.6816V10.3665C68.2213 10.1128 67.9425 9.7088 67.9425 9.20772C67.9425 8.32455 68.8069 7.74204 70.0095 7.74204C71.2184 7.74204 72.0828 8.32455 72.0828 9.20772C72.0828 9.70254 71.8134 10.1003 71.3624 10.354V11.8322H72.5901ZM70.0095 8.21807C69.1264 8.21807 68.5188 8.60015 68.5188 9.20772C68.5188 9.80902 69.1264 10.2036 70.0095 10.2036C70.8864 10.2036 71.5065 9.80902 71.5065 9.20772C71.5065 8.60015 70.8864 8.21807 70.0095 8.21807ZM69.2704 11.8322H70.7611V10.5794C70.5325 10.6389 70.2789 10.6671 70.0095 10.6671C69.7464 10.6671 69.4959 10.6389 69.2704 10.5857V11.8322ZM73.6361 12.5399C73.3918 12.5399 73.1851 12.3395 73.1914 12.0952C73.1851 11.8509 73.3918 11.6505 73.6361 11.6505C73.8741 11.6505 74.0808 11.8509 74.0808 12.0952C74.0808 12.3395 73.8741 12.5399 73.6361 12.5399ZM80.5887 7.41007V9.08871H81.403V9.58979H80.5887V11.5378H79.9937V7.41007H80.5887ZM80.8267 12.4272V12.9095H77.031V11.1056H77.626V12.4272H80.8267ZM77.7576 7.79841C78.6031 7.79841 79.2483 8.37466 79.2546 9.19519C79.2483 10.0095 78.6031 10.592 77.7576 10.592C76.912 10.592 76.2606 10.0095 76.2668 9.19519C76.2606 8.37466 76.912 7.79841 77.7576 7.79841ZM77.7576 8.31829C77.2439 8.31829 76.8431 8.67531 76.8493 9.19519C76.8431 9.71507 77.2439 10.0721 77.7576 10.0721C78.2774 10.0721 78.672 9.71507 78.672 9.19519C78.672 8.67531 78.2774 8.31829 77.7576 8.31829ZM86.5516 7.41633V13.0285H85.9816V7.41633H86.5516ZM85.4117 7.52281V12.7529H84.8417V10.047H84.209C84.1589 11.1432 83.6892 11.8259 82.9939 11.8196C82.2611 11.8259 81.785 11.0555 81.785 9.84034C81.785 8.6252 82.2611 7.86105 82.9939 7.86731C83.6766 7.86105 84.1401 8.50933 84.209 9.56474H84.8417V7.52281H85.4117ZM82.9939 8.42477C82.5868 8.42477 82.3362 8.94465 82.3362 9.84034C82.3362 10.736 82.5868 11.2559 82.9939 11.2559C83.4073 11.2559 83.6641 10.736 83.6641 9.84034C83.6641 8.94465 83.4073 8.42477 82.9939 8.42477ZM91.7504 7.98632C91.7441 9.6399 91.2368 11.1118 89.1886 12.1203L88.8629 11.6756C89.8776 11.1776 90.482 10.5732 90.8171 9.85913L88.9819 10.0345L88.8942 9.52089L90.9988 9.37683C91.0833 9.09184 91.1334 8.78806 91.1553 8.46861H89.1886V7.98632H91.7504ZM93.2035 7.41633V9.65869H94.0742V10.1473H93.2035V13.0222H92.6085V7.41633H93.2035ZM98.9222 10.0784V10.5669H95.0137V7.91742H98.8721V8.40598H95.6025V10.0784H98.9222ZM99.511 11.7946V12.2894H94.3748V11.7946H99.511ZM103.006 7.83599C103.517 7.83599 103.939 8.13038 104.19 8.63773H105.574V7.41633H106.163V13.041H105.574V10.8864H104.227C103.986 11.4501 103.545 11.7758 103.006 11.7758C102.167 11.7758 101.578 11.0116 101.584 9.80276C101.578 8.60015 102.167 7.83599 103.006 7.83599ZM103.006 8.3684C102.499 8.3684 102.148 8.91959 102.148 9.80276C102.148 10.6922 102.499 11.2434 103.006 11.2434C103.513 11.2434 103.864 10.6922 103.864 9.80276C103.864 8.91959 103.513 8.3684 103.006 8.3684ZM104.359 9.12629C104.4 9.33299 104.428 9.55848 104.428 9.80276C104.428 10.0157 104.409 10.213 104.371 10.3978H105.574V9.12629H104.359ZM111.7 7.41633V13.041H111.111V10.022H110.084V9.52716H111.111V7.41633H111.7ZM109.752 7.92368V9.92803H107.829V11.2058C108.725 11.2027 109.414 11.1713 110.197 11.0304L110.247 11.519C109.407 11.6693 108.668 11.7006 107.679 11.7069H107.234V9.44573H109.176V8.40598H107.221V7.92368H109.752ZM9.28414 17.4498C9.28414 18.1639 9.77896 18.8153 10.6308 19.0846L10.3489 19.5481C9.71006 19.3446 9.24343 18.9218 8.99602 18.3894C8.75174 19.0032 8.26005 19.4886 7.58671 19.7235L7.2798 19.2475C8.1567 18.9593 8.68284 18.2328 8.6891 17.4561V17.2995H7.45518V16.8172H10.493V17.2995H9.28414V17.4498ZM11.7332 16.4163V17.8068H12.5475V18.2954H11.7332V19.7861H11.1382V16.4163H11.7332ZM9.92303 19.9239C11.0818 19.9239 11.7833 20.306 11.7833 20.9637C11.7833 21.6276 11.0818 22.0222 9.92303 22.016C8.75174 22.0222 8.03769 21.6276 8.03769 20.9637C8.03769 20.306 8.75174 19.9239 9.92303 19.9239ZM9.92303 20.3937C9.10876 20.3937 8.62647 20.6004 8.63273 20.9637C8.62647 21.3395 9.10876 21.5462 9.92303 21.5462C10.731 21.5462 11.2008 21.3395 11.2008 20.9637C11.2008 20.6004 10.731 20.3937 9.92303 20.3937ZM19.5564 18.7151V19.1911H14.4328V18.7151H19.5564ZM18.9488 17.8319V18.3079H15.103V16.5792H18.8925V17.0615H15.698V17.8319H18.9488ZM18.905 19.6358V20.995H15.6354V21.4961H19.0616V21.9659H15.0529V20.5566H18.3162V20.0931H15.0466V19.6358H18.905ZM21.4981 16.836C22.2591 16.836 22.8166 17.4811 22.9074 18.5209H24.0662V16.4163H24.655V22.041H24.0662V19.0032H22.9137C22.8479 20.0962 22.2779 20.7758 21.4981 20.7758C20.6588 20.7758 20.07 20.0116 20.0763 18.8028C20.07 17.6001 20.6588 16.836 21.4981 16.836ZM21.4981 17.3684C20.9908 17.3684 20.64 17.9196 20.64 18.8028C20.64 19.6922 20.9908 20.2434 21.4981 20.2434C22.0055 20.2434 22.3562 19.6922 22.3562 18.8028C22.3562 17.9196 22.0055 17.3684 21.4981 17.3684ZM29.0332 20.1244C29.0332 20.6067 29.2712 21.1171 29.7786 21.4209C30.2953 21.0921 30.549 20.5534 30.549 20.1244V19.855H31.1315V20.1244C31.1315 20.7069 31.5136 21.2706 32.2464 21.5086L31.952 21.9471C31.3977 21.756 31.0219 21.3833 30.8246 20.9198C30.6461 21.374 30.311 21.7842 29.7974 21.9972C29.2587 21.7936 28.9173 21.3959 28.7451 20.9386C28.5415 21.3802 28.172 21.7529 27.6427 21.9471L27.342 21.5086C28.0623 21.2518 28.4507 20.6693 28.4569 20.1244V19.855H29.0332V20.1244ZM31.7391 16.4226V19.617H31.144V16.4226H31.7391ZM28.695 16.7295C29.5531 16.7295 30.1857 17.2744 30.1857 18.0574C30.1857 18.8341 29.5531 19.3727 28.695 19.3727C27.8369 19.3727 27.198 18.8341 27.198 18.0574C27.198 17.2744 27.8369 16.7295 28.695 16.7295ZM28.695 17.2369C28.1626 17.2306 27.7805 17.5626 27.7805 18.0574C27.7805 18.5459 28.1626 18.8779 28.695 18.8779C29.2211 18.8779 29.6032 18.5459 29.6032 18.0574C29.6032 17.5626 29.2211 17.2306 28.695 17.2369ZM37.1696 16.955V17.5062C37.1696 18.2015 37.1696 18.9781 36.9566 20.1244L36.3553 20.0617C36.5745 18.9781 36.5745 18.1827 36.5745 17.5062V17.4373H33.1672V16.955H37.1696ZM37.7458 20.7758V21.2706H32.6285V20.7758H34.5765V18.7965H35.1652V20.7758H37.7458ZM39.1802 21.0639L38.6791 22.7927H38.1467L38.4787 21.0639H39.1802ZM45.7883 16.4226V17.7505H46.6025V18.2328H45.7883V19.5794H45.1932V16.4226H45.7883ZM45.9198 19.8613V20.3373H45.1744V21.4585H45.995V21.9408H42.1115V21.4585H42.9195V20.3373H42.1554V19.8613H45.9198ZM42.9571 16.7295C43.8152 16.7295 44.4479 17.2744 44.4541 18.0574C44.4479 18.8341 43.8152 19.379 42.9571 19.379C42.099 19.379 41.4601 18.8341 41.4664 18.0574C41.4601 17.2744 42.099 16.7295 42.9571 16.7295ZM42.9571 17.2306C42.431 17.2243 42.0426 17.5563 42.0489 18.0574C42.0426 18.5522 42.431 18.8779 42.9571 18.8842C43.4833 18.8779 43.8716 18.5522 43.8716 18.0574C43.8716 17.5563 43.4833 17.2243 42.9571 17.2306ZM43.4958 21.4585H44.5919V20.3373H43.4958V21.4585ZM49.7844 16.8924V17.3684H51.0058V16.4226H51.6009V20.5127H51.0058V19.0596H49.7844V19.5481H47.1788V16.8924H49.7844ZM47.7676 17.3747V19.0784H49.2019V17.3747H47.7676ZM51.7261 21.4272V21.9095H47.9367V20.1369H48.538V21.4272H51.7261ZM49.7844 18.571H51.0058V17.857H49.7844V18.571ZM57.2945 16.4163V22.0285H56.7245V16.4163H57.2945ZM56.1545 16.5228V21.7529H55.5845V19.047H54.9519C54.9018 20.1432 54.432 20.8259 53.7367 20.8196C53.0039 20.8259 52.5279 20.0555 52.5279 18.8403C52.5279 17.6252 53.0039 16.861 53.7367 16.8673C54.4195 16.861 54.883 17.5093 54.9519 18.5647H55.5845V16.5228H56.1545ZM53.7367 17.4248C53.3296 17.4248 53.0791 17.9446 53.0791 18.8403C53.0791 19.736 53.3296 20.2559 53.7367 20.2559C54.1501 20.2559 54.4069 19.736 54.4069 18.8403C54.4069 17.9446 54.1501 17.4248 53.7367 17.4248ZM64.7105 20.8572V21.3583H59.5744V20.8572H61.8355V19.8738H60.2008V18.0887H63.4954V17.2995H60.1882V16.8109H64.0842V18.5647H60.7895V19.3853H64.2157V19.8738H62.4243V20.8572H64.7105ZM69.6588 16.955V17.5062C69.6588 18.2015 69.6588 18.9781 69.4458 20.1244L68.8445 20.0617C69.0637 18.9781 69.0637 18.1827 69.0637 17.5062V17.4373H65.6563V16.955H69.6588ZM70.235 20.7758V21.2706H65.1177V20.7758H67.0656V18.7965H67.6544V20.7758H70.235ZM74.7824 16.5353C76.0163 16.5353 76.7867 16.9362 76.7867 17.6127C76.7867 18.2766 76.0163 18.6712 74.7824 18.6712C73.5547 18.6712 72.778 18.2766 72.778 17.6127C72.778 16.9362 73.5547 16.5353 74.7824 16.5353ZM74.7824 17.0051C73.918 17.0051 73.3856 17.2243 73.3918 17.6127C73.3856 17.9885 73.918 18.2015 74.7824 18.2077C75.6405 18.2015 76.1729 17.9885 76.1729 17.6127C76.1729 17.2243 75.6405 17.0051 74.7824 17.0051ZM76.7178 20.0868V21.9596H72.8407V20.0868H76.7178ZM73.4294 20.5628V21.4773H76.1416V20.5628H73.4294ZM77.3442 19.1034V19.5857H72.2268V19.1034H77.3442ZM82.1796 16.4163V17.8006H82.9939V18.3017H82.1796V19.6984H81.5846V16.4163H82.1796ZM80.6263 16.7608C80.6263 18.2077 79.6492 19.2162 77.9831 19.6483L77.7388 19.1911C79.0854 18.8403 79.884 18.1294 79.9874 17.2431H78.0081V16.7608H80.6263ZM82.1796 19.9427V22.0285H81.5846V20.425H78.4716V19.9427H82.1796ZM86.5829 18.214V18.6963H85.4868V19.4041C85.9848 19.3821 86.4796 19.3477 86.94 19.2976L86.9838 19.736C85.7875 19.8989 84.4721 19.9302 83.4198 19.9302L83.3384 19.4542C83.8176 19.451 84.3531 19.4448 84.898 19.4291V18.6963H83.8395V16.7734H86.5328V17.2557H84.4345V18.214H86.5829ZM87.9672 16.4163V20.6255H87.3722V16.4163H87.9672ZM88.1426 21.4272V21.9095H84.2654V20.3248H84.8605V21.4272H88.1426ZM95.0951 16.4163V22.0285H94.5064V19.1285H93.2474V18.6399H94.5064V16.4163H95.0951ZM93.2662 17.0176C93.2599 18.6462 92.6273 20.0429 90.7232 20.9887L90.41 20.519C91.8976 19.7924 92.5584 18.7808 92.6649 17.4937H90.6605V17.0176H93.2662ZM100.375 16.7921V19.2099H97.7509V16.7921H100.375ZM98.3334 17.2682V18.7339H99.7928V17.2682H98.3334ZM101.941 16.4163V17.7192H102.755V18.214H101.941V19.5982H101.346V16.4163H101.941ZM102.029 19.9114V20.3874H100.494C100.576 20.9198 101.305 21.4115 102.261 21.5525L102.041 22.0097C101.19 21.8782 100.488 21.4867 100.162 20.9512C99.8429 21.4898 99.1445 21.8782 98.2958 22.0034L98.0766 21.5462C99.0381 21.4115 99.7521 20.9355 99.8492 20.3874H98.3021V19.9114H102.029ZM108.318 18.6211V19.1097H107.447V22.0222H106.852V16.4163H107.447V18.6211H108.318ZM103.877 16.9613V20.1181C104.66 20.1181 105.477 20.0523 106.37 19.8676L106.438 20.3686C105.48 20.5628 104.591 20.6129 103.751 20.6129H103.288V16.9613H103.877ZM12.4598 29.8322V30.327H7.32364V29.8322H8.5513V28.3665C8.09093 28.1128 7.8122 27.7088 7.8122 27.2077C7.8122 26.3246 8.67657 25.742 9.87918 25.742C11.0881 25.742 11.9524 26.3246 11.9524 27.2077C11.9524 27.7025 11.6831 28.1003 11.2321 28.354V29.8322H12.4598ZM9.87918 26.2181C8.99602 26.2181 8.38845 26.6001 8.38845 27.2077C8.38845 27.809 8.99602 28.2036 9.87918 28.2036C10.7561 28.2036 11.3762 27.809 11.3762 27.2077C11.3762 26.6001 10.7561 26.2181 9.87918 26.2181ZM9.14008 29.8322H10.6308V28.5794C10.4022 28.6389 10.1485 28.6671 9.87918 28.6671C9.61611 28.6671 9.36557 28.6389 9.14008 28.5857V29.8322ZM13.7877 29.1494C13.7939 28.3289 14.0382 28.0784 14.4516 27.8215C14.7147 27.6587 14.9151 27.4332 14.9151 27.1012C14.9151 26.7066 14.6144 26.4624 14.2386 26.4624C13.9004 26.4624 13.5747 26.669 13.5434 27.1326H12.8669C12.892 26.3371 13.4933 25.8986 14.2386 25.8986C15.0529 25.8986 15.5978 26.3872 15.5978 27.1012C15.5978 27.6023 15.3598 27.9406 14.9589 28.1848C14.5831 28.4103 14.4391 28.6421 14.4265 29.1494V29.187H13.7877V29.1494ZM14.1321 30.5399C13.8879 30.5399 13.6812 30.3395 13.6874 30.0952C13.6812 29.8509 13.8879 29.6505 14.1321 29.6505C14.3702 29.6505 14.5769 29.8509 14.5769 30.0952C14.5769 30.3395 14.3702 30.5399 14.1321 30.5399Z" fill="#363636"/>
<path d="M130.022 36.0498C129.12 36.0498 128.594 35.325 128.594 34.0526C128.594 32.7909 129.131 32.0554 130.022 32.0554C130.913 32.0554 131.45 32.7909 131.45 34.0526C131.45 35.325 130.919 36.0498 130.022 36.0498ZM130.022 35.5397C130.548 35.5397 130.86 35.0243 130.86 34.0526C130.86 33.0862 130.543 32.5547 130.022 32.5547C129.501 32.5547 129.184 33.0862 129.184 34.0526C129.184 35.0243 129.496 35.5397 130.022 35.5397ZM133.509 32.0554C134.223 32.0608 134.975 32.4903 134.975 33.913C134.975 35.2767 134.389 36.0498 133.455 36.0498C132.741 36.0498 132.236 35.6095 132.145 34.976H132.73C132.811 35.3035 133.063 35.5344 133.455 35.5344C134.057 35.5344 134.405 35.0082 134.411 34.1224H134.363C134.153 34.4499 133.788 34.6485 133.369 34.6485C132.671 34.6485 132.113 34.117 132.113 33.3708C132.113 32.6299 132.666 32.05 133.509 32.0554ZM133.509 32.5493C133.036 32.5493 132.687 32.9144 132.687 33.36C132.687 33.811 133.026 34.1653 133.498 34.1653C133.965 34.1653 134.33 33.7842 134.33 33.3547C134.33 32.9359 133.987 32.5493 133.509 32.5493ZM136.088 35.4968C135.879 35.4968 135.702 35.325 135.707 35.1156C135.702 34.9062 135.879 34.7344 136.088 34.7344C136.292 34.7344 136.47 34.9062 136.47 35.1156C136.47 35.325 136.292 35.4968 136.088 35.4968ZM136.088 33.3761C135.879 33.3761 135.702 33.2043 135.707 32.9949C135.702 32.7856 135.879 32.6138 136.088 32.6138C136.292 32.6138 136.47 32.7856 136.47 32.9949C136.47 33.2043 136.292 33.3761 136.088 33.3761ZM137.181 35.2391V34.7613L138.899 32.1091H139.629V34.7398H140.161V35.2391H139.629V35.9961H139.071V35.2391H137.181ZM137.804 34.7398H139.071V32.8124H139.028L137.804 34.7076V34.7398ZM142.219 36.0498C141.317 36.0498 140.791 35.325 140.791 34.0526C140.791 32.7909 141.328 32.0554 142.219 32.0554C143.111 32.0554 143.648 32.7909 143.648 34.0526C143.648 35.325 143.116 36.0498 142.219 36.0498ZM142.219 35.5397C142.746 35.5397 143.057 35.0243 143.057 34.0526C143.057 33.0862 142.74 32.5547 142.219 32.5547C141.699 32.5547 141.382 33.0862 141.382 34.0526C141.382 35.0243 141.693 35.5397 142.219 35.5397Z" fill="#787878"/>
</svg>
