<svg width="146" height="38" viewBox="0 0 146 38" fill="none" xmlns="http://www.w3.org/2000/svg">
<path d="M3.05835 36.0498C2.1564 36.0498 1.63026 35.325 1.63026 34.0526C1.63026 32.7909 2.16713 32.0554 3.05835 32.0554C3.94957 32.0554 4.48645 32.7909 4.48645 34.0526C4.48645 35.325 3.95494 36.0498 3.05835 36.0498ZM3.05835 35.5397C3.58449 35.5397 3.89588 35.0243 3.89588 34.0526C3.89588 33.0862 3.57912 32.5547 3.05835 32.5547C2.53758 32.5547 2.22082 33.0862 2.22082 34.0526C2.22082 35.0243 2.53221 35.5397 3.05835 35.5397ZM6.54527 32.0554C7.25931 32.0608 8.01094 32.4903 8.01094 33.913C8.01094 35.2767 7.42575 36.0498 6.49158 36.0498C5.77753 36.0498 5.27287 35.6095 5.1816 34.976H5.76679C5.84732 35.3035 6.09966 35.5344 6.49158 35.5344C7.09288 35.5344 7.44185 35.0082 7.44722 34.1224H7.3989C7.18952 34.4499 6.82444 34.6485 6.40568 34.6485C5.70774 34.6485 5.14938 34.117 5.14938 33.3708C5.14938 32.6299 5.70237 32.05 6.54527 32.0554ZM6.54527 32.5493C6.07281 32.5493 5.72384 32.9144 5.72384 33.36C5.72384 33.811 6.06208 34.1653 6.53453 34.1653C7.00161 34.1653 7.36669 33.7842 7.36669 33.3547C7.36669 32.9359 7.02309 32.5493 6.54527 32.5493ZM9.12486 35.4968C8.91547 35.4968 8.73831 35.325 8.74367 35.1156C8.73831 34.9062 8.91547 34.7344 9.12486 34.7344C9.32887 34.7344 9.50604 34.9062 9.50604 35.1156C9.50604 35.325 9.32887 35.4968 9.12486 35.4968ZM9.12486 33.3761C8.91547 33.3761 8.73831 33.2043 8.74367 32.9949C8.73831 32.7856 8.91547 32.6138 9.12486 32.6138C9.32887 32.6138 9.50604 32.7856 9.50604 32.9949C9.50604 33.2043 9.32887 33.3761 9.12486 33.3761ZM11.683 36.0498C10.8777 36.0498 10.3032 35.6149 10.2817 34.9814H10.883C10.9045 35.325 11.2427 35.5397 11.6776 35.5397C12.1447 35.5397 12.4883 35.282 12.4883 34.9062C12.4883 34.525 12.1662 34.2459 11.6132 34.2459H11.2803V33.7627H11.6132C12.0534 33.7627 12.3648 33.5157 12.3648 33.1453C12.3648 32.7909 12.1017 32.5493 11.6883 32.5493C11.2964 32.5493 10.9528 32.7641 10.9367 33.1184H10.3676C10.3837 32.4849 10.9689 32.0554 11.6937 32.0554C12.4561 32.0554 12.9393 32.5386 12.9339 33.1131C12.9393 33.5533 12.6655 33.8754 12.2467 33.9774V34.0043C12.7782 34.0794 13.0842 34.4338 13.0842 34.9277C13.0842 35.5773 12.4883 36.0498 11.683 36.0498ZM15.1806 32.0554C15.8947 32.0608 16.6463 32.4903 16.6463 33.913C16.6463 35.2767 16.0611 36.0498 15.1269 36.0498C14.4129 36.0498 13.9082 35.6095 13.817 34.976H14.4022C14.4827 35.3035 14.735 35.5344 15.1269 35.5344C15.7282 35.5344 16.0772 35.0082 16.0826 34.1224H16.0343C15.8249 34.4499 15.4598 34.6485 15.041 34.6485C14.3431 34.6485 13.7847 34.117 13.7847 33.3708C13.7847 32.6299 14.3377 32.05 15.1806 32.0554ZM15.1806 32.5493C14.7082 32.5493 14.3592 32.9144 14.3592 33.36C14.3592 33.811 14.6974 34.1653 15.1699 34.1653C15.637 34.1653 16.002 33.7842 16.002 33.3547C16.002 32.9359 15.6584 32.5493 15.1806 32.5493Z" fill="#787878"/>
<path d="M21.0269 10.9953C21.0269 4.92275 25.9496 0 32.0221 0H134.692C140.764 0 145.687 4.92274 145.687 10.9953V37.9953H32.0221C25.9496 37.9953 21.0269 33.0725 21.0269 27V10.9953Z" fill="#1EB87B" fill-opacity="0.7"/>
<path d="M33.1866 7.41007V9.08871H34.0008V9.58979H33.1866V11.5378H32.5915V7.41007H33.1866ZM33.4246 12.4272V12.9095H29.6289V11.1056H30.2239V12.4272H33.4246ZM30.3554 7.79841C31.201 7.79841 31.8462 8.37466 31.8524 9.19519C31.8462 10.0095 31.201 10.592 30.3554 10.592C29.5098 10.592 28.8584 10.0095 28.8647 9.19519C28.8584 8.37466 29.5098 7.79841 30.3554 7.79841ZM30.3554 8.31829C29.8418 8.31829 29.4409 8.67531 29.4472 9.19519C29.4409 9.71507 29.8418 10.0721 30.3554 10.0721C30.8753 10.0721 31.2699 9.71507 31.2699 9.19519C31.2699 8.67531 30.8753 8.31829 30.3554 8.31829ZM35.2535 7.74204V10.0095C36.1555 10.0063 36.8069 9.96248 37.546 9.81528L37.6149 10.2976C36.8132 10.4604 36.1054 10.5043 35.0907 10.498H34.6522V7.74204H35.2535ZM38.9992 7.41633V10.8362H38.4041V9.47705H36.8758V9.01981H38.4041V8.49367H36.8758V8.03016H38.4041V7.41633H38.9992ZM37.1201 10.8864C38.2976 10.8864 39.018 11.2872 39.018 11.9637C39.018 12.6339 38.2976 13.0222 37.1201 13.0285C35.9425 13.0222 35.216 12.6339 35.2222 11.9637C35.216 11.2872 35.9425 10.8864 37.1201 10.8864ZM37.1201 11.3561C36.2996 11.3624 35.811 11.5816 35.811 11.9637C35.811 12.3332 36.2996 12.5525 37.1201 12.5525C37.9406 12.5525 38.4292 12.3332 38.4292 11.9637C38.4292 11.5816 37.9406 11.3624 37.1201 11.3561ZM44.2355 7.41633V9.69001H45.1375V10.1848H44.2355V13.0285H43.6467V7.41633H44.2355ZM43.1582 8.29323V8.78179H39.8322V8.29323H41.2165V7.4915H41.8115V8.29323H43.1582ZM41.5171 9.19519C42.3189 9.19519 42.9076 9.73386 42.9139 10.498C42.9076 11.2684 42.3189 11.8008 41.5171 11.8071C40.7091 11.8008 40.1203 11.2684 40.1203 10.498C40.1203 9.73386 40.7091 9.19519 41.5171 9.19519ZM41.5171 9.68375C41.0411 9.68375 40.6841 10.0157 40.6903 10.498C40.6841 10.9866 41.0411 11.3123 41.5171 11.306C41.9932 11.3123 42.3439 10.9866 42.3439 10.498C42.3439 10.0157 41.9932 9.68375 41.5171 9.68375ZM47.1168 8.95091C47.1168 9.8466 47.4926 10.8049 48.2442 11.2622L47.9122 11.7194C47.3861 11.4031 47.0291 10.8425 46.8412 10.1911C46.6313 10.9051 46.2461 11.5127 45.7012 11.8447L45.3316 11.4C46.1271 10.9239 46.5405 9.93429 46.5405 8.97596V7.92995H47.1168V8.95091ZM50.236 7.41633V13.0285H49.666V7.41633H50.236ZM49.071 7.52281V12.7529H48.5073V9.88418H47.6366V9.38936H48.5073V7.52281H49.071ZM56.0862 11.8322V12.327H50.9501V11.8322H52.1777V10.3665C51.7174 10.1128 51.4386 9.7088 51.4386 9.20772C51.4386 8.32455 52.303 7.74204 53.5056 7.74204C54.7145 7.74204 55.5789 8.32455 55.5789 9.20772C55.5789 9.70254 55.3095 10.1003 54.8585 10.354V11.8322H56.0862ZM53.5056 8.21807C52.6224 8.21807 52.0149 8.60015 52.0149 9.20772C52.0149 9.80902 52.6224 10.2036 53.5056 10.2036C54.3825 10.2036 55.0026 9.80902 55.0026 9.20772C55.0026 8.60015 54.3825 8.21807 53.5056 8.21807ZM52.7665 11.8322H54.2572V10.5794C54.0286 10.6389 53.7749 10.6671 53.5056 10.6671C53.2425 10.6671 52.992 10.6389 52.7665 10.5857V11.8322ZM57.5268 7.96126L57.4705 11.187H56.8504L56.794 7.96126H57.5268ZM57.1635 12.5399C56.9193 12.5399 56.7126 12.3395 56.7188 12.0952C56.7126 11.8509 56.9193 11.6505 57.1635 11.6505C57.4016 11.6505 57.6083 11.8509 57.6083 12.0952C57.6083 12.3395 57.4016 12.5399 57.1635 12.5399ZM64.6423 7.87984V8.34334H60.0761V7.87984H62.0742V7.34743H62.6692V7.87984H64.6423ZM62.3686 8.53751C63.5461 8.53751 64.2101 8.82564 64.2101 9.35804C64.2101 9.84347 63.6589 10.1191 62.6692 10.1598V10.5794H64.9304V11.0555H59.813V10.5794H62.0742V10.1598C61.0814 10.1222 60.5208 9.84347 60.5271 9.35804C60.5208 8.82564 61.191 8.53751 62.3686 8.53751ZM62.3686 8.95717C61.5606 8.95717 61.1284 9.10124 61.1346 9.35804C61.1284 9.62111 61.5606 9.75265 62.3686 9.75265C63.1766 9.75265 63.6025 9.62111 63.6088 9.35804C63.6025 9.10124 63.1766 8.95717 62.3686 8.95717ZM64.2664 11.4626V13.0285H63.6651V11.9198H60.3642V11.4626H64.2664ZM67.417 8.84443C67.4108 9.87166 68.0308 10.8989 68.9015 11.2872L68.5445 11.757C67.8993 11.4501 67.3888 10.8206 67.1289 10.0533C66.8658 10.8738 66.3491 11.5534 65.6757 11.8823L65.3125 11.3812C66.1956 10.9866 66.8157 9.9155 66.8157 8.84443V7.8861H67.417V8.84443ZM70.0039 7.41633V13.041H69.4088V7.41633H70.0039ZM75.021 7.47897C76.2862 7.47897 77.0253 7.82347 77.0253 8.44356C77.0253 9.02294 76.3959 9.36117 75.3029 9.40815V9.80276H77.5828V10.2788H72.4655V9.80276H74.7203V9.40815C73.6399 9.35491 73.0167 9.01981 73.0167 8.44356C73.0167 7.82347 73.7558 7.47897 75.021 7.47897ZM75.021 7.92368C74.1253 7.92995 73.6305 8.11159 73.6367 8.44356C73.6305 8.79432 74.1253 8.9697 75.021 8.9697C75.9167 8.9697 76.4115 8.79432 76.4115 8.44356C76.4115 8.11159 75.9167 7.92995 75.021 7.92368ZM76.9377 10.6984V12.0138H73.6681V12.5149H77.0942V12.9721H73.0856V11.5879H76.3489V11.1494H73.0793V10.6984H76.9377ZM82.6688 7.41633V13.041H82.0738V7.41633H82.6688ZM80.9526 7.92368V9.97187H78.9357V11.1995C79.844 11.1964 80.6394 11.1557 81.579 10.9991L81.6353 11.4877C80.6394 11.6568 79.7938 11.6944 78.8042 11.6944H78.3282V9.49584H80.345V8.40598H78.3219V7.92368H80.9526ZM88.2058 7.4226V11.5315H87.6108V7.4226H88.2058ZM88.3749 12.4272V12.9095H84.5354V11.1432H85.1367V12.4272H88.3749ZM85.5939 8.28697C85.5877 9.1075 86.1138 9.85913 86.9782 10.1598L86.6713 10.6358C86.023 10.3947 85.5438 9.91863 85.2933 9.30793C85.0459 9.95935 84.5604 10.4824 83.9027 10.736L83.5833 10.2663C84.4665 9.94055 84.9863 9.13255 84.9863 8.28697V7.72951H85.5939V8.28697ZM93.5612 7.76709C93.5612 9.19519 92.5841 10.2099 90.9555 10.6671L90.7113 10.2036C92.0047 9.84034 92.8096 9.13882 92.9286 8.25565H91.0056V7.76709H93.5612ZM95.34 7.4226V10.5982H94.745V9.32046H93.5862V8.82564H94.745V7.4226H95.34ZM95.34 10.83V12.9533H91.6696V10.83H95.34ZM92.2521 11.306V12.4773H94.7513V11.306H92.2521ZM100.883 7.41633V10.7548H100.288V9.33299H99.2422V8.84443H100.288V7.41633H100.883ZM99.0042 10.9114C100.182 10.9114 100.902 11.2998 100.902 11.97C100.902 12.6402 100.182 13.0222 99.0042 13.0285C97.8267 13.0222 97.1001 12.6402 97.1064 11.97C97.1001 11.2998 97.8267 10.9114 99.0042 10.9114ZM99.0042 11.3749C98.1837 11.3749 97.6951 11.5879 97.6951 11.97C97.6951 12.3458 98.1837 12.565 99.0042 12.5587C99.8248 12.565 100.313 12.3458 100.313 11.97C100.313 11.5879 99.8248 11.3749 99.0042 11.3749ZM98.215 8.40598C98.215 9.12003 98.7224 9.80902 99.5679 10.0971L99.261 10.5669C98.6315 10.3477 98.168 9.89984 97.9269 9.34551C97.6795 9.975 97.1878 10.4792 96.5176 10.7235L96.2044 10.2475C97.075 9.94682 97.6075 9.18893 97.6075 8.41224V8.28697H96.3923V7.80467H99.4176V8.28697H98.215V8.40598ZM103.464 8.47488C103.464 9.1075 103.852 9.74012 104.579 10.022L104.259 10.4792C103.746 10.2725 103.382 9.88418 103.182 9.41441C102.972 9.93742 102.59 10.3884 102.048 10.6233L101.723 10.166C102.481 9.83407 102.888 9.1075 102.888 8.47488V7.75457H103.464V8.47488ZM106.533 7.4226V10.8112H105.969V9.34551H105.312V10.7799H104.76V7.51655H105.312V8.85069H105.969V7.4226H106.533ZM106.533 11.1056V13.0285H105.944V11.5879H102.719V11.1056H106.533ZM111.776 7.98632C111.769 9.6399 111.262 11.1118 109.214 12.1203L108.888 11.6756C109.903 11.1776 110.507 10.5732 110.842 9.85913L109.007 10.0345L108.919 9.52089L111.024 9.37683C111.109 9.09184 111.159 8.78806 111.181 8.46861H109.214V7.98632H111.776ZM113.229 7.41633V9.65869H114.099V10.1473H113.229V13.0222H112.634V7.41633H113.229ZM118.947 10.0784V10.5669H115.039V7.91742H118.897V8.40598H115.628V10.0784H118.947ZM119.536 11.7946V12.2894H114.4V11.7946H119.536ZM122.01 9.06992C122.01 10.0095 122.624 10.9803 123.489 11.3499L123.163 11.8134C122.502 11.5221 121.976 10.9051 121.716 10.1535C121.456 10.9553 120.927 11.638 120.275 11.9574L119.931 11.4877C120.776 11.0931 121.403 10.0345 121.409 9.06992V8.47488H120.125V7.98006H123.288V8.47488H122.01V9.06992ZM124.591 7.41633V13.0285H123.996V7.41633H124.591ZM129.896 7.41633V8.71289H130.71V9.20145H129.896V10.4542H129.295V7.41633H129.896ZM128.355 7.7483C128.355 9.1764 127.384 10.1285 125.706 10.5231L125.487 10.0408C126.846 9.73072 127.607 9.05739 127.704 8.22433H125.75V7.7483H128.355ZM126.883 10.6984V11.3561H129.301V10.6984H129.896V12.9596H126.288V10.6984H126.883ZM126.883 12.471H129.301V11.8259H126.883V12.471ZM135.677 7.41633V13.041H135.082V7.41633H135.677ZM132.677 7.83599C133.51 7.83599 134.124 8.60015 134.124 9.80276C134.124 11.0116 133.51 11.7758 132.677 11.7758C131.832 11.7758 131.224 11.0116 131.224 9.80276C131.224 8.60015 131.832 7.83599 132.677 7.83599ZM132.677 8.3684C132.157 8.3684 131.8 8.91959 131.8 9.80276C131.8 10.6922 132.157 11.2434 132.677 11.2434C133.191 11.2434 133.548 10.6922 133.548 9.80276C133.548 8.91959 133.191 8.3684 132.677 8.3684ZM31.3325 16.7546C32.5352 16.7608 33.4058 17.3496 33.4058 18.2453C33.4058 19.0877 32.6761 19.6421 31.6269 19.7298V20.8322H33.9131V21.327H28.777V20.8322H31.0382V19.7298C29.9953 19.6421 29.2656 19.0877 29.2656 18.2453C29.2656 17.3496 30.1362 16.7608 31.3325 16.7546ZM31.3325 17.2431C30.4682 17.2369 29.8418 17.6377 29.8418 18.2453C29.8418 18.8779 30.4682 19.2663 31.3325 19.2725C32.2032 19.2663 32.8295 18.8779 32.8295 18.2453C32.8295 17.6377 32.2032 17.2369 31.3325 17.2431ZM38.8488 17.6941V18.1764H34.9967V16.4978H35.5793V17.6941H38.8488ZM39.4501 18.6712V19.1473H34.314V18.6712H39.4501ZM38.805 19.5982V20.97H35.5479V21.4898H38.9992V21.9596H34.9529V20.5315H38.2162V20.0617H34.9404V19.5982H38.805ZM43.4526 17.8444C43.4526 18.8717 44.0288 19.8926 44.8869 20.281L44.5236 20.757C43.8848 20.4375 43.4056 19.8018 43.1582 19.0345C42.9108 19.8425 42.4191 20.5252 41.7739 20.8635L41.3981 20.3812C42.2688 19.9678 42.8513 18.8842 42.8513 17.8444V16.8861H43.4526V17.8444ZM46.1083 16.4163V22.041H45.5196V18.7652H44.2668V18.2829H45.5196V16.4163H46.1083ZM49.5282 16.479C50.7935 16.479 51.5326 16.8235 51.5326 17.4436C51.5326 18.0699 50.7935 18.4144 49.5282 18.4144C48.263 18.4144 47.5239 18.0699 47.5239 17.4436C47.5239 16.8235 48.263 16.479 49.5282 16.479ZM49.5282 16.9237C48.6325 16.9299 48.1377 17.1116 48.144 17.4436C48.1377 17.7943 48.6325 17.9697 49.5282 17.9697C50.4239 17.9697 50.9188 17.7943 50.9188 17.4436C50.9188 17.1116 50.4239 16.9299 49.5282 16.9237ZM52.09 18.7464V19.2162H49.8226V19.6984H51.4449V21.0138H48.1753V21.5149H51.6015V21.9721H47.5928V20.5816H50.8561V20.1432H47.5865V19.6984H49.2276V19.2162H46.9727V18.7464H52.09ZM58.7232 16.4163V22.0285H58.1281V16.4163H58.7232ZM54.1132 20.5002C54.5736 20.4971 55.1028 20.4939 55.654 20.4751V19.9177C54.9963 19.8331 54.5704 19.4479 54.5767 18.8967C54.5704 18.2641 55.1216 17.8444 55.9359 17.8444C56.7564 17.8444 57.3201 18.2641 57.3201 18.8967C57.3201 19.4416 56.8942 19.8237 56.2428 19.9114V20.4563C56.7627 20.4344 57.2888 20.3937 57.7836 20.3311L57.8275 20.7758C56.581 20.9825 55.2218 20.995 54.1946 20.995L54.1132 20.5002ZM57.6584 17.0865V17.5626H54.2322V17.0865H55.654V16.4289H56.2491V17.0865H57.6584ZM55.9359 18.3079C55.4661 18.3079 55.1341 18.5397 55.1404 18.8967C55.1341 19.2537 55.4661 19.473 55.9359 19.473C56.4182 19.473 56.7501 19.2537 56.7501 18.8967C56.7501 18.5397 56.4182 18.3079 55.9359 18.3079ZM64.304 16.4226V20.7006H63.709V19.5419H62.807V19.0658H63.709V18.3706H62.807V17.882H63.709V16.4226H64.304ZM62.7882 17.074V17.5563H59.6314V17.074H60.9467V16.4163H61.5355V17.074H62.7882ZM61.2349 17.8256C61.9928 17.8256 62.5252 18.2641 62.5314 18.903C62.5252 19.5481 61.9928 19.9866 61.2349 19.9866C60.477 19.9866 59.9446 19.5481 59.9446 18.903C59.9446 18.2641 60.477 17.8256 61.2349 17.8256ZM61.2349 18.2891C60.7964 18.2954 60.502 18.5334 60.502 18.903C60.502 19.2851 60.7964 19.5231 61.2349 19.5231C61.6671 19.5231 61.9677 19.2851 61.974 18.903C61.9677 18.5334 61.6671 18.2954 61.2349 18.2891ZM64.4293 21.4272V21.9095H60.6398V20.3248H61.2411V21.4272H64.4293ZM70.292 19.1473V19.6233H65.1684V19.1473H67.4421V18.5522H65.8073V16.6731H69.6594V17.1429H66.3961V18.0762H69.697V18.5522H68.0183V19.1473H70.292ZM67.7239 19.9866C68.9328 19.9866 69.6594 20.3561 69.6594 21.0075C69.6594 21.6589 68.9328 22.0222 67.7239 22.0285C66.5088 22.0222 65.776 21.6589 65.776 21.0075C65.776 20.3561 66.5088 19.9866 67.7239 19.9866ZM67.7239 20.4501C66.8658 20.4501 66.3773 20.6505 66.3773 21.0075C66.3773 21.3646 66.8658 21.565 67.7239 21.5587C68.5695 21.565 69.0643 21.3646 69.0643 21.0075C69.0643 20.6505 68.5695 20.4501 67.7239 20.4501ZM76.7623 16.7483V17.193C76.7623 17.669 76.7623 18.2265 76.6245 18.9656H77.4137V19.4542H72.2776V18.9656H76.0232C76.1704 18.2359 76.1735 17.7035 76.1735 17.2306H72.9227V16.7483H76.7623ZM76.9314 21.4209V21.9095H72.9478V20.0367H73.5365V21.4209H76.9314ZM82.506 16.4163V22.041H81.9109V19.1222H80.7522V18.6399H81.9109V16.4163H82.506ZM79.8126 18.2202C79.8126 19.1097 80.3826 20.0179 81.247 20.4L80.915 20.8572C80.273 20.5722 79.7782 19.9866 79.5308 19.2788C79.2834 20.0273 78.7917 20.6536 78.1465 20.9512L77.8208 20.4939C78.6727 20.1056 79.2239 19.1473 79.2239 18.2202V17.8507H77.9774V17.3747H79.2301V16.5291H79.8252V17.3747H81.0403V17.8507H79.8126V18.2202ZM88.1933 16.4163V22.0285H87.6233V16.4163H88.1933ZM87.0533 16.5228V21.7529H86.4833V19.047H85.8507C85.8006 20.1432 85.3308 20.8259 84.6356 20.8196C83.9027 20.8259 83.4267 20.0555 83.4267 18.8403C83.4267 17.6252 83.9027 16.861 84.6356 16.8673C85.3183 16.861 85.7818 17.5093 85.8507 18.5647H86.4833V16.5228H87.0533ZM84.6356 17.4248C84.2285 17.4248 83.9779 17.9446 83.9779 18.8403C83.9779 19.736 84.2285 20.2559 84.6356 20.2559C85.049 20.2559 85.3058 19.736 85.3058 18.8403C85.3058 17.9446 85.049 17.4248 84.6356 17.4248ZM90.9305 17.8444C90.9305 18.8717 91.5067 19.8926 92.3648 20.281L92.0016 20.757C91.3627 20.4375 90.8835 19.8018 90.6361 19.0345C90.3887 19.8425 89.897 20.5252 89.2518 20.8635L88.876 20.3812C89.7467 19.9678 90.3292 18.8842 90.3292 17.8444V16.8861H90.9305V17.8444ZM93.5862 16.4163V22.041H92.9975V18.7652H91.7447V18.2829H92.9975V16.4163H93.5862ZM101.134 19.5794V20.0617H98.8539V22.0222H98.2714V20.0617H96.0165V19.5794H101.134ZM100.652 16.7483V17.2243H98.9165C98.9259 17.9196 99.7903 18.5397 100.852 18.6837L100.633 19.1535C99.712 19.0095 98.9165 18.5553 98.5783 17.9133C98.2307 18.5553 97.4383 19.0095 96.5301 19.1535L96.3046 18.6837C97.3538 18.5397 98.2182 17.9196 98.2401 17.2243H96.4925V16.7483H100.652ZM106.69 19.6045V20.0993H104.397V22.0285H103.815V20.0993H101.554V19.6045H106.69ZM104.109 16.6293C105.293 16.6293 106.107 17.1116 106.107 17.8757C106.107 18.6336 105.293 19.1097 104.109 19.1097C102.919 19.1097 102.111 18.6336 102.111 17.8757C102.111 17.1116 102.919 16.6293 104.109 16.6293ZM104.109 17.1053C103.276 17.1116 102.719 17.3997 102.725 17.8757C102.719 18.3455 103.276 18.6336 104.109 18.6336C104.942 18.6336 105.5 18.3455 105.5 17.8757C105.5 17.3997 104.942 17.1116 104.109 17.1053ZM111.757 16.4226V20.5315H111.162V16.4226H111.757ZM111.926 21.4272V21.9095H108.086V20.1432H108.688V21.4272H111.926ZM109.145 17.287C109.139 18.1075 109.665 18.8591 110.529 19.1598L110.222 19.6358C109.574 19.3947 109.095 18.9186 108.844 18.3079C108.597 18.9593 108.111 19.4824 107.454 19.736L107.134 19.2663C108.018 18.9406 108.537 18.1326 108.537 17.287V16.7295H109.145V17.287ZM118.885 16.4163V22.0285H118.296V19.1285H117.037V18.6399H118.296V16.4163H118.885ZM117.056 17.0176C117.05 18.6462 116.417 20.0429 114.513 20.9887L114.2 20.519C115.687 19.7924 116.348 18.7808 116.455 17.4937H114.45V17.0176H117.056ZM124.165 16.7921V19.2099H121.541V16.7921H124.165ZM122.123 17.2682V18.7339H123.583V17.2682H122.123ZM125.731 16.4163V17.7192H126.545V18.214H125.731V19.5982H125.136V16.4163H125.731ZM125.819 19.9114V20.3874H124.284C124.365 20.9198 125.095 21.4115 126.05 21.5525L125.831 22.0097C124.979 21.8782 124.278 21.4867 123.952 20.9512C123.633 21.4898 122.934 21.8782 122.086 22.0034L121.866 21.5462C122.828 21.4115 123.542 20.9355 123.639 20.3874H122.092V19.9114H125.819ZM129.42 16.5103C130.685 16.5103 131.425 16.8485 131.425 17.4749C131.425 18.1012 130.685 18.4457 129.42 18.4457C128.155 18.4457 127.416 18.1012 127.416 17.4749C127.416 16.8485 128.155 16.5103 129.42 16.5103ZM129.42 16.9487C128.524 16.9487 128.03 17.1429 128.036 17.4749C128.03 17.8194 128.524 18.001 129.42 18.001C130.316 18.001 130.811 17.8194 130.811 17.4749C130.811 17.1429 130.316 16.9487 129.42 16.9487ZM131.982 18.7902V19.2663H126.865V18.7902H131.982ZM131.337 19.6984V21.0138H128.067V21.5149H131.493V21.9721H127.485V20.5816H130.748V20.1432H127.478V19.6984H131.337ZM136.868 16.4163V18.6963H137.682V19.1848H136.868V22.0285H136.273V16.4163H136.868ZM134.099 17.0176C134.099 18.4207 133.842 19.6984 132.828 20.782L132.358 20.4501C133.178 19.5982 133.476 18.6305 133.535 17.5062H132.558V17.0176H134.099ZM135.646 17.0176C135.646 18.4395 135.471 19.9302 134.437 21.1516L133.961 20.8259C134.794 19.8519 135.045 18.7057 135.089 17.5062H134.281V17.0176H135.646ZM33.9131 29.8322V30.327H28.777V29.8322H30.0047V28.3665C29.5443 28.1128 29.2656 27.7088 29.2656 27.2077C29.2656 26.3246 30.1299 25.742 31.3325 25.742C32.5414 25.742 33.4058 26.3246 33.4058 27.2077C33.4058 27.7025 33.1365 28.1003 32.6855 28.354V29.8322H33.9131ZM31.3325 26.2181C30.4494 26.2181 29.8418 26.6001 29.8418 27.2077C29.8418 27.809 30.4494 28.2036 31.3325 28.2036C32.2095 28.2036 32.8295 27.809 32.8295 27.2077C32.8295 26.6001 32.2095 26.2181 31.3325 26.2181ZM30.5934 29.8322H32.0842V28.5794C31.8556 28.6389 31.6019 28.6671 31.3325 28.6671C31.0695 28.6671 30.8189 28.6389 30.5934 28.5857V29.8322ZM35.241 29.1494C35.2473 28.3289 35.4916 28.0784 35.905 27.8215C36.168 27.6587 36.3685 27.4332 36.3685 27.1012C36.3685 26.7066 36.0678 26.4624 35.692 26.4624C35.3538 26.4624 35.0281 26.669 34.9967 27.1326H34.3203C34.3453 26.3371 34.9466 25.8986 35.692 25.8986C36.5063 25.8986 37.0512 26.3872 37.0512 27.1012C37.0512 27.6023 36.8132 27.9406 36.4123 28.1848C36.0365 28.4103 35.8924 28.6421 35.8799 29.1494V29.187H35.241V29.1494ZM35.5855 30.5399C35.3412 30.5399 35.1345 30.3395 35.1408 30.0952C35.1345 29.8509 35.3412 29.6505 35.5855 29.6505C35.8235 29.6505 36.0302 29.8509 36.0302 30.0952C36.0302 30.3395 35.8235 30.5399 35.5855 30.5399Z" fill="#F6FFFC"/>
</svg>
