<svg width="12" height="12" viewBox="0 0 12 12" fill="none" xmlns="http://www.w3.org/2000/svg">
<path d="M6.99163 2.12016C6.79923 1.95514 6.50922 1.95923 6.3217 2.13774C6.12174 2.32818 6.11418 2.6448 6.30461 2.84477L8.83342 5.50004H1.99993L1.94866 5.50248C1.69659 5.52815 1.49993 5.7412 1.49993 6.00004C1.49993 6.25888 1.69659 6.47193 1.94866 6.4976L1.99993 6.50004H8.83342L6.30461 9.15532L6.27092 9.19389C6.1156 9.39412 6.13425 9.68381 6.3217 9.86235C6.50922 10.0409 6.79923 10.0449 6.99163 9.87992L7.02874 9.84477L10.3622 6.34477C10.5459 6.15171 10.5459 5.84837 10.3622 5.65532L7.02874 2.15532L6.99163 2.12016Z" fill="#009E53"/>
</svg>
