<svg width="11" height="13" viewBox="0 0 11 13" fill="none" xmlns="http://www.w3.org/2000/svg">
<path d="M5.63374 7C5.87515 7 6.10351 7.10959 6.25453 7.29793L6.58822 7.71406C6.9805 8.20326 7.72275 8.19923 7.92312 7.60505C7.93905 7.55782 7.95426 7.50978 7.96875 7.46094C8.11458 6.98177 8.1875 6.43229 8.1875 5.8125C8.1875 5.01562 8.06771 4.33854 7.82812 3.78125C7.59375 3.22396 7.26042 2.80208 6.82812 2.51562C6.39583 2.22396 5.88542 2.07812 5.29688 2.07812C4.70833 2.07812 4.19531 2.22396 3.75781 2.51562C3.32552 2.80208 2.98958 3.22656 2.75 3.78906C2.51042 4.34635 2.39062 5.02083 2.39062 5.8125C2.39062 6.60417 2.51042 7.28125 2.75 7.84375C2.98958 8.40104 3.32552 8.82552 3.75781 9.11719C4.19531 9.40365 4.70833 9.54688 5.29688 9.54688C5.59463 9.54688 5.72667 9.20514 5.5431 8.9707L5.00721 8.28632C4.59824 7.76401 4.97036 7 5.63374 7ZM10.5781 5.8125C10.5781 6.79688 10.4193 7.67708 10.1016 8.45312C9.90053 8.94899 9.6467 9.3899 9.34006 9.77585C9.05548 10.134 9.00252 10.6475 9.28595 11.0066C9.73326 11.5734 9.325 12.4062 8.603 12.4062C8.34091 12.4062 8.09183 12.2877 7.92725 12.0837L7.73363 11.8438C7.45968 11.5043 6.9988 11.3912 6.57339 11.4879C6.17125 11.5793 5.74574 11.625 5.29688 11.625C4.28646 11.625 3.38021 11.3932 2.57812 10.9297C1.77604 10.4661 1.14583 9.79688 0.6875 8.92188C0.229167 8.04167 0 7.00521 0 5.8125C0 4.61458 0.229167 3.57812 0.6875 2.70312C1.14583 1.82292 1.77604 1.15365 2.57812 0.695312C3.38021 0.231771 4.28646 0 5.29688 0C6.30208 0 7.20312 0.231771 8 0.695312C8.80208 1.15365 9.43229 1.82292 9.89062 2.70312C10.349 3.57812 10.5781 4.61458 10.5781 5.8125Z" fill="#BFBFBF"/>
</svg>
