<svg width="15" height="15" viewBox="0 0 15 15" fill="none" xmlns="http://www.w3.org/2000/svg">
<path d="M12.8751 3.00024C12.8751 2.517 12.4831 2.125 11.9999 2.125H3.00024C2.517 2.125 2.125 2.51699 2.125 3.00024V8.86938C2.125 9.35263 2.51699 9.74463 3.00024 9.74463H4.17395C4.51911 9.74465 4.79895 10.0245 4.79895 10.3696V11.9913L6.86255 9.92773L6.90833 9.88623C7.01954 9.7951 7.1594 9.74463 7.30444 9.74463H11.9999C12.4831 9.74463 12.8751 9.35263 12.8751 8.86938V3.00024ZM3.87488 6.05627V6.00012C3.87488 5.65498 4.15476 5.37519 4.49988 5.37512C4.84506 5.37512 5.12488 5.65494 5.12488 6.00012V6.05627C5.12488 6.40145 4.84506 6.68127 4.49988 6.68127C4.15476 6.68121 3.87488 6.40141 3.87488 6.05627ZM6.87476 6.05627V6.00012C6.87476 5.65503 7.15469 5.37525 7.49976 5.37512C7.84493 5.37512 8.12476 5.65494 8.12476 6.00012V6.05627C8.12476 6.40145 7.84493 6.68127 7.49976 6.68127C7.15469 6.68114 6.87476 6.40137 6.87476 6.05627ZM9.87524 6.05627V6.00012C9.87524 5.65494 10.1551 5.37512 10.5002 5.37512C10.8453 5.37525 11.1252 5.65503 11.1252 6.00012V6.05627C11.1252 6.40137 10.8453 6.68114 10.5002 6.68127C10.1551 6.68127 9.87524 6.40145 9.87524 6.05627ZM14.1251 8.86938C14.1251 10.043 13.1735 10.9946 11.9999 10.9946H7.56323L4.61584 13.942C4.4371 14.1207 4.16822 14.1742 3.93469 14.0775C3.70119 13.9808 3.549 13.7529 3.54895 13.5001V10.9946H3.00024C1.82664 10.9946 0.875 10.043 0.875 8.86938V3.00024C0.875 1.82664 1.82664 0.875 3.00024 0.875H11.9999C13.1735 0.875 14.1251 1.82664 14.1251 3.00024V8.86938Z" fill="white"/>
</svg>
