<svg width="18" height="18" viewBox="0 0 18 18" fill="none" xmlns="http://www.w3.org/2000/svg">
<path d="M10.532 14.4822C10.8556 14.2238 11.3275 14.2765 11.5859 14.6001C11.8443 14.9237 11.7915 15.3955 11.468 15.6541C10.8025 16.1857 9.93589 16.5 8.99977 16.5C8.12225 16.5 7.3059 16.224 6.65895 15.7515L6.5315 15.6541L6.47438 15.6035C6.20268 15.3375 6.17125 14.9036 6.41358 14.6001C6.65593 14.2967 7.08584 14.2316 7.40528 14.4375L7.46754 14.4822L7.62281 14.595C7.99879 14.8455 8.4742 15 8.99977 15C9.60036 15 10.136 14.7985 10.532 14.4822ZM8.99977 1.5C12.2963 1.5 14.854 4.40701 14.854 7.84497V7.85376L14.8357 9.41162C14.8378 10.3636 15.185 11.1624 15.5498 11.7114L15.5952 11.7854C15.8061 12.1594 15.7742 12.5812 15.6575 12.8818C15.5373 13.1912 15.2078 13.6362 14.6196 13.6362H3.38063C2.7829 13.6362 2.45448 13.178 2.33766 12.8679C2.2162 12.5454 2.19016 12.0792 2.46217 11.6865L2.60353 11.469C2.9277 10.9353 3.20116 10.2254 3.20118 9.40283V9.39404L3.21949 7.75561C3.22352 4.36605 5.74672 1.5 8.99977 1.5ZM8.99977 3C6.69915 3 4.71953 5.0665 4.71949 7.76367V7.77246L4.70118 9.41089C4.69948 10.504 4.35607 11.4348 3.95118 12.1362H14.0549C13.6657 11.4325 13.3357 10.4986 13.3357 9.40283V9.39404L13.354 7.84497L13.3482 7.59009C13.228 4.97367 11.2682 3 8.99977 3Z" fill="white"/>
</svg>
