<svg width="15" height="15" viewBox="0 0 15 15" fill="none" xmlns="http://www.w3.org/2000/svg">
<path d="M6.65951 1.35365C7.03389 0.715438 7.96662 0.715465 8.34103 1.35365L8.37643 1.41956L9.98409 4.67701L13.5791 5.19947C14.3804 5.31591 14.7003 6.30113 14.1204 6.86634L11.5185 9.40174L12.1331 12.9821C12.27 13.7801 11.4326 14.3889 10.7159 14.0123L7.49996 12.3217L4.28463 14.0123C3.56797 14.3888 2.73053 13.78 2.86739 12.9821L3.48141 9.40174L0.88009 6.86634C0.300257 6.30114 0.620174 5.31593 1.42147 5.19947L5.01583 4.67701L6.62411 1.41956L6.65951 1.35365ZM6.07418 5.35938C5.94965 5.61171 5.72309 5.79587 5.45529 5.86903L5.3381 5.89344L2.1484 6.3567L4.45675 8.60706C4.68688 8.83145 4.79176 9.15452 4.73751 9.47132L4.19247 12.6482L7.04586 11.1486L7.1545 11.0991C7.37714 11.0149 7.62339 11.0149 7.84603 11.0991L7.95468 11.1486L10.8075 12.6482L10.263 9.47132C10.2088 9.15455 10.3137 8.83144 10.5438 8.60706L12.8515 6.3567L9.66244 5.89344C9.38402 5.85299 9.13851 5.69517 8.98617 5.46314L8.92696 5.35938L7.49996 2.46937L6.07418 5.35938Z" fill="white"/>
</svg>
