<svg width="15" height="15" viewBox="0 0 15 15" fill="none" xmlns="http://www.w3.org/2000/svg">
<path d="M11.7455 2.91052C11.7007 2.46932 11.3282 2.125 10.8751 2.125H4.12524C3.642 2.125 3.25 2.517 3.25 3.00024V11.9999C3.25 12.4831 3.64199 12.8751 4.12524 12.8751H10.8751C11.3281 12.8751 11.7006 12.5307 11.7455 12.0896L11.7498 11.9999L11.7504 3.00024L11.7455 2.91052ZM7.50049 8.375L7.56396 8.37805C7.87921 8.40997 8.12549 8.67633 8.12549 9C8.12549 9.32367 7.87921 9.59003 7.56396 9.62195L7.50049 9.625H5.25012C4.905 9.62494 4.62512 9.34514 4.62512 9C4.62512 8.65486 4.905 8.37506 5.25012 8.375H7.50049ZM9.75024 6.12524L9.81433 6.1283C10.1294 6.16039 10.3752 6.42671 10.3752 6.75024C10.3751 7.07367 10.1293 7.33949 9.81433 7.37158L9.75024 7.37524H5.25012C4.90508 7.37518 4.62525 7.09527 4.62512 6.75024C4.62512 6.4051 4.905 6.1253 5.25012 6.12524H9.75024ZM9.75024 3.87488L9.81433 3.87793C10.1294 3.91001 10.3752 4.17638 10.3752 4.49988C10.3752 4.82342 10.1294 5.08973 9.81433 5.12183L9.75024 5.12488H5.25012C4.905 5.12482 4.62512 4.84502 4.62512 4.49988C4.62519 4.15479 4.90504 3.87494 5.25012 3.87488H9.75024ZM12.9998 11.9999L12.9973 12.1091C12.9405 13.232 12.0121 14.1251 10.8751 14.1251H4.12524C2.95164 14.1251 1.99999 13.1735 2 11.9999V3.00024C2.00001 1.82665 2.95164 0.875 4.12524 0.875H10.8751C12.0487 0.875 13.0004 1.82662 13.0004 3.00024L12.9998 11.9999Z" fill="white"/>
</svg>
