<svg width="15" height="15" viewBox="0 0 15 15" fill="none" xmlns="http://www.w3.org/2000/svg">
<path d="M12.4988 7.5C12.4988 4.73852 10.2605 2.5 7.49939 2.5C4.73835 2.50004 2.5 4.73855 2.5 7.5C2.5 10.2615 4.73835 12.5 7.49939 12.5C8.38941 12.5 9.22364 12.268 9.94629 11.8616L9.99939 11.8347C10.1261 11.7786 10.2685 11.766 10.4041 11.7999L12.3743 12.2925L12.0276 9.86084C12.011 9.74501 12.0273 9.62668 12.0746 9.51965C12.3472 8.90285 12.4988 8.21993 12.4988 7.5ZM13.7488 7.5C13.7488 8.33133 13.5842 9.12524 13.2886 9.85229L13.7439 13.0359C13.7733 13.2419 13.6982 13.4495 13.5437 13.5889C13.3892 13.7281 13.1754 13.7814 12.9736 13.7311L10.3333 13.0707C9.48198 13.5046 8.51864 13.75 7.49939 13.75C4.04788 13.75 1.25 10.9517 1.25 7.5C1.25 4.0483 4.04788 1.25004 7.49939 1.25C10.9509 1.25 13.7488 4.04828 13.7488 7.5Z" fill="white"/>
</svg>
