<svg width="15" height="15" viewBox="0 0 15 15" fill="none" xmlns="http://www.w3.org/2000/svg">
<path d="M0.875 9.24451V3.37476C0.875132 2.20126 1.82672 1.25012 3.00024 1.25012H6.75024L6.81372 1.25317C7.12897 1.28509 7.37524 1.55145 7.37524 1.87512C7.37518 2.19874 7.12894 2.46516 6.81372 2.49707L6.75024 2.50012H3.00024C2.51708 2.50012 2.12513 2.89162 2.125 3.37476V9.24451C2.125 9.72776 2.51699 10.1198 3.00024 10.1198H4.17395C4.51911 10.1198 4.79895 10.3996 4.79895 10.7448V12.3665L6.86255 10.3029L6.90833 10.2614C7.01955 10.1702 7.15937 10.1198 7.30444 10.1198H11.9999C12.4831 10.1198 12.8751 9.72776 12.8751 9.24451V7.50012C12.8751 7.15494 13.1549 6.87512 13.5001 6.87512C13.8452 6.87519 14.1251 7.15498 14.1251 7.50012V9.24451C14.1251 10.4181 13.1735 11.3698 11.9999 11.3698H7.56323L4.61584 14.3171C4.43711 14.4958 4.16819 14.5493 3.93469 14.4526C3.70122 14.3559 3.54905 14.1279 3.54895 13.8752V11.3698H3.00024C1.82664 11.3698 0.875 10.4181 0.875 9.24451ZM12.8751 3.37476C12.875 2.47741 12.1471 1.75 11.2498 1.75C10.3525 1.75013 9.62513 2.47749 9.625 3.37476C9.625 4.27214 10.3524 4.99999 11.2498 5.00012C12.1472 5.00012 12.8751 4.27222 12.8751 3.37476ZM14.1251 3.37476C14.1251 4.96257 12.8376 6.25012 11.2498 6.25012C9.66205 6.24999 8.375 4.96249 8.375 3.37476C8.37513 1.78713 9.66213 0.500131 11.2498 0.5C12.8375 0.5 14.125 1.78705 14.1251 3.37476Z" fill="white"/>
</svg>
