<svg width="15" height="15" viewBox="0 0 15 15" fill="none" xmlns="http://www.w3.org/2000/svg">
<path d="M0.874512 7.87488C0.87457 4.64 3.19246 1.94765 6.25781 1.36609C6.59684 1.30178 6.92393 1.52457 6.9884 1.86353C7.05273 2.20265 6.83009 2.52978 6.49097 2.59412C4.00455 3.06577 2.12457 5.25156 2.12451 7.87488C2.12451 10.8433 4.53085 13.2501 7.49927 13.2502C8.45605 13.2502 9.35291 13.0005 10.1299 12.5636L10.183 12.5367C10.3097 12.4806 10.4521 12.4681 10.5876 12.502L12.7501 13.0421L12.3711 10.3871C12.3545 10.2712 12.3708 10.1529 12.4181 10.0459C12.7112 9.38279 12.8746 8.64868 12.8746 7.87488C12.8747 7.52976 13.1545 7.24988 13.4996 7.24988C13.8447 7.24994 14.1246 7.5298 14.1246 7.87488C14.1246 8.76005 13.9481 9.60514 13.6321 10.3785L14.1191 13.7861C14.1485 13.9921 14.0735 14.1991 13.9189 14.3385C13.7644 14.4778 13.5507 14.5312 13.3489 14.4807L10.5181 13.7727C9.61214 14.2372 8.58559 14.5002 7.49927 14.5002C3.84049 14.5001 0.874512 11.5337 0.874512 7.87488ZM12.8746 3.37476C12.8745 2.47741 12.1466 1.75 11.2493 1.75C10.352 1.75013 9.62464 2.47749 9.62451 3.37476C9.62451 4.27214 10.3519 4.99999 11.2493 5.00012C12.1467 5.00012 12.8746 4.27222 12.8746 3.37476ZM14.1246 3.37476C14.1246 4.96257 12.8371 6.25012 11.2493 6.25012C9.66156 6.24999 8.37451 4.96249 8.37451 3.37476C8.37464 1.78713 9.66164 0.500132 11.2493 0.5C12.837 0.5 14.1245 1.78705 14.1246 3.37476Z" fill="white"/>
</svg>
