<svg width="28" height="28" viewBox="0 0 28 28" fill="none" xmlns="http://www.w3.org/2000/svg">
<path d="M15.1337 6.09777C15.1337 5.49978 14.6384 4.99226 13.9999 4.99226C13.3614 4.99226 12.8661 5.49978 12.8661 6.09777C12.8662 6.65825 13.3014 7.13942 13.8817 7.19742L13.9999 7.20328L14.1181 7.19742C14.6984 7.13942 15.1336 6.65825 15.1337 6.09777ZM12.1131 22.032C12.485 22.5905 13.1615 22.9929 13.9999 22.9929C14.8383 22.9929 15.5148 22.5905 15.8867 22.032H12.1131ZM17.1338 6.09777C17.1338 6.67708 16.9707 7.21505 16.6943 7.67693C19.6745 8.76513 21.8058 11.6071 21.8058 14.9516V14.9643L21.7814 16.8433C21.7844 17.8027 22.1233 18.6354 22.5285 19.2653L22.7063 19.5241L22.7737 19.6227C23.0825 20.12 23.037 20.6912 22.8645 21.0934C22.6789 21.5258 22.2195 22.032 21.4933 22.032H18.0665C17.5905 23.775 15.8992 24.993 13.9999 24.993C12.1006 24.993 10.4093 23.775 9.93334 22.032H6.50743C5.76926 22.032 5.31063 21.5107 5.12945 21.0759C4.94949 20.6436 4.91298 20.0115 5.3111 19.4918L5.49665 19.234C5.92026 18.6029 6.26813 17.7767 6.26816 16.8306V16.8179L6.29258 14.8413C6.29775 11.556 8.38597 8.76429 11.3084 7.68279C11.0299 7.21968 10.866 6.67942 10.866 6.09777C10.866 4.37027 12.2819 2.99219 13.9999 2.99219C15.7179 2.99219 17.1338 4.37027 17.1338 6.09777Z" fill="#D9D9D9"/>
</svg>
