<svg width="20" height="20" viewBox="0 0 20 20" fill="none" xmlns="http://www.w3.org/2000/svg">
<path d="M14.2994 4.19966C14.5337 3.96536 14.9136 3.96537 15.1479 4.19967C15.3822 4.43397 15.3822 4.81386 15.1479 5.04816L12.9391 7.25692C12.7048 7.49122 12.3249 7.49122 12.0906 7.25691C11.8563 7.02261 11.8563 6.64272 12.0906 6.40842L14.2994 4.19966Z" fill="white"/>
<path d="M13.2778 10.5903C13.0435 10.356 12.6636 10.356 12.4293 10.5903C12.1949 10.8246 12.1949 11.2045 12.4293 11.4388L14.6379 13.6475C14.8722 13.8818 15.2521 13.8818 15.4864 13.6475C15.7208 13.4132 15.7208 13.0333 15.4864 12.7989L13.2778 10.5903Z" fill="white"/>
<path d="M14.6 8C14.2686 8 14 8.26863 14 8.6C14 8.93137 14.2686 9.2 14.6 9.2L17.4 9.2C17.7314 9.2 18 8.93137 18 8.6C18 8.26863 17.7314 8 17.4 8L14.6 8Z" fill="white"/>
<path d="M6 7H2.2C2.08954 7 2 7.08954 2 7.2V11.3C2 11.4105 2.08954 11.5 2.2 11.5H4M6 7L9.6683 3.79024C9.79762 3.67709 10 3.76892 10 3.94075V14.1C10 14.2648 9.81185 14.3589 9.68 14.26L6 11.5M6 7V11.5M6 11.5H4M4 11.5V15.5" stroke="white" stroke-linecap="round"/>
</svg>
