<svg width="24" height="24" viewBox="0 0 24 24" fill="none" xmlns="http://www.w3.org/2000/svg">
<path d="M19.999 5.25C19.999 4.55964 19.4394 4 18.749 4H5.24902C4.55867 4 3.99902 4.55964 3.99902 5.25V14.0547C3.99921 14.7449 4.55878 15.3047 5.24902 15.3047H9.74902L9.8916 15.3145C10.2186 15.3615 10.5049 15.5686 10.6504 15.8721L12.0352 18.7637L13.5576 15.8428L13.6299 15.7246C13.8157 15.4633 14.1181 15.3048 14.4443 15.3047H18.749C19.4393 15.3047 19.9988 14.7449 19.999 14.0547V5.25ZM21.999 14.0547C21.9988 15.8495 20.5438 17.3047 18.749 17.3047H15.0518L12.8857 21.4619C12.7107 21.7978 12.3611 22.0063 11.9824 22C11.6037 21.9937 11.2614 21.7733 11.0977 21.4316L9.12012 17.3047H5.24902C3.45421 17.3047 1.99921 15.8495 1.99902 14.0547V5.25C1.99902 3.45508 3.4541 2 5.24902 2H18.749C20.5439 2 21.999 3.45507 21.999 5.25V14.0547Z" fill="#9D9D9D"/>
<path d="M11 13.125V13.04C11.0002 12.4879 11.4478 12.04 12 12.04C12.5522 12.04 12.9998 12.4879 13 13.04V13.125C13 13.6773 12.5523 14.125 12 14.125C11.4477 14.125 11 13.6773 11 13.125ZM11 9.75V6.375C11 5.82272 11.4477 5.375 12 5.375C12.5523 5.375 13 5.82272 13 6.375V9.75C13 10.3023 12.5523 10.75 12 10.75C11.4477 10.75 11 10.3023 11 9.75Z" fill="#9D9D9D"/>
</svg>
