<svg width="20" height="20" viewBox="0 0 20 20" fill="none" xmlns="http://www.w3.org/2000/svg">
<path d="M14.0981 11.2856C14.4032 10.9805 14.8857 10.9617 15.2131 11.2286L15.2765 11.2856L18.089 14.0981C18.4145 14.4235 18.4145 14.951 18.089 15.2765L15.2765 18.089C14.9511 18.4144 14.4236 18.4144 14.0981 18.089C13.7727 17.7635 13.7727 17.236 14.0981 16.9106L15.4881 15.5206H2.49984C2.0396 15.5206 1.6665 15.1475 1.6665 14.6873C1.6665 14.227 2.0396 13.8539 2.49984 13.8539H15.4881L14.0981 12.464L14.0412 12.4005C13.7742 12.0732 13.793 11.5907 14.0981 11.2856ZM4.72314 1.91058C5.04858 1.58514 5.57609 1.58514 5.90153 1.91058C6.22697 2.23602 6.22697 2.76353 5.90153 3.08897L4.51156 4.47894H17.4998C17.9601 4.47894 18.3332 4.85204 18.3332 5.31227C18.3332 5.77251 17.9601 6.14561 17.4998 6.14561H4.51156L5.90153 7.53558L5.9585 7.59906C6.22545 7.92637 6.20663 8.40887 5.90153 8.71397C5.59643 9.01906 5.11393 9.03789 4.78662 8.77093L4.72314 8.71397L1.91064 5.90147C1.58521 5.57603 1.58521 5.04852 1.91064 4.72308L4.72314 1.91058Z" fill="#5D5D5D"/>
</svg>
