<svg width="90" height="90" viewBox="0 0 90 90" fill="none" xmlns="http://www.w3.org/2000/svg">
<path d="M0 10C0 4.47715 4.47715 0 10 0H80C85.5229 0 90 4.47715 90 10V80C90 85.5229 85.5229 90 80 90H10C4.47715 90 0 85.5229 0 80V10Z" fill="#D9D9D9"/>
<path d="M61.2917 40.8709C61.2912 39.4824 60.1396 38.3066 58.6562 38.3066H53.7448V56.8837H58.6562C60.1399 56.8837 61.2917 55.7065 61.2917 54.3175V40.8709ZM38.9505 56.8837H49.9115V38.3066H38.9505V56.8837ZM28.7083 54.3175C28.7083 55.7065 29.8601 56.8837 31.3438 56.8837H35.1172V38.3066H31.3438C29.8604 38.3066 28.7088 39.4824 28.7083 40.8709V54.3175ZM48.7734 31.9071C48.7731 31.756 48.6404 31.5833 48.4141 31.5833H40.4479C40.2216 31.5833 40.0889 31.756 40.0885 31.9071V34.4733H48.7734V31.9071ZM52.6068 34.4733H58.6562C62.2004 34.4733 65.1245 37.3095 65.125 40.8709V54.3175C65.125 57.8794 62.2007 60.717 58.6562 60.717H31.3438C27.7993 60.717 24.875 57.8794 24.875 54.3175V40.8709C24.8755 37.3095 27.7996 34.4733 31.3438 34.4733H36.2552V31.9071C36.2555 29.5833 38.1607 27.75 40.4479 27.75H48.4141C50.7013 27.75 52.6065 29.5833 52.6068 31.9071V34.4733Z" fill="white"/>
</svg>
