<svg width="32" height="32" viewBox="0 0 32 32" fill="none" xmlns="http://www.w3.org/2000/svg">
<path d="M29.3342 25.333C29.3342 26.8057 28.1399 27.9999 26.6672 28L5.33325 28C3.86063 27.9998 2.66724 26.8057 2.66724 25.333L2.66724 10.667C2.66724 9.19433 3.86063 8.00016 5.33325 8L8.66724 8L8.96216 6.22851C9.17647 4.94268 10.2894 4 11.593 4L20.4084 4C21.7119 4.0001 22.824 4.94275 23.0383 6.22852L23.3342 8L26.6672 8C28.1399 8.00006 29.3342 9.19427 29.3342 10.667L29.3342 25.333ZM21.3333 17.2812C21.3333 14.3653 18.9457 12.0011 16.0002 12.001C13.0547 12.001 10.6663 14.3652 10.6663 17.2812C10.6665 20.1971 13.0548 22.5605 16.0002 22.5605C18.9456 22.5604 21.333 20.1971 21.3333 17.2812ZM23.467 12.8008C23.467 12.2117 22.9888 11.7344 22.3997 11.7344C21.8107 11.7346 21.3333 12.2118 21.3333 12.8008C21.3333 13.3897 21.8108 13.867 22.3997 13.8672C22.9887 13.8672 23.4669 13.3898 23.467 12.8008Z" fill="#D9D9D9"/>
<circle cx="16" cy="17.3334" r="2.66667" fill="#D9D9D9"/>
</svg>
