<svg width="16" height="16" viewBox="0 0 16 16" fill="none" xmlns="http://www.w3.org/2000/svg">
<path d="M13.7337 5.68099C13.7337 5.16552 13.3156 4.7474 12.8001 4.7474H11.2005C10.9634 4.7474 10.7438 4.62148 10.6243 4.41667L9.69727 2.82747H6.30339L5.3763 4.41667C5.25683 4.62148 5.03724 4.7474 4.80013 4.7474H3.20052C2.68505 4.7474 2.26693 5.16552 2.26693 5.68099V12.2409C2.26697 12.7563 2.68508 13.1738 3.20052 13.1738H12.8001C13.3156 13.1738 13.7337 12.7563 13.7337 12.2409V5.68099ZM9.73372 8.56055C9.73358 7.60337 8.95721 6.82747 8 6.82747C7.04291 6.82761 6.26707 7.60346 6.26693 8.56055C6.26693 9.51775 7.04283 10.2941 8 10.2943C8.95729 10.2943 9.73372 9.51784 9.73372 8.56055ZM11.0671 8.56055C11.0671 10.2542 9.69367 11.6276 8 11.6276C6.30645 11.6275 4.93359 10.2541 4.93359 8.56055C4.93373 6.86708 6.30653 5.49428 8 5.49414C9.69359 5.49414 11.0669 6.86699 11.0671 8.56055ZM15.0671 12.2409C15.067 13.4927 14.0519 14.5072 12.8001 14.5072H3.20052C1.9487 14.5072 0.933636 13.4927 0.933594 12.2409V5.68099C0.933594 4.42914 1.94868 3.41406 3.20052 3.41406H4.41732L5.3444 1.82487L5.39388 1.75195C5.51913 1.59066 5.71311 1.49414 5.92057 1.49414H10.0801L10.168 1.5C10.3705 1.52685 10.5517 1.6456 10.6562 1.82487L11.5833 3.41406H12.8001C14.052 3.41406 15.0671 4.42914 15.0671 5.68099V12.2409Z" fill="#5D5D5D"/>
</svg>
