<svg width="90" height="90" viewBox="0 0 90 90" fill="none" xmlns="http://www.w3.org/2000/svg">
<path d="M0 10C0 4.47715 4.47715 0 10 0H80C85.5229 0 90 4.47715 90 10V80C90 85.5229 85.5229 90 80 90H10C4.47715 90 0 85.5229 0 80V10Z" fill="#D9D9D9"/>
<path d="M24.9693 36.7855V32.1523C24.9693 30.7816 26.0697 29.6813 27.4404 29.6813M24.9693 36.7855V58.3685M24.9693 36.7855H64.9692M24.9693 36.7855L24.9692 43.8897L24.9693 58.3685M27.4404 29.6813H39.8728M27.4404 29.6813H62.4981C63.8688 29.6813 64.9692 30.7816 64.9692 32.1523V36.7855M24.9693 58.3685C24.9693 59.7391 26.0697 60.8396 27.4404 60.8396H62.4981C63.8688 60.8396 64.9692 59.7391 64.9692 58.3685V43.8897V36.7855M30.5484 52.492H32.1508M30.5484 47.4148H34.892" stroke="white" stroke-width="4" stroke-linecap="round" stroke-linejoin="round"/>
</svg>
