<svg width="20" height="20" viewBox="0 0 20 20" fill="none" xmlns="http://www.w3.org/2000/svg">
<path d="M16.5 9.9974C16.5 6.3155 13.5152 3.33073 9.83333 3.33073C6.15143 3.33073 3.16667 6.3155 3.16667 9.9974C3.16667 13.6793 6.15143 16.6641 9.83333 16.6641C13.5152 16.6641 16.5 13.6793 16.5 9.9974ZM9 7.01481C9 6.55457 9.3731 6.18148 9.83333 6.18148C10.2936 6.18148 10.6667 6.55457 10.6667 7.01481V10.3343L12.9095 11.0822L12.9884 11.1131C13.3737 11.2864 13.5725 11.7267 13.436 12.1361C13.2995 12.5453 12.8764 12.7786 12.4644 12.6862L12.3822 12.6626L9.56966 11.7251C9.22951 11.6116 9 11.2935 9 10.9349V7.01481ZM18.1667 9.9974C18.1667 14.5998 14.4357 18.3307 9.83333 18.3307C5.23096 18.3307 1.5 14.5998 1.5 9.9974C1.5 5.39502 5.23096 1.66406 9.83333 1.66406C14.4357 1.66406 18.1667 5.39502 18.1667 9.9974Z" fill="#9D9D9D"/>
</svg>
