<svg width="8" height="8" viewBox="0 0 8 8" fill="none" xmlns="http://www.w3.org/2000/svg">
<path d="M7.17384 0.260643C6.82671 -0.0864893 6.26403 -0.0864893 5.91689 0.260643L3.71724 2.4603L1.51759 0.260643L1.44988 0.199011C1.10075 -0.0856632 0.58605 -0.0647636 0.260643 0.260643C-0.0647636 0.58605 -0.0856632 1.10075 0.199011 1.44988L0.260643 1.51759L2.4603 3.71724L0.260643 5.91689C-0.0864896 6.26403 -0.0864896 6.8267 0.260643 7.17384C0.607776 7.52097 1.17045 7.52097 1.51759 7.17384L3.71724 4.97418L5.91689 7.17384L5.9846 7.23547C6.33373 7.52014 6.84843 7.49924 7.17384 7.17384C7.49924 6.84843 7.52014 6.33373 7.23547 5.9846L7.17384 5.91689L4.97418 3.71724L7.17384 1.51759C7.52097 1.17045 7.52097 0.607776 7.17384 0.260643Z" fill="white"/>
</svg>
