<svg width="18" height="18" viewBox="0 0 18 18" fill="none" xmlns="http://www.w3.org/2000/svg">
<path d="M15.45 3.60107C15.45 3.02118 14.9796 2.55078 14.3997 2.55078H3.6001C3.0202 2.55078 2.5498 3.02118 2.5498 3.60107V10.644C2.5498 11.2239 3.0202 11.6943 3.6001 11.6943H5.00855C5.42274 11.6944 5.75855 12.0301 5.75855 12.4443V14.3904L8.23486 11.9141L8.2898 11.8643C8.42326 11.7549 8.59108 11.6943 8.76514 11.6943H14.3997C14.9796 11.6943 15.45 11.2239 15.45 10.644V3.60107ZM4.64966 7.26831V7.20093C4.64966 6.78676 4.98551 6.45101 5.39966 6.45093C5.81387 6.45093 6.14966 6.78671 6.14966 7.20093V7.26831C6.14966 7.68252 5.81387 8.01831 5.39966 8.01831C4.98551 8.01823 4.64966 7.68248 4.64966 7.26831ZM8.24951 7.26831V7.20093C8.24951 6.78681 8.58543 6.45109 8.99951 6.45093C9.41373 6.45093 9.74951 6.78671 9.74951 7.20093V7.26831C9.74951 7.68252 9.41373 8.01831 8.99951 8.01831C8.58543 8.01815 8.24951 7.68243 8.24951 7.26831ZM11.8501 7.26831V7.20093C11.8501 6.78671 12.1859 6.45093 12.6001 6.45093C13.0142 6.45109 13.3501 6.78681 13.3501 7.20093V7.26831C13.3501 7.68243 13.0142 8.01815 12.6001 8.01831C12.1859 8.01831 11.8501 7.68252 11.8501 7.26831ZM16.95 10.644C16.95 12.0524 15.808 13.1943 14.3997 13.1943H9.07568L5.53882 16.7312C5.32432 16.9457 5.00167 17.0099 4.72144 16.8938C4.44123 16.7777 4.25861 16.5042 4.25855 16.2009V13.1943H3.6001C2.19177 13.1943 1.0498 12.0524 1.0498 10.644V3.60107C1.0498 2.19275 2.19177 1.05078 3.6001 1.05078H14.3997C15.808 1.05078 16.95 2.19275 16.95 3.60107V10.644Z" fill="white"/>
</svg>
