<svg width="22" height="24" viewBox="0 0 22 24" fill="none" xmlns="http://www.w3.org/2000/svg">
<path d="M19.2803 14.0303C19.5732 13.7374 19.5732 13.2626 19.2803 12.9697L14.5074 8.1967C14.2145 7.90381 13.7396 7.90381 13.4467 8.1967C13.1538 8.48959 13.1538 8.96447 13.4467 9.25736L17.6893 13.5L13.4467 17.7426C13.1538 18.0355 13.1538 18.5104 13.4467 18.8033C13.7396 19.0962 14.2145 19.0962 14.5074 18.8033L19.2803 14.0303ZM3.25 0H2.5V5.5H3.25H4V0H3.25ZM11.25 13.5V14.25H18.75V13.5V12.75H11.25V13.5ZM3.25 5.5H2.5C2.5 10.3325 6.41751 14.25 11.25 14.25V13.5V12.75C7.24594 12.75 4 9.50406 4 5.5H3.25Z" fill="#D9D9D9"/>
</svg>
