<svg width="30" height="30" viewBox="0 0 30 30" fill="none" xmlns="http://www.w3.org/2000/svg">
<path d="M0 15C0 6.71573 6.71573 0 15 0C23.2843 0 30 6.71573 30 15C30 23.2843 23.2843 30 15 30C6.71573 30 0 23.2843 0 15Z" fill="#6ED5A7"/>
<path d="M20.1094 10.4668C20.4732 10.2268 20.9683 10.2667 21.2886 10.5869C21.6088 10.9071 21.6486 11.4022 21.4087 11.7661L21.2886 11.914L13.7886 19.414C13.4224 19.7802 12.8275 19.7802 12.4614 19.414L8.71141 15.664L8.59129 15.5161C8.35136 15.1522 8.39119 14.6571 8.71141 14.3369C9.03163 14.0167 9.52676 13.9768 9.89061 14.2168L10.0386 14.3369L13.125 17.4233L19.9614 10.5869L20.1094 10.4668Z" fill="white"/>
</svg>
