<svg width="7" height="8" viewBox="0 0 7 8" fill="none" xmlns="http://www.w3.org/2000/svg">
<path d="M6.74061 0.759444C6.41517 0.434007 5.88766 0.434007 5.56222 0.759444L3.50005 2.82162L1.43787 0.759444L1.3744 0.701664C1.04709 0.434782 0.564558 0.454375 0.259489 0.759444C-0.0455791 1.06451 -0.0651725 1.54704 0.201709 1.87435L0.259489 1.93783L2.32166 4L0.259489 6.06218C-0.0659472 6.38762 -0.0659472 6.91513 0.259489 7.24056C0.584926 7.566 1.11244 7.566 1.43787 7.24056L3.50005 5.17839L5.56222 7.24056L5.6257 7.29834C5.95301 7.56523 6.43554 7.54563 6.74061 7.24056C7.04568 6.93549 7.06527 6.45296 6.79839 6.12565L6.74061 6.06218L4.67843 4L6.74061 1.93783C7.06605 1.61239 7.06605 1.08488 6.74061 0.759444Z" fill="white"/>
</svg>
