<svg width="7" height="7" viewBox="0 0 7 7" fill="none" xmlns="http://www.w3.org/2000/svg">
<path d="M6.72547 0.244353C6.40004 -0.0810837 5.87252 -0.0810837 5.54709 0.244353L3.48491 2.30653L1.42274 0.244353L1.35926 0.186573C1.03195 -0.0803093 0.549422 -0.0607159 0.244353 0.244353C-0.0607159 0.549422 -0.0803093 1.03195 0.186573 1.35926L0.244353 1.42274L2.30653 3.48491L0.244353 5.54709C-0.0810839 5.87252 -0.0810839 6.40003 0.244353 6.72547C0.56979 7.05091 1.0973 7.05091 1.42274 6.72547L3.48491 4.6633L5.54709 6.72547L5.61056 6.78325C5.93787 7.05013 6.4204 7.03054 6.72547 6.72547C7.03054 6.4204 7.05013 5.93787 6.78325 5.61056L6.72547 5.54709L4.6633 3.48491L6.72547 1.42274C7.05091 1.0973 7.05091 0.56979 6.72547 0.244353Z" fill="white"/>
</svg>
