<svg width="80" height="80" viewBox="0 0 80 80" fill="none" xmlns="http://www.w3.org/2000/svg">
<path d="M66.6689 57.9889C66.4432 57.8789 66.2256 57.7461 66.0244 57.582L65.7705 57.3542L53.1273 44.7109L38.609 59.2292C37.3073 60.5309 35.1973 60.5309 33.8955 59.2292L28.7523 54.0859L17.2614 65.5736C18.4344 66.2608 19.7946 66.6641 21.2523 66.6641H58.7523C63.1245 66.6641 66.6689 63.1196 66.6689 58.7474V57.9889ZM29.1689 26.8724C29.1689 25.6067 28.1429 24.5807 26.8773 24.5807C25.6116 24.5807 24.5856 25.6067 24.5856 26.8724C24.5856 28.138 25.6116 29.1641 26.8773 29.1641C28.1429 29.1641 29.1689 28.138 29.1689 26.8724ZM66.6689 21.2474C66.6689 16.8751 63.1245 13.3307 58.7523 13.3307H21.2523C19.6748 13.3307 18.205 13.7921 16.9706 14.5874C15.7156 15.3959 14.7038 16.5495 14.0695 17.9141C13.5985 18.9272 13.3356 20.0566 13.3356 21.2474V58.7474C13.3356 59.164 13.3745 59.5721 13.4365 59.9714L26.3955 47.0156L26.6494 46.7878C27.9587 45.7199 29.8887 45.7952 31.109 47.0156L36.2523 52.1589L50.7705 37.6406L51.0244 37.4128C52.3337 36.3449 54.2637 36.4202 55.484 37.6406L66.6689 48.8255V21.2474ZM35.8356 26.8724C35.8356 31.8199 31.8248 35.8307 26.8773 35.8307C21.9297 35.8307 17.9189 31.8199 17.9189 26.8724C17.9189 21.9248 21.9297 17.9141 26.8773 17.9141C31.8248 17.9141 35.8356 21.9248 35.8356 26.8724ZM73.3356 58.7474C73.3356 66.8015 66.8064 73.3307 58.7523 73.3307H21.2523C13.1981 73.3307 6.66895 66.8015 6.66895 58.7474V21.2474C6.66895 18.3289 7.52625 15.6107 9.00276 13.3307C11.601 9.31874 16.1166 6.66406 21.2523 6.66406H58.7523C66.8064 6.66406 73.3356 13.1932 73.3356 21.2474V58.7474Z" fill="#BFBFBF"/>
<path d="M7.81152 3.32617C9.73514 1.63407 12.5739 1.56587 14.5713 3.09473L14.7686 3.25293L14.8125 3.29004L14.8545 3.33008L15.1016 3.56445L15.1338 3.59473L15.1641 3.62598L23.4707 12.21L29.0439 17.9678L35.3721 24.5078L40.3232 29.625L50.9941 40.6504L55.9482 45.7705L69.6914 59.9697L69.6924 59.9707L74.3359 64.7705L75.1621 65.623L75.1641 65.624C77.2109 67.7391 77.1587 71.1155 75.043 73.165L75.042 73.166C72.9269 75.2126 69.5512 75.1605 67.502 73.0459L67.501 73.0449L30.4961 34.8057L28.8262 33.0811V33.0801L7.50098 11.043L7.46484 11.0059L7.43164 10.9678L7.20703 10.71L7.17383 10.6729L7.14355 10.6338C5.46925 8.5114 5.63547 5.42387 7.62207 3.50098L7.81152 3.32617Z" fill="#BFBFBF" stroke="#D8D8D8" stroke-width="4"/>
</svg>
