<svg width="18" height="18" viewBox="0 0 18 18" fill="none" xmlns="http://www.w3.org/2000/svg">
<path d="M2.25 14.1694V11.4031C2.25012 10.989 2.58586 10.6531 3 10.6531C3.41414 10.6531 3.74988 10.989 3.75 11.4031V14.1694C3.75001 14.402 3.83834 14.6176 3.98364 14.7708C4.12767 14.9225 4.31419 15 4.5 15H13.5C13.6858 15 13.8723 14.9225 14.0164 14.7708C14.1617 14.6176 14.25 14.402 14.25 14.1694V11.4031C14.2501 10.989 14.5859 10.6531 15 10.6531C15.4141 10.6531 15.7499 10.989 15.75 11.4031V14.1694C15.75 14.7752 15.522 15.3638 15.1047 15.8035C14.6862 16.2445 14.1098 16.5 13.5 16.5H4.5C3.92843 16.5 3.38624 16.2754 2.97583 15.884L2.89526 15.8035C2.47798 15.3638 2.25001 14.7752 2.25 14.1694ZM8.25073 2.25C8.25073 1.83582 8.58657 1.50006 9.00073 1.5C9.41495 1.5 9.75073 1.83579 9.75073 2.25V9.39844L11.8997 7.25391C12.1928 6.96128 12.6676 6.96148 12.9602 7.25464C13.2528 7.54774 13.2525 8.02255 12.9595 8.31519L9.53101 11.7378C9.23828 12.03 8.76399 12.0299 8.47119 11.7378L5.04272 8.31519L4.99072 8.25806C4.75045 7.96374 4.7671 7.5294 5.04126 7.25464C5.31561 6.9798 5.75061 6.96189 6.04541 7.2019L6.10181 7.25391L8.25073 9.39771V2.25Z" fill="#CFCFCF"/>
</svg>
