<svg width="20" height="20" viewBox="0 0 20 20" fill="none" xmlns="http://www.w3.org/2000/svg">
<path d="M16.4997 15.4598L16.5851 15.4639C17.0054 15.5066 17.333 15.8617 17.333 16.2932C17.3329 16.7245 17.0053 17.0789 16.5851 17.1216L16.4997 17.1265H11.4997C11.0397 17.1263 10.6665 16.7532 10.6663 16.2932C10.6663 15.833 11.0396 15.46 11.4997 15.4598H16.4997ZM12.2028 3.28535C12.9225 2.69791 13.9841 2.73922 14.6556 3.40986L16.3809 5.1335C17.0973 5.84915 17.0983 7.00995 16.3825 7.72627L8.23715 15.8757C7.98184 16.131 7.65688 16.3057 7.3029 16.377L3.66439 17.1094C3.39094 17.1645 3.10809 17.0795 2.91081 16.8824C2.71353 16.685 2.62773 16.4015 2.68295 16.128L3.41781 12.4935L3.44955 12.3625C3.53418 12.0604 3.69466 11.7839 3.91749 11.5609L12.0636 3.41068L12.2028 3.28535ZM13.478 4.58906C13.4129 4.52403 13.3071 4.52397 13.242 4.58906L5.09669 12.7393C5.07357 12.7625 5.0576 12.7918 5.05111 12.8239L4.56527 15.2279L6.97413 14.7429C7.00617 14.7363 7.03564 14.7204 7.05876 14.6973L15.2033 6.54788C15.2602 6.49092 15.2672 6.4034 15.2245 6.33874L15.2033 6.3127L13.478 4.58906Z" fill="#5D5D5D"/>
</svg>
