<svg width="90" height="90" viewBox="0 0 90 90" fill="none" xmlns="http://www.w3.org/2000/svg">
<path d="M0 10C0 4.47715 4.47715 0 10 0H80C85.5229 0 90 4.47715 90 10V80C90 85.5229 85.5229 90 80 90H10C4.47715 90 0 85.5229 0 80V10Z" fill="#D9D9D9"/>
<path d="M50.2528 24.2999C50.2062 24.2982 39.7941 24.2982 39.7476 24.2999C35.028 24.3413 31.2002 28.1949 31.2002 32.9232V57.0732C31.2002 61.829 35.0694 65.6982 39.8252 65.6982H50.1752C54.931 65.6982 58.8002 61.829 58.8002 57.0732V32.9249C58.8002 28.1949 54.9724 24.343 50.2528 24.2999ZM55.3502 57.0732C55.3502 59.9263 53.0283 62.2482 50.1752 62.2482H39.8252C36.972 62.2482 34.6502 59.9263 34.6502 57.0732V32.9249C34.6502 30.4185 36.4407 28.3243 38.8092 27.8499L40.0063 30.246C40.2978 30.8307 40.8964 31.1999 41.5502 31.1999H48.4502C49.104 31.1999 49.7008 30.8307 49.9941 30.246L51.1912 27.8499C53.5596 28.3226 55.3502 30.4185 55.3502 32.9249V57.0732ZM46.7252 58.7982H43.2752C42.323 58.7982 41.5502 58.0254 41.5502 57.0732C41.5502 56.121 42.323 55.3482 43.2752 55.3482H46.7252C47.6774 55.3482 48.4502 56.121 48.4502 57.0732C48.4502 58.0254 47.6774 58.7982 46.7252 58.7982Z" fill="white"/>
</svg>
