<svg width="18" height="18" viewBox="0 0 18 18" fill="none" xmlns="http://www.w3.org/2000/svg">
<path d="M7.99083 1.62418C8.44009 0.85833 9.55936 0.858362 10.0086 1.62418L10.0511 1.70328L11.9803 5.61222L16.2943 6.23917C17.2559 6.3789 17.6398 7.56117 16.944 8.23941L13.8216 11.2819L14.5592 15.5783C14.7234 16.5359 13.7185 17.2665 12.8585 16.8146L8.99937 14.7858L5.14097 16.8146C4.28098 17.2664 3.27605 16.5359 3.44029 15.5783L4.1771 11.2819L1.05552 8.23941C0.359722 7.56118 0.743623 6.37892 1.70518 6.23917L6.01841 5.61222L7.94835 1.70328L7.99083 1.62418ZM7.28843 6.43107C7.139 6.73386 6.86713 6.95485 6.54576 7.04264L6.40513 7.07193L2.5775 7.62784L5.34751 10.3283C5.62367 10.5975 5.74953 10.9852 5.68443 11.3654L5.03038 15.1776L8.45445 13.3781L8.58482 13.3188C8.85198 13.2177 9.14749 13.2177 9.41465 13.3188L9.54502 13.3781L12.9684 15.1776L12.315 11.3654C12.25 10.9853 12.3758 10.5975 12.652 10.3283L15.4212 7.62784L11.5943 7.07193C11.2602 7.02339 10.9656 6.83401 10.7828 6.55558L10.7118 6.43107L8.99937 2.96305L7.28843 6.43107Z" fill="white"/>
</svg>
