<svg width="20" height="20" viewBox="0 0 20 20" fill="none" xmlns="http://www.w3.org/2000/svg">
<path d="M12.7442 6.07757C13.0697 5.75214 13.5972 5.75214 13.9226 6.07757C14.2481 6.40301 14.2481 6.93052 13.9226 7.25596L11.1785 10.0001L13.9226 12.7442L13.9796 12.8077C14.2465 13.135 14.2277 13.6175 13.9226 13.9226C13.6175 14.2277 13.135 14.2465 12.8077 13.9796L12.7442 13.9226L10.0001 11.1785L7.25596 13.9226C6.93052 14.2481 6.40301 14.2481 6.07757 13.9226C5.75214 13.5972 5.75214 13.0697 6.07757 12.7442L8.82171 10.0001L6.07757 7.25596L6.02061 7.19248C5.75365 6.86517 5.77248 6.38267 6.07757 6.07757C6.38267 5.77248 6.86517 5.75365 7.19248 6.02061L7.25596 6.07757L10.0001 8.82171L12.7442 6.07757Z" fill="white"/>
</svg>
