<svg width="90" height="90" viewBox="0 0 90 90" fill="none" xmlns="http://www.w3.org/2000/svg">
<path d="M0 10C0 4.47715 4.47715 0 10 0H80C85.5229 0 90 4.47715 90 10V80C90 85.5229 85.5229 90 80 90H10C4.47715 90 0 85.5229 0 80V10Z" fill="#D9D9D9"/>
<path d="M57.4836 40.9991C57.4833 34.1051 51.8932 28.5164 44.9991 28.5164C38.1053 28.5168 32.5168 34.1053 32.5164 40.9991C32.5164 42.9527 33.2609 45.2303 34.5435 47.6532C35.8131 50.0513 37.5291 52.4427 39.2828 54.5861C41.0313 56.7232 42.7853 58.5752 44.1044 59.8944C44.432 60.222 44.7334 60.5155 44.9991 60.7722C45.2649 60.5155 45.566 60.2222 45.8938 59.8944C47.213 58.5752 48.9686 56.7234 50.7173 54.5861C52.4709 52.4427 54.187 50.0512 55.4565 47.6532C56.7392 45.2304 57.4836 42.9527 57.4836 40.9991ZM47.6832 40.4001C47.6832 38.9184 46.4827 37.7164 45.001 37.7161C43.519 37.7161 42.3169 38.9182 42.3169 40.4001C42.3169 41.8821 43.519 43.0842 45.001 43.0842C46.4826 43.0839 47.6831 41.8819 47.6832 40.4001ZM61.317 40.9991C61.317 43.8453 60.2616 46.7693 58.8444 49.4463C57.4141 52.148 55.5302 54.7573 53.684 57.0138C51.833 59.2761 49.9867 61.2238 48.606 62.6047C47.9146 63.296 47.336 63.8481 46.9289 64.2293C46.7253 64.42 46.5631 64.5694 46.4516 64.6711C46.3961 64.7216 46.3525 64.7601 46.3224 64.7871C46.3074 64.8007 46.2952 64.8115 46.2869 64.8189L46.2738 64.832L44.9991 65.9644L43.7263 64.832L43.7226 64.8283C43.7201 64.8261 43.7155 64.8227 43.7113 64.8189C43.703 64.8115 43.6906 64.8005 43.6758 64.7871C43.6457 64.76 43.602 64.7215 43.5466 64.6711C43.4351 64.5694 43.2748 64.42 43.0712 64.2293C42.6641 63.8481 42.0856 63.2961 41.3941 62.6047C40.0133 61.2238 38.1672 59.2762 36.3161 57.0138C34.4699 54.7573 32.586 52.1481 31.1557 49.4463C29.7384 46.7692 28.6831 43.8454 28.6831 40.9991C28.6835 31.9882 35.9882 24.6835 44.9991 24.6831C54.0103 24.6831 61.3166 31.988 61.317 40.9991ZM51.5165 40.4001C51.5165 43.999 48.5997 46.9172 45.001 46.9176C41.4019 46.9176 38.4836 43.9992 38.4836 40.4001C38.4836 36.8011 41.4019 33.8827 45.001 33.8827C48.5997 33.8831 51.5165 36.8013 51.5165 40.4001Z" fill="white"/>
</svg>
