<svg width="16" height="16" viewBox="0 0 16 16" fill="none" xmlns="http://www.w3.org/2000/svg">
<path d="M15.4114 7.32872C15.7711 7.71236 15.7711 8.28841 15.4114 8.67205C14.2203 9.94259 11.3507 12.5718 8 12.5718C4.64926 12.5718 1.77966 9.94259 0.588576 8.67205C0.228925 8.28841 0.228924 7.71236 0.588575 7.32872C1.77966 6.05818 4.64926 3.42896 8 3.42896C11.3507 3.42896 14.2203 6.05818 15.4114 7.32872Z" fill="#D9D9D9"/>
<path d="M11.4289 7.99962C11.4289 9.89316 9.8939 11.4282 8.00035 11.4282C6.1068 11.4282 4.57178 9.89316 4.57178 7.99962C4.57178 6.10607 6.1068 4.57104 8.00035 4.57104C9.8939 4.57104 11.4289 6.10607 11.4289 7.99962Z" fill="white"/>
<path d="M10 7.99988C10 9.10445 9.10462 9.99988 8.00005 9.99988C6.89548 9.99988 6.00005 9.10445 6.00005 7.99988C6.00005 6.89531 6.89548 5.99988 8.00005 5.99988C9.10462 5.99988 10 6.89531 10 7.99988Z" fill="#D9D9D9"/>
</svg>
