<svg xmlns="http://www.w3.org/2000/svg" width="20" height="20" viewBox="0 0 20 20" fill="none">
<path d="M9.99966 3.45239C13.3905 3.45239 15.6077 5.06129 16.9536 6.6547C17.6216 7.44558 18.0777 8.23395 18.3672 8.8243C18.5122 9.1201 18.6168 9.36875 18.6862 9.54696C18.7209 9.6361 18.7472 9.70797 18.7651 9.75936C18.7741 9.78504 18.7804 9.80601 18.7855 9.82121C18.788 9.82881 18.7904 9.83508 18.792 9.83992C18.7927 9.84231 18.7931 9.84474 18.7936 9.84644L18.7952 9.84969C18.7944 9.8504 18.7672 9.85931 18.0002 10.0995L18.7904 10.3624V10.3632L18.7895 10.3656C18.789 10.3673 18.7879 10.3698 18.7871 10.3722C18.7855 10.3768 18.7839 10.3829 18.7814 10.3901C18.7762 10.405 18.7687 10.4258 18.7594 10.4511C18.7408 10.5017 18.7139 10.5726 18.678 10.6602C18.6064 10.8354 18.4986 11.0796 18.3501 11.3699C18.0539 11.9488 17.5898 12.7204 16.9162 13.4915C15.5585 15.0452 13.339 16.6012 9.98664 16.5465C6.65205 16.4919 4.44422 14.9461 3.08886 13.4223C2.41599 12.6657 1.95184 11.9145 1.65494 11.3512C1.50621 11.0689 1.39811 10.8313 1.32616 10.6611C1.29016 10.5759 1.26272 10.5069 1.24397 10.4576C1.2346 10.433 1.2273 10.4128 1.222 10.3982C1.21939 10.391 1.21713 10.3849 1.21548 10.3803C1.21469 10.378 1.21361 10.3762 1.21304 10.3746C1.21275 10.3737 1.21246 10.3728 1.21223 10.3722V10.3713L1.99999 10.0995C1.24381 9.86273 1.20661 9.85066 1.20491 9.84969V9.84806L1.20572 9.84644C1.20626 9.84473 1.20739 9.84233 1.20816 9.83992C1.20971 9.83511 1.21137 9.82874 1.21386 9.82121C1.21888 9.806 1.22605 9.78507 1.23502 9.75936C1.25293 9.70797 1.27928 9.63607 1.31395 9.54696C1.3833 9.36874 1.48794 9.1201 1.63297 8.8243C1.92241 8.23398 2.37779 7.44553 3.04573 6.6547C4.39159 5.06129 6.60885 3.4525 9.99966 3.45239ZM9.99966 5.11906C7.21137 5.11916 5.4285 6.41735 4.31933 7.73055C3.75995 8.39286 3.37452 9.05795 3.12955 9.55754C3.02568 9.76937 2.94788 9.94982 2.89354 10.0849C2.94893 10.2112 3.02574 10.3785 3.12873 10.574C3.37827 11.0475 3.76998 11.6806 4.33397 12.3147C5.45296 13.5728 7.24559 14.8345 10.0135 14.8798C12.7635 14.9248 14.5446 13.6733 15.6613 12.3953C16.2246 11.7506 16.6163 11.0997 16.8665 10.6106C16.9735 10.4015 17.0523 10.2233 17.1082 10.0906C17.0538 9.95492 16.9759 9.77228 16.8706 9.55754C16.6256 9.05797 16.2402 8.39286 15.6808 7.73055C14.5716 6.4173 12.7881 5.11906 9.99966 5.11906ZM11.1667 10.0247C11.1667 9.43138 10.6656 8.91138 9.99966 8.91138C9.3339 8.91155 8.83349 9.43148 8.83349 10.0247C8.83368 10.6177 9.33403 11.137 9.99966 11.1371C10.6655 11.1371 11.1665 10.6178 11.1667 10.0247ZM1.99999 10.0995L1.21223 10.3705L1.12271 10.1117L1.20491 9.8505L1.99999 10.0995ZM18.8758 10.1069L18.7912 10.3616L18.0002 10.0995L18.7952 9.8505L18.8758 10.1069ZM2.79426 10.3502L2.79507 10.3494V10.3486L2.79426 10.3477V10.3502ZM12.8333 10.0247C12.8331 11.5809 11.5428 12.8038 9.99966 12.8038C8.45671 12.8036 7.16701 11.5807 7.16682 10.0247C7.16682 8.46841 8.4566 7.24488 9.99966 7.24471C11.5429 7.24471 12.8333 8.4683 12.8333 10.0247Z" fill="#62666A"/>
</svg>