<svg width="16" height="16" viewBox="0 0 16 16" fill="none" xmlns="http://www.w3.org/2000/svg">
<path d="M8 2.76172C10.7127 2.76172 12.4864 4.04884 13.5632 5.32357C14.0976 5.95626 14.4624 6.58696 14.694 7.05924C14.81 7.29589 14.8937 7.49481 14.9492 7.63737C14.977 7.70868 14.998 7.76618 15.0124 7.80729C15.0195 7.82784 15.0246 7.84461 15.0286 7.85677C15.0307 7.86285 15.0326 7.86787 15.0339 7.87174C15.0345 7.87365 15.0347 7.8756 15.0352 7.87695L15.0365 7.87956C15.0358 7.88012 15.014 7.88726 14.4004 8.07943L15.0326 8.28971V8.29036L15.0319 8.29232C15.0314 8.29368 15.0306 8.29561 15.0299 8.29753C15.0287 8.30125 15.0274 8.30611 15.0254 8.31185C15.0212 8.32384 15.0153 8.34044 15.0078 8.36068C14.9929 8.40114 14.9714 8.45785 14.9427 8.52799C14.8854 8.66814 14.7991 8.86352 14.6803 9.0957C14.4434 9.55885 14.0721 10.1761 13.5332 10.793C12.4471 12.036 10.6715 13.2808 7.98958 13.237C5.32191 13.1934 3.55564 11.9567 2.47135 10.7376C1.93306 10.1324 1.56174 9.53141 1.32422 9.08073C1.20524 8.85495 1.11876 8.66482 1.0612 8.52865C1.03239 8.46049 1.01045 8.40529 0.995443 8.36589C0.987948 8.3462 0.982106 8.33008 0.977865 8.31836C0.975783 8.3126 0.973969 8.30776 0.972656 8.30404C0.97202 8.30223 0.971159 8.30079 0.970703 8.29948C0.970468 8.2988 0.970239 8.29807 0.970052 8.29753V8.29687L1.60026 8.07943C0.99532 7.88999 0.965554 7.88033 0.964193 7.87956V7.87825L0.964844 7.87695C0.965277 7.87559 0.966178 7.87367 0.966797 7.87174C0.968036 7.86789 0.969363 7.8628 0.971354 7.85677C0.975372 7.84461 0.981112 7.82786 0.988281 7.80729C1.00261 7.76618 1.0237 7.70866 1.05143 7.63737C1.10691 7.4948 1.19062 7.29588 1.30664 7.05924C1.53819 6.58699 1.9025 5.95622 2.43685 5.32357C3.51354 4.04883 5.28735 2.7618 8 2.76172ZM8 4.09505C5.76936 4.09513 4.34307 5.13368 3.45573 6.18424C3.00823 6.71409 2.69989 7.24617 2.50391 7.64583C2.42081 7.8153 2.35857 7.95966 2.3151 8.06771C2.35941 8.16877 2.42086 8.30263 2.50326 8.45898C2.70289 8.83781 3.01626 9.34425 3.46745 9.85156C4.36263 10.858 5.79674 11.8674 8.01107 11.9036C10.2111 11.9396 11.6359 10.9385 12.5293 9.91602C12.9799 9.40025 13.2933 8.87959 13.4935 8.48828C13.579 8.32104 13.6421 8.17841 13.6868 8.07227C13.6433 7.96374 13.581 7.81763 13.4967 7.64583C13.3008 7.24618 12.9924 6.71409 12.5449 6.18424C11.6575 5.13364 10.2308 4.09505 8 4.09505ZM8.93359 8.01953C8.93359 7.54491 8.53274 7.12891 8 7.12891C7.46739 7.12904 7.06706 7.54499 7.06706 8.01953C7.06721 8.49396 7.46749 8.90937 8 8.9095C8.53264 8.9095 8.93344 8.49404 8.93359 8.01953ZM1.60026 8.07943L0.970052 8.29622L0.898438 8.08919L0.964193 7.88021L1.60026 8.07943ZM15.1009 8.08529L15.0332 8.28906L14.4004 8.07943L15.0365 7.88021L15.1009 8.08529ZM2.23568 8.27995L2.23633 8.2793V8.27865L2.23568 8.27799V8.27995ZM10.2669 8.01953C10.2668 9.26449 9.23448 10.2428 8 10.2428C6.76564 10.2427 5.73388 9.2644 5.73372 8.01953C5.73372 6.77453 6.76555 5.79571 8 5.79557C9.23457 5.79557 10.2669 6.77444 10.2669 8.01953Z" fill="#ADADAD"/>
</svg>
