<svg width="20" height="24" viewBox="0 0 20 24" fill="none" xmlns="http://www.w3.org/2000/svg">
<path d="M9.99951 5.45215C13.3904 5.45215 15.6075 7.06105 16.9535 8.65446C17.6215 9.44533 18.0776 10.2337 18.367 10.8241C18.5121 11.1199 18.6167 11.3685 18.686 11.5467C18.7207 11.6359 18.7471 11.7077 18.765 11.7591C18.7739 11.7848 18.7803 11.8058 18.7853 11.821C18.7878 11.8286 18.7903 11.8348 18.7918 11.8397C18.7926 11.8421 18.7929 11.8445 18.7935 11.8462L18.7951 11.8494C18.7943 11.8502 18.7671 11.8591 18 12.0993L18.7902 12.3621V12.363L18.7894 12.3654C18.7888 12.3671 18.7878 12.3695 18.7869 12.3719C18.7854 12.3766 18.7838 12.3826 18.7812 12.3898C18.776 12.4048 18.7686 12.4256 18.7593 12.4508C18.7407 12.5014 18.7137 12.5723 18.6779 12.66C18.6063 12.8352 18.4984 13.0794 18.3499 13.3696C18.0538 13.9486 17.5897 14.7201 16.916 15.4912C15.5584 17.045 13.3389 18.601 9.98649 18.5462C6.6519 18.4917 4.44406 16.9459 3.0887 15.422C2.41583 14.6655 1.95169 13.9143 1.65479 13.3509C1.50606 13.0687 1.39796 12.831 1.32601 12.6608C1.29001 12.5756 1.26257 12.5066 1.24382 12.4574C1.23445 12.4328 1.22714 12.4126 1.22184 12.3979C1.21924 12.3908 1.21697 12.3847 1.21533 12.38C1.21454 12.3778 1.21346 12.376 1.21289 12.3743C1.2126 12.3735 1.21231 12.3726 1.21208 12.3719V12.3711L1.99984 12.0993C1.24366 11.8625 1.20645 11.8504 1.20475 11.8494V11.8478L1.20557 11.8462C1.20611 11.8445 1.20723 11.8421 1.20801 11.8397C1.20956 11.8349 1.21122 11.8285 1.2137 11.821C1.21873 11.8058 1.2259 11.7848 1.23486 11.7591C1.25278 11.7077 1.27913 11.6358 1.3138 11.5467C1.38315 11.3685 1.48779 11.1199 1.63281 10.8241C1.92226 10.2337 2.37764 9.44528 3.04557 8.65446C4.39144 7.06104 6.60869 5.45225 9.99951 5.45215ZM9.99951 7.11882C7.21121 7.11892 5.42835 8.41711 4.31917 9.73031C3.7598 10.3926 3.37437 11.0577 3.12939 11.5573C3.02553 11.7691 2.94773 11.9496 2.89339 12.0846C2.94878 12.211 3.02558 12.3783 3.12858 12.5737C3.37812 13.0473 3.76983 13.6803 4.33382 14.3145C5.45281 15.5725 7.24544 16.8343 10.0133 16.8796C12.7634 16.9245 14.5444 15.6731 15.6611 14.395C16.2244 13.7503 16.6161 13.0995 16.8664 12.6104C16.9733 12.4013 17.0521 12.223 17.1081 12.0903C17.0536 11.9547 16.9757 11.772 16.8704 11.5573C16.6255 11.0577 16.24 10.3926 15.6807 9.73031C14.5714 8.41706 12.788 7.11882 9.99951 7.11882ZM11.1665 12.0244C11.1665 11.4311 10.6654 10.9111 9.99951 10.9111C9.33375 10.9113 8.83333 11.4312 8.83333 12.0244C8.83353 12.6175 9.33387 13.1367 9.99951 13.1369C10.6653 13.1369 11.1663 12.6175 11.1665 12.0244ZM1.99984 12.0993L1.21208 12.3703L1.12256 12.1115L1.20475 11.8503L1.99984 12.0993ZM18.8757 12.1066L18.791 12.3613L18 12.0993L18.7951 11.8503L18.8757 12.1066ZM2.79411 12.3499L2.79492 12.3491V12.3483L2.79411 12.3475V12.3499ZM12.8332 12.0244C12.833 13.5806 11.5426 14.8035 9.99951 14.8035C8.45656 14.8034 7.16686 13.5805 7.16667 12.0244C7.16667 10.4682 8.45644 9.24464 9.99951 9.24447C11.5427 9.24447 12.8332 10.4681 12.8332 12.0244Z" fill="#5D5D5D"/>
</svg>
