<svg width="20" height="20" viewBox="0 0 20 20" fill="none" xmlns="http://www.w3.org/2000/svg">
<path d="M9.99951 3.45215C13.3904 3.45215 15.6075 5.06105 16.9535 6.65446C17.6215 7.44533 18.0776 8.2337 18.367 8.82406C18.5121 9.11986 18.6167 9.36851 18.686 9.54671C18.7207 9.63585 18.7471 9.70773 18.765 9.75911C18.7739 9.7848 18.7803 9.80576 18.7853 9.82096C18.7878 9.82857 18.7903 9.83483 18.7918 9.83968C18.7926 9.84206 18.7929 9.84449 18.7935 9.84619L18.7951 9.84945C18.7943 9.85015 18.7671 9.85907 18 10.0993L18.7902 10.3621V10.363L18.7894 10.3654C18.7888 10.3671 18.7878 10.3695 18.7869 10.3719C18.7854 10.3766 18.7838 10.3826 18.7812 10.3898C18.776 10.4048 18.7686 10.4256 18.7593 10.4508C18.7407 10.5014 18.7137 10.5723 18.6779 10.66C18.6063 10.8352 18.4984 11.0794 18.3499 11.3696C18.0538 11.9486 17.5897 12.7201 16.916 13.4912C15.5584 15.045 13.3389 16.601 9.98649 16.5462C6.6519 16.4917 4.44406 14.9459 3.0887 13.422C2.41583 12.6655 1.95169 11.9143 1.65479 11.3509C1.50606 11.0687 1.39796 10.831 1.32601 10.6608C1.29001 10.5756 1.26257 10.5066 1.24382 10.4574C1.23445 10.4328 1.22714 10.4126 1.22184 10.3979C1.21924 10.3908 1.21697 10.3847 1.21533 10.38C1.21454 10.3778 1.21346 10.376 1.21289 10.3743C1.2126 10.3735 1.21231 10.3726 1.21208 10.3719V10.3711L1.99984 10.0993C1.24366 9.86248 1.20645 9.85042 1.20475 9.84945V9.84782L1.20557 9.84619C1.20611 9.84448 1.20723 9.84209 1.20801 9.83968C1.20956 9.83486 1.21122 9.8285 1.2137 9.82096C1.21873 9.80576 1.2259 9.78482 1.23486 9.75911C1.25278 9.70773 1.27913 9.63582 1.3138 9.54671C1.38315 9.3685 1.48779 9.11986 1.63281 8.82406C1.92226 8.23374 2.37764 7.44528 3.04557 6.65446C4.39144 5.06104 6.60869 3.45225 9.99951 3.45215ZM9.99951 5.11882C7.21121 5.11892 5.42835 6.41711 4.31917 7.73031C3.7598 8.39261 3.37437 9.05771 3.12939 9.55729C3.02553 9.76913 2.94773 9.94957 2.89339 10.0846C2.94878 10.211 3.02558 10.3783 3.12858 10.5737C3.37812 11.0473 3.76983 11.6803 4.33382 12.3145C5.45281 13.5725 7.24544 14.8343 10.0133 14.8796C12.7634 14.9245 14.5444 13.6731 15.6611 12.395C16.2244 11.7503 16.6161 11.0995 16.8664 10.6104C16.9733 10.4013 17.0521 10.223 17.1081 10.0903C17.0536 9.95468 16.9757 9.77203 16.8704 9.55729C16.6255 9.05772 16.24 8.39262 15.6807 7.73031C14.5714 6.41706 12.788 5.11882 9.99951 5.11882ZM11.1665 10.0244C11.1665 9.43114 10.6654 8.91113 9.99951 8.91113C9.33375 8.9113 8.83333 9.43123 8.83333 10.0244C8.83353 10.6175 9.33387 11.1367 9.99951 11.1369C10.6653 11.1369 11.1663 10.6175 11.1665 10.0244ZM1.99984 10.0993L1.21208 10.3703L1.12256 10.1115L1.20475 9.85026L1.99984 10.0993ZM18.8757 10.1066L18.791 10.3613L18 10.0993L18.7951 9.85026L18.8757 10.1066ZM2.79411 10.3499L2.79492 10.3491V10.3483L2.79411 10.3475V10.3499ZM12.8332 10.0244C12.833 11.5806 11.5426 12.8035 9.99951 12.8035C8.45656 12.8034 7.16686 11.5805 7.16667 10.0244C7.16667 8.46817 8.45644 7.24464 9.99951 7.24447C11.5427 7.24447 12.8332 8.46806 12.8332 10.0244Z" fill="black"/>
</svg>
