<svg width="20" height="20" viewBox="0 0 20 20" fill="none" xmlns="http://www.w3.org/2000/svg">
<path d="M1.16699 18V14.9995C1.16723 12.8826 2.88389 11.1665 5.00081 11.1665H10L10.0854 11.1706C10.5057 11.2132 10.8333 11.5683 10.8333 11.9998C10.8333 12.4313 10.5057 12.7865 10.0854 12.8291L10 12.8332H5.00081C3.80432 12.8332 2.83384 13.803 2.83366 14.9995V18C2.83357 18.4602 2.4605 18.8333 2.00033 18.8333C1.54017 18.8333 1.16708 18.4601 1.16699 18ZM14.139 10.5854C14.4753 10.33 14.9571 10.3661 15.2515 10.6815C15.5654 11.0179 15.5472 11.545 15.2108 11.859L14.6134 12.4165H17.9997L18.0843 12.4206C18.5047 12.4631 18.833 12.8182 18.833 13.2498C18.833 13.6814 18.5047 14.0366 18.0843 14.0791L17.9997 14.0832H14.6134L15.2108 14.6406L15.2702 14.7017C15.5484 15.0195 15.5459 15.5027 15.2515 15.8182C14.9571 16.1336 14.4753 16.1697 14.139 15.9142L14.0739 15.8589L11.9312 13.8594C11.7623 13.7018 11.6659 13.4808 11.6659 13.2498C11.6659 13.0189 11.7623 12.7979 11.9312 12.6403L14.0739 10.6408L14.139 10.5854ZM11.167 4.99951C11.1668 3.80315 10.197 2.83335 9.00065 2.83317C7.80414 2.83317 6.83367 3.80304 6.8335 4.99951C6.8335 6.19613 7.80403 7.16667 9.00065 7.16667C10.1971 7.16649 11.167 6.19602 11.167 4.99951ZM12.8337 4.99951C12.8337 7.11649 11.1176 8.83316 9.00065 8.83333C6.88356 8.83333 5.16683 7.1166 5.16683 4.99951C5.16701 2.88257 6.88367 1.1665 9.00065 1.1665C11.1175 1.16668 12.8335 2.88268 12.8337 4.99951Z" fill="#5D5D5D"/>
</svg>
