<svg width="24" height="24" viewBox="0 0 24 24" fill="none" xmlns="http://www.w3.org/2000/svg">
<path d="M6.19775 16.7998C6.19775 16.6895 6.10881 16.5998 5.99854 16.5996H4.59814V19.3994H5.99854C6.10881 19.3992 6.19775 19.3095 6.19775 19.1992V16.7998ZM19.3979 12C19.3979 7.91322 16.0853 4.59982 11.9985 4.59961C7.91163 4.59961 4.59814 7.91309 4.59814 12V14.5996H5.99854C7.21338 14.5998 8.19775 15.5849 8.19775 16.7998V19.1992C8.19775 20.4141 7.21338 21.3992 5.99854 21.3994H3.59814C3.04586 21.3994 2.59814 20.9517 2.59814 20.3994V12C2.59814 6.80852 6.80706 2.59961 11.9985 2.59961C17.1898 2.59982 21.3979 6.80865 21.3979 12V20.3994C21.3979 20.9517 20.9502 21.3994 20.3979 21.3994H17.9985C16.7835 21.3994 15.7983 20.4142 15.7983 19.1992V16.7998C15.7983 15.5848 16.7835 14.5996 17.9985 14.5996H19.3979V12ZM17.7983 19.1992C17.7983 19.3097 17.8881 19.3994 17.9985 19.3994H19.3979V16.5996H17.9985C17.8881 16.5996 17.7983 16.6893 17.7983 16.7998V19.1992Z" fill="#9D9D9D"/>
</svg>
