<svg width="16" height="16" viewBox="0 0 16 16" fill="none" xmlns="http://www.w3.org/2000/svg">
<path d="M11.2056 2.49429C11.719 2.48983 12.2284 2.58763 12.7036 2.78205C13.1788 2.97647 13.6107 3.26405 13.9738 3.6271C14.3367 3.99007 14.6238 4.42159 14.8182 4.89663C15.0126 5.37183 15.1104 5.88126 15.106 6.39468C15.1015 6.90797 14.9947 7.41521 14.7922 7.88686C14.591 8.35506 14.2988 8.77856 13.9334 9.13361L13.9341 9.13426L8.47119 14.5972C8.34618 14.7221 8.17661 14.7925 7.99984 14.7925C7.82309 14.7924 7.65346 14.7221 7.52848 14.5972L2.06624 9.13426C1.34142 8.40921 0.934151 7.42574 0.934082 6.40054C0.934082 5.37529 1.34142 4.39191 2.06624 3.66681C2.79132 2.94199 3.77474 2.53403 4.79997 2.534C5.82519 2.534 6.8086 2.94138 7.53369 3.66616L7.99984 4.13231L8.46663 3.66616C8.82161 3.30091 9.24533 3.00915 9.71338 2.80809C10.185 2.60551 10.6923 2.49878 11.2056 2.49429Z" fill="#D9D9D9"/>
</svg>
