<svg width="28" height="28" viewBox="0 0 28 28" fill="none" xmlns="http://www.w3.org/2000/svg">
<rect x="11.1001" y="14" width="6" height="9" fill="#F9F9F9"/>
<path d="M15.9 16.0447C15.8999 16.0236 15.892 15.9962 15.861 15.9668C15.829 15.9365 15.7776 15.9111 15.7098 15.9111H12.2902C12.2224 15.9111 12.171 15.9365 12.139 15.9668C12.108 15.9962 12.1001 16.0236 12.1 16.0447V21.6H15.9V16.0447ZM17.8 21.6H20.8402C21.3054 21.5999 21.6 21.2527 21.6 20.9237V11.5452C21.6 11.5225 21.5888 11.4827 21.5388 11.4487L14.128 6.43711C14.0542 6.38749 13.9458 6.38749 13.872 6.43711L6.46123 11.4487C6.41121 11.4827 6.40001 11.5225 6.4 11.5452V20.9237C6.4 21.2527 6.69464 21.5999 7.15981 21.6H10.2V16.0447C10.2003 14.8771 11.1816 14.0111 12.2902 14.0111H15.7098C16.8184 14.0111 17.7997 14.8771 17.8 16.0447V21.6ZM23.5 20.9237C23.5 22.3908 22.2636 23.4999 20.8402 23.5H7.15981C5.73636 23.4999 4.5 22.3908 4.5 20.9237V11.5452C4.50001 10.8661 4.84592 10.2471 5.39712 9.87436L12.8069 4.86367C13.5239 4.37878 14.4761 4.37878 15.1931 4.86367L22.6029 9.87436C23.1541 10.2471 23.5 10.8661 23.5 11.5452V20.9237Z" fill="#D9D9D9"/>
<path d="M5.6001 11L13.6001 5.5L21.6001 10L22.6001 13.5L22.1001 22L17.1001 22.5V15H11.6001C11.4334 17.3333 11.1001 22.1 11.1001 22.5C11.1001 22.9 7.76676 22.6667 6.1001 22.5L5.6001 11Z" fill="#D9D9D9"/>
</svg>
