<svg width="18" height="18" viewBox="0 0 18 18" fill="none" xmlns="http://www.w3.org/2000/svg">
<path d="M15 9C15 5.68629 12.3137 3 9 3C5.68629 3 3 5.68629 3 9C3 12.3137 5.68629 15 9 15C12.3137 15 15 12.3137 15 9ZM8.25 12.375V9C8.25 8.58579 8.58579 8.25 9 8.25C9.41421 8.25 9.75 8.58579 9.75 9V12.375C9.75 12.7892 9.41421 13.125 9 13.125C8.58579 13.125 8.25 12.7892 8.25 12.375ZM8.25 6.49878V6.46875C8.25 6.05454 8.58579 5.71875 9 5.71875C9.41421 5.71875 9.75 6.05454 9.75 6.46875V6.49878C9.7498 6.91282 9.41409 7.24878 9 7.24878C8.58591 7.24878 8.2502 6.91282 8.25 6.49878ZM16.5 9C16.5 13.1421 13.1421 16.5 9 16.5C4.85786 16.5 1.5 13.1421 1.5 9C1.5 4.85786 4.85786 1.5 9 1.5C13.1421 1.5 16.5 4.85786 16.5 9Z" fill="#5D5D5D"/>
</svg>
