<svg width="18" height="18" viewBox="0 0 18 18" fill="none" xmlns="http://www.w3.org/2000/svg">
<path d="M12.75 16.2341V16.1667C12.75 15.7525 13.0858 15.4167 13.5 15.4167C13.9142 15.4168 14.25 15.7525 14.25 16.1667V16.2341C14.25 16.6483 13.9142 16.9841 13.5 16.9841C13.0858 16.9841 12.75 16.6483 12.75 16.2341ZM14.5503 12.0095C14.5501 11.4668 14.0954 10.9988 13.5 10.9988C12.9046 10.9988 12.4499 11.4668 12.4497 12.0095C12.4497 12.4237 12.1139 12.7595 11.6997 12.7595C11.2856 12.7594 10.9497 12.4236 10.9497 12.0095C10.9499 10.6075 12.1074 9.49878 13.5 9.49878C14.8926 9.49879 16.0501 10.6075 16.0503 12.0095L16.0466 12.1406C15.9795 13.4372 14.9207 14.4532 13.6296 14.5173L13.5 14.521L13.4231 14.5166C13.0451 14.4781 12.7501 14.1591 12.75 13.771C12.75 13.3568 13.0858 13.021 13.5 13.021L13.6099 13.0151C14.1144 12.9653 14.4958 12.5761 14.5444 12.1106L14.5503 12.0095ZM8.55029 10.0166L8.62646 10.0203C9.00476 10.0586 9.30029 10.3782 9.30029 10.7666C9.30029 11.155 9.00476 11.4746 8.62646 11.5129L8.55029 11.5166H5.84985C5.4357 11.5165 5.09985 11.1808 5.09985 10.7666C5.09985 10.3524 5.4357 10.0167 5.84985 10.0166H8.55029ZM11.25 7.31689L11.3269 7.32056C11.705 7.35907 12 7.67865 12 8.06689C11.9999 8.455 11.7049 8.77399 11.3269 8.8125L11.25 8.81689H5.84985C5.4358 8.81682 5.10001 8.48093 5.09985 8.06689C5.09985 7.65273 5.4357 7.31697 5.84985 7.31689H11.25ZM13.6501 6.71631V3.56689C13.6501 2.987 13.1798 2.5166 12.5999 2.5166H4.5C3.9201 2.5166 3.44971 2.987 3.44971 3.56689V14.3665C3.4497 14.9464 3.9201 15.4167 4.5 15.4167H9L9.07617 15.4204C9.45447 15.4587 9.75 15.7783 9.75 16.1667C9.7499 16.5551 9.45439 16.874 9.07617 16.9124L9 16.9167H4.5C3.09167 16.9167 1.9497 15.7748 1.94971 14.3665V3.56689C1.94972 2.15858 3.09168 1.0166 4.5 1.0166H12.5999C14.0082 1.0166 15.1501 2.15857 15.1501 3.56689V6.71631C15.1501 7.13047 14.8143 7.46622 14.4001 7.46631C13.9859 7.46631 13.6501 7.13052 13.6501 6.71631ZM11.25 4.61646L11.3269 4.62012C11.705 4.65861 11.9999 4.97826 12 5.36646C12 5.7547 11.705 6.07428 11.3269 6.11279L11.25 6.11646H5.84985C5.4357 6.11638 5.09985 5.78062 5.09985 5.36646C5.09993 4.95235 5.43575 4.61653 5.84985 4.61646H11.25Z" fill="white"/>
</svg>
