<svg width="16" height="16" viewBox="0 0 16 16" fill="none" xmlns="http://www.w3.org/2000/svg">
<path d="M7.99982 3.33325C10.9468 3.33325 13.4623 6.12794 14.449 7.39185C14.7311 7.75316 14.7311 8.24635 14.449 8.60767C13.4623 9.87157 10.9468 12.6663 7.99982 12.6663C5.05287 12.6662 2.53733 9.87155 1.5506 8.60767C1.26869 8.24642 1.26869 7.75309 1.5506 7.39185C2.53733 6.12797 5.05287 3.33336 7.99982 3.33325ZM7.99982 4.66626C6.15915 4.6664 4.66707 6.15863 4.66681 7.99927C4.66681 9.84013 6.15899 11.3331 7.99982 11.3333C9.84077 11.3333 11.3338 9.84022 11.3338 7.99927C11.3335 6.15854 9.8406 4.66626 7.99982 4.66626Z" fill="#D9D9D9"/>
<path d="M10 7.99988C10 9.10445 9.10462 9.99988 8.00005 9.99988C6.89548 9.99988 6.00005 9.10445 6.00005 7.99988C6.00005 6.89531 6.89548 5.99988 8.00005 5.99988C9.10462 5.99988 10 6.89531 10 7.99988Z" fill="#D9D9D9"/>
</svg>
