<svg width="90" height="90" viewBox="0 0 90 90" fill="none" xmlns="http://www.w3.org/2000/svg">
<path d="M0 10C0 4.47715 4.47715 0 10 0H80C85.5229 0 90 4.47715 90 10V80C90 85.5229 85.5229 90 80 90H10C4.47715 90 0 85.5229 0 80V10Z" fill="#D9D9D9"/>
<path d="M50.7596 34.659H46.6232H43.8619H39.7255M50.7596 34.659L53.5209 29.1364L50.7596 25H45.2482H39.7255L36.9641 29.1364L39.7255 34.659M50.7596 34.659H39.7255M50.7596 34.659H50.7483C56.6768 37.0034 61.0949 42.4584 61.0949 49.142C61.0949 57.8994 53.9943 65 45.2369 65C36.4795 65 29.3789 57.8994 29.3789 49.142C29.3789 42.4472 33.8647 37.0034 39.7255 34.659" stroke="white" stroke-width="4" stroke-linecap="round" stroke-linejoin="round"/>
</svg>
