<svg width="16" height="16" viewBox="0 0 16 16" fill="none" xmlns="http://www.w3.org/2000/svg">
<path d="M8.66683 3.33203C8.66683 3.15522 8.59654 2.9857 8.47152 2.86068C8.34649 2.73565 8.17697 2.66536 8.00016 2.66536H7.99756C7.98552 3.25068 7.80901 3.82149 7.48258 4.3099L7.48193 4.30924L5.3335 7.5332V12.8112L7.3361 13.3118L7.33675 13.3125L7.41683 13.3268C7.44357 13.3301 7.47056 13.332 7.49756 13.332H10.1759C10.2998 13.3321 10.4215 13.2975 10.5269 13.2324C10.6321 13.1674 10.717 13.0742 10.7723 12.9635L13.1056 8.29687L13.1388 8.21875C13.1668 8.13877 13.1791 8.05391 13.1753 7.96875C13.1702 7.85529 13.136 7.74505 13.0763 7.64844C13.0166 7.55185 12.9333 7.47199 12.8341 7.41667C12.7596 7.37513 12.678 7.34798 12.5939 7.33724L12.5093 7.33203H8.00016C7.63197 7.33203 7.3335 7.03355 7.3335 6.66536C7.3335 6.29717 7.63197 5.9987 8.00016 5.9987H8.66683V3.33203ZM2.66683 11.9987C2.66683 12.1755 2.73712 12.345 2.86214 12.4701C2.98717 12.5951 3.15669 12.6654 3.3335 12.6654H4.00016V7.33203H3.3335C3.15669 7.33203 2.98717 7.40232 2.86214 7.52734C2.73712 7.65237 2.66683 7.82189 2.66683 7.9987V11.9987ZM10.0002 5.9987H12.5093L12.6369 6.0026C12.9335 6.02154 13.2227 6.1067 13.4832 6.25195C13.781 6.41793 14.0312 6.65732 14.2104 6.94727C14.3896 7.23712 14.4919 7.5678 14.5073 7.9082C14.5208 8.20614 14.4673 8.50294 14.3517 8.77669L14.2983 8.89258L11.965 13.5592C11.7989 13.8917 11.5435 14.1712 11.2274 14.3665C10.9507 14.5375 10.6371 14.6385 10.314 14.6608L10.1753 14.6654H7.49756C7.33441 14.6654 7.17075 14.6456 7.01123 14.6055V14.6048L4.5861 13.9987H3.3335C2.80306 13.9987 2.29451 13.7878 1.91943 13.4128C1.54436 13.0377 1.3335 12.5291 1.3335 11.9987V7.9987C1.3335 7.46826 1.54436 6.95971 1.91943 6.58464C2.29451 6.20956 2.80306 5.9987 3.3335 5.9987H4.75407L6.37321 3.56966L6.37386 3.56901L6.44157 3.45964C6.5891 3.19899 6.6668 2.90368 6.66683 2.60221C6.66683 1.90069 7.23549 1.33203 7.93701 1.33203H8.00016C8.5306 1.33203 9.03915 1.5429 9.41422 1.91797C9.7893 2.29304 10.0002 2.8016 10.0002 3.33203V5.9987Z" fill="#D9D9D9"/>
</svg>
