<svg width="16" height="16" viewBox="0 0 16 16" fill="none" xmlns="http://www.w3.org/2000/svg">
<path d="M9.99284 6.16667H12.502L12.6296 6.17057C12.9262 6.18951 13.2154 6.27467 13.4759 6.41992C13.7736 6.5859 14.0239 6.8253 14.2031 7.11524C14.3823 7.40508 14.4846 7.73577 14.5 8.07617C14.5135 8.3741 14.46 8.67091 14.3444 8.94466L14.291 9.06055L11.9577 13.7272C11.7916 14.0596 11.5362 14.3392 11.2201 14.5345C10.9433 14.7055 10.6298 14.8065 10.3066 14.8288L10.168 14.8333H7.49023C7.32709 14.8333 7.16343 14.8136 7.00391 14.7734L4.57878 14.1667H3.32617C2.79574 14.1667 2.28718 13.9558 1.91211 13.5807C1.53704 13.2057 1.32617 12.6971 1.32617 12.1667V8.16667C1.32617 7.63624 1.53704 7.12767 1.91211 6.75261C2.28718 6.37754 2.79574 6.16667 3.32617 6.16667H4.74675L6.36589 3.73763L6.43425 3.6276C6.58178 3.36696 6.65947 3.07165 6.65951 2.77018C6.65951 2.06866 7.22816 1.5 7.92969 1.5H7.99284C8.52327 1.5 9.03183 1.71087 9.4069 2.08594C9.78197 2.46101 9.99284 2.96957 9.99284 3.5V6.16667Z" fill="#98E3BD"/>
<path d="M8.65951 3.5C8.65951 3.32319 8.58922 3.15367 8.46419 3.02865C8.33917 2.90362 8.16965 2.83333 7.99284 2.83333H7.99023C7.9782 3.41865 7.80168 3.98946 7.47526 4.47787L5.32617 7.70117V12.9792L7.32878 13.4798L7.40951 13.4948C7.43625 13.4981 7.46324 13.5 7.49023 13.5H10.1686C10.2925 13.5 10.4142 13.4655 10.5195 13.4004C10.6247 13.3353 10.7096 13.2421 10.765 13.1315L13.0983 8.46484L13.1315 8.38672C13.1595 8.30674 13.1718 8.22188 13.168 8.13672C13.1628 8.02326 13.1287 7.91302 13.069 7.81641C13.0093 7.71982 12.926 7.63996 12.8268 7.58464C12.7523 7.5431 12.6707 7.51595 12.5866 7.50521L12.502 7.5H7.99284C7.62465 7.5 7.32617 7.20152 7.32617 6.83333C7.32617 6.46514 7.62465 6.16667 7.99284 6.16667H8.65951V3.5ZM2.65951 12.1667C2.65951 12.3435 2.72979 12.513 2.85482 12.638C2.97984 12.763 3.14936 12.8333 3.32617 12.8333H3.99284V7.5H3.32617C3.14936 7.5 2.97984 7.57029 2.85482 7.69531C2.72979 7.82034 2.65951 7.98986 2.65951 8.16667V12.1667ZM9.99284 6.16667H12.502L12.6296 6.17057C12.9262 6.18951 13.2154 6.27467 13.4759 6.41992C13.7736 6.5859 14.0239 6.82529 14.2031 7.11524C14.3823 7.40509 14.4846 7.73577 14.5 8.07617C14.5135 8.37411 14.46 8.67091 14.3444 8.94466L14.291 9.06055L11.9577 13.7272C11.7916 14.0596 11.5362 14.3392 11.2201 14.5345C10.9433 14.7055 10.6298 14.8065 10.3066 14.8288L10.168 14.8333H7.49023C7.32709 14.8333 7.16343 14.8136 7.00391 14.7734L4.57878 14.1667H3.32617C2.79574 14.1667 2.28718 13.9558 1.91211 13.5807C1.53704 13.2057 1.32617 12.6971 1.32617 12.1667V8.16667C1.32617 7.63623 1.53704 7.12768 1.91211 6.75261C2.28718 6.37753 2.79574 6.16667 3.32617 6.16667H4.74675L6.36589 3.73763L6.43425 3.6276C6.58178 3.36696 6.65947 3.07165 6.65951 2.77018C6.65951 2.06866 7.22816 1.5 7.92969 1.5H7.99284C8.52327 1.5 9.03183 1.71087 9.4069 2.08594C9.78197 2.46101 9.99284 2.96957 9.99284 3.5V6.16667Z" fill="#0AA874"/>
</svg>
