<svg width="36" height="36" viewBox="0 0 36 36" fill="none" xmlns="http://www.w3.org/2000/svg">
<mask id="path-1-inside-1_6825_90017" fill="white">
<path d="M36 18C36 27.9411 27.9411 36 18 36C8.05887 36 0 27.9411 0 18C0 8.05887 8.05887 0 18 0C27.9411 0 36 8.05887 36 18Z"/>
</mask>
<g clip-path="url(#paint0_angular_6825_90017_clip_path)" data-figma-skip-parse="true" mask="url(#path-1-inside-1_6825_90017)"><g transform="matrix(0 -0.018 0.018 0 18 18)"><foreignObject x="-1291.67" y="-1291.67" width="2583.33" height="2583.33"><div xmlns="http://www.w3.org/1999/xhtml" style="background:conic-gradient(from 90deg,rgba(117, 119, 121, 0) 0deg,rgba(107, 107, 107, 1) 360deg);height:100%;width:100%;opacity:1"></div></foreignObject></g></g><path d="M36 18H30.75C30.75 25.0416 25.0416 30.75 18 30.75V36V41.25C30.8406 41.25 41.25 30.8406 41.25 18H36ZM18 36V30.75C10.9584 30.75 5.25 25.0416 5.25 18H0H-5.25C-5.25 30.8406 5.15938 41.25 18 41.25V36ZM0 18H5.25C5.25 10.9584 10.9584 5.25 18 5.25V0V-5.25C5.15938 -5.25 -5.25 5.15938 -5.25 18H0ZM18 0V5.25C25.0416 5.25 30.75 10.9584 30.75 18H36H41.25C41.25 5.15938 30.8406 -5.25 18 -5.25V0Z" data-figma-gradient-fill="{&#34;type&#34;:&#34;GRADIENT_ANGULAR&#34;,&#34;stops&#34;:[{&#34;color&#34;:{&#34;r&#34;:0.46163028478622437,&#34;g&#34;:0.46797960996627808,&#34;b&#34;:0.47750356793403625,&#34;a&#34;:0.0},&#34;position&#34;:0.0},{&#34;color&#34;:{&#34;r&#34;:0.42125526070594788,&#34;g&#34;:0.42125526070594788,&#34;b&#34;:0.42125526070594788,&#34;a&#34;:1.0},&#34;position&#34;:1.0}],&#34;stopsVar&#34;:[{&#34;color&#34;:{&#34;r&#34;:0.46163028478622437,&#34;g&#34;:0.46797960996627808,&#34;b&#34;:0.47750356793403625,&#34;a&#34;:0.0},&#34;position&#34;:0.0},{&#34;color&#34;:{&#34;r&#34;:0.42125526070594788,&#34;g&#34;:0.42125526070594788,&#34;b&#34;:0.42125526070594788,&#34;a&#34;:1.0},&#34;position&#34;:1.0}],&#34;transform&#34;:{&#34;m00&#34;:-4.2172391474153484e-14,&#34;m01&#34;:36.0,&#34;m02&#34;:4.2172391474153484e-14,&#34;m10&#34;:-36.0,&#34;m11&#34;:-4.6169194362804047e-14,&#34;m12&#34;:36.0},&#34;opacity&#34;:1.0,&#34;blendMode&#34;:&#34;NORMAL&#34;,&#34;visible&#34;:true}" mask="url(#path-1-inside-1_6825_90017)"/>
<defs>
<clipPath id="paint0_angular_6825_90017_clip_path"><path d="M36 18H30.75C30.75 25.0416 25.0416 30.75 18 30.75V36V41.25C30.8406 41.25 41.25 30.8406 41.25 18H36ZM18 36V30.75C10.9584 30.75 5.25 25.0416 5.25 18H0H-5.25C-5.25 30.8406 5.15938 41.25 18 41.25V36ZM0 18H5.25C5.25 10.9584 10.9584 5.25 18 5.25V0V-5.25C5.15938 -5.25 -5.25 5.15938 -5.25 18H0ZM18 0V5.25C25.0416 5.25 30.75 10.9584 30.75 18H36H41.25C41.25 5.15938 30.8406 -5.25 18 -5.25V0Z" mask="url(#path-1-inside-1_6825_90017)"/></clipPath></defs>
</svg>
