<svg width="20" height="20" viewBox="0 0 20 20" fill="none" xmlns="http://www.w3.org/2000/svg">
<path d="M15.2329 9.53328C15.2328 6.38532 12.681 3.83341 9.53304 3.83341C6.38512 3.83348 3.83324 6.38536 3.83317 9.53328C3.83317 12.6813 6.38508 15.2331 9.53304 15.2332C12.6811 15.2332 15.2329 12.6813 15.2329 9.53328ZM11.6668 9.00024C11.6668 7.8783 10.8137 6.95528 9.72103 6.84448L9.49967 6.83309L9.41504 6.82902C8.99464 6.78653 8.66634 6.43136 8.66634 5.99976C8.66652 5.53972 9.03962 5.16651 9.49967 5.16642L9.69743 5.17212C11.7227 5.27496 13.3335 6.94943 13.3335 9.00024C13.3334 9.4603 12.9602 9.8334 12.5002 9.83358C12.04 9.83358 11.6669 9.46041 11.6668 9.00024ZM16.8996 9.53328C16.8996 11.2866 16.2857 12.8957 15.263 14.1606L17.5791 16.401L17.6377 16.4636C17.9099 16.7865 17.8986 17.2693 17.5986 17.5793C17.2986 17.8895 16.8162 17.9166 16.4845 17.655L16.4202 17.5989L14.0749 15.33C12.8232 16.3121 11.2474 16.8998 9.53304 16.8998C5.4646 16.8998 2.1665 13.6017 2.1665 9.53328C2.16657 5.46489 5.46465 2.16682 9.53304 2.16675C13.6015 2.16675 16.8995 5.46485 16.8996 9.53328Z" fill="#5D5D5D"/>
</svg>
