<svg width="28" height="28" viewBox="0 0 28 28" fill="none" xmlns="http://www.w3.org/2000/svg">
<path d="M16.0788 4.83333C16.2165 4.83333 16.2973 4.93846 16.2975 5.03044V6.59245V8.96014C16.2975 9.6449 16.8526 10.2 17.5374 10.2C18.1413 10.2 18.6309 9.71043 18.6309 9.10652V6.59245V5.03044C18.6307 3.6159 17.471 2.5 16.0788 2.5H11.2298C9.83757 2.5 8.67792 3.6159 8.67773 5.03044V6.59245V9.03333C8.67773 9.67766 9.20007 10.2 9.8444 10.2C10.4887 10.2 11.0111 9.67766 11.0111 9.03333V6.59245V5.03044C11.0113 4.93846 11.0921 4.83333 11.2298 4.83333H16.0788Z" fill="#D9D9D9"/>
<path d="M16.2988 6.59375H11.0124H8.67904H5.68945C3.53213 6.59375 1.75224 8.32014 1.75195 10.488L1.75195 18.6729C1.75195 20.8409 3.53195 22.5682 5.68945 22.5682H22.3145C24.472 22.5682 26.252 20.8409 26.252 18.6729V10.488C26.2517 8.32014 24.4718 6.59375 22.3145 6.59375L18.6322 6.59375H16.2988Z" fill="#D9D9D9"/>
<rect x="8.19233" y="22.3115" width="0.423879" height="15.2639" transform="rotate(-180 8.19233 22.3115)" fill="white" stroke="white" stroke-width="0.416121"/>
<rect x="19.3915" y="22.3115" width="0.423879" height="15.2639" transform="rotate(-180 19.3915 22.3115)" fill="url(#paint0_linear_6394_61578)" fill-opacity="0.9" stroke="white" stroke-width="0.416121"/>
<defs>
<linearGradient id="paint0_linear_6394_61578" x1="19.7756" y1="27.0636" x2="21.1173" y2="27.0828" gradientUnits="userSpaceOnUse">
<stop stop-color="white"/>
<stop offset="1" stop-color="white" stop-opacity="0"/>
</linearGradient>
</defs>
</svg>
