<svg width="20" height="20" viewBox="0 0 20 20" fill="none" xmlns="http://www.w3.org/2000/svg">
<path d="M16.6635 6.22794C16.6363 6.25365 16.6077 6.27874 16.5764 6.30116L11.0177 10.2921C10.4063 10.731 9.59005 10.731 8.97868 10.2921L3.4199 6.30116L3.35318 6.24746C3.34611 6.24121 3.33965 6.23438 3.33284 6.22794V13.8867C3.33298 14.5289 3.82749 14.9973 4.3743 14.9973H15.622C16.1689 14.9973 16.6634 14.5289 16.6635 13.8867V6.22794ZM9.95017 8.93817C9.96753 8.95063 9.98413 8.95526 9.99817 8.95526C10.0122 8.95526 10.0288 8.95063 10.0462 8.93817L15.5325 4.99934H4.4638L9.95017 8.93817ZM18.3298 13.8867C18.3297 15.3916 17.1457 16.6637 15.622 16.6637H4.3743C2.85062 16.6637 1.66665 15.3916 1.6665 13.8867V6.10996C1.66665 4.60508 2.85062 3.33301 4.3743 3.33301H15.622C17.1457 3.33301 18.3297 4.60508 18.3298 6.10996V13.8867Z" fill="white"/>
</svg>
