<svg width="21" height="20" viewBox="0 0 21 20" fill="none" xmlns="http://www.w3.org/2000/svg">
<path d="M16.1248 3.3335C17.66 3.3335 18.833 4.63026 18.8332 6.13949V13.8608C18.833 15.3701 17.66 16.6668 16.1248 16.6668H4.87484C3.33968 16.6668 2.1667 15.3701 2.1665 13.8608V6.13949C2.1667 4.63026 3.33968 3.3335 4.87484 3.3335H16.1248ZM9.16032 10.5641L5.08561 15.0002H16.1248C16.1716 15.0002 16.218 14.9949 16.264 14.988L11.8638 10.5894L11.8581 10.5828L11.0093 11.2388C10.7012 11.4765 10.2693 11.4695 9.96924 11.2217L9.1652 10.5568C9.16328 10.5589 9.16227 10.562 9.16032 10.5641ZM13.1878 9.55664L17.1665 13.5329V6.48698L13.1878 9.55664ZM10.5177 9.51188L16.334 5.02376C16.2655 5.00808 16.1954 5.00016 16.1248 5.00016H5.05957L10.5177 9.51188ZM3.8348 13.8975L7.87939 9.49316L3.83317 6.14762V13.8608C3.83317 13.8731 3.83446 13.8853 3.8348 13.8975Z" fill="#5D5D5D"/>
</svg>
