<svg xmlns="http://www.w3.org/2000/svg" width="20" height="20" viewBox="0 0 20 20" fill="none">
<path d="M16.6667 14.1667C17.1269 14.1667 17.5 14.5398 17.5 15.0001C17.5 15.4603 17.1269 15.8334 16.6667 15.8334H3.33333C2.8731 15.8334 2.5 15.4603 2.5 15.0001C2.5 14.5398 2.8731 14.1667 3.33333 14.1667H16.6667ZM16.6667 9.16675C17.1269 9.16675 17.5 9.53984 17.5 10.0001C17.5 10.4603 17.1269 10.8334 16.6667 10.8334H3.33333C2.8731 10.8334 2.5 10.4603 2.5 10.0001C2.5 9.53984 2.8731 9.16675 3.33333 9.16675H16.6667ZM16.6667 4.16675C17.1269 4.16675 17.5 4.53984 17.5 5.00008C17.5 5.46032 17.1269 5.83341 16.6667 5.83341H3.33333C2.8731 5.83341 2.5 5.46032 2.5 5.00008C2.5 4.53984 2.8731 4.16675 3.33333 4.16675H16.6667Z" fill="#62666A"/>
</svg>