<svg width="20" height="20" viewBox="0 0 20 20" fill="none" xmlns="http://www.w3.org/2000/svg">
<path d="M16.6649 9.9974C16.6649 6.31542 13.6805 3.33073 9.99902 3.33073C6.31764 3.33078 3.33317 6.31546 3.33317 9.9974C3.33317 13.6793 6.31764 16.664 9.99902 16.6641C11.1857 16.6641 12.298 16.3547 13.2616 15.8128L13.3324 15.777C13.5013 15.7022 13.6912 15.6855 13.8719 15.7306L16.4989 16.3874L16.0366 13.1452C16.0146 12.9907 16.0362 12.833 16.0993 12.6903C16.4628 11.8679 16.6649 10.9573 16.6649 9.9974ZM9.16569 12.8099V9.9974C9.16569 9.53719 9.53883 9.16412 9.99902 9.16406C10.4593 9.16406 10.8324 9.53716 10.8324 9.9974V12.8099C10.8324 13.2701 10.4593 13.6432 9.99902 13.6432C9.53883 13.6432 9.16569 13.2701 9.16569 12.8099ZM9.16569 7.2557V7.1849C9.16569 6.72469 9.53883 6.35162 9.99902 6.35156C10.4593 6.35156 10.8324 6.72466 10.8324 7.1849V7.2557C10.8322 7.71579 10.4592 8.08903 9.99902 8.08903C9.53894 8.08897 9.16586 7.71576 9.16569 7.2557ZM18.3315 9.9974C18.3315 11.1058 18.1121 12.1644 17.7179 13.1338L18.325 17.3786C18.3643 17.6533 18.2642 17.9301 18.0581 18.1159C17.8522 18.3016 17.567 18.3726 17.298 18.3055L13.7775 17.425C12.6425 18.0035 11.358 18.3307 9.99902 18.3307C5.39702 18.3307 1.6665 14.5997 1.6665 9.9974C1.6665 5.39513 5.39702 1.66412 9.99902 1.66406C14.6011 1.66406 18.3315 5.3951 18.3315 9.9974Z" fill="#5D5D5D"/>
</svg>
