<svg width="24" height="24" viewBox="0 0 24 24" fill="none" xmlns="http://www.w3.org/2000/svg">
<path d="M19.9985 11.999C19.9985 7.58066 16.4172 3.99902 11.9995 3.99902C7.58185 3.99909 4.00049 7.5807 4.00049 11.999C4.00049 16.4173 7.58185 19.999 11.9995 19.999C13.4235 19.999 14.7583 19.6278 15.9146 18.9775L15.9995 18.9346C16.2023 18.8448 16.4301 18.8247 16.647 18.8789L19.7993 19.667L19.2446 15.7764C19.2182 15.591 19.2442 15.4017 19.3198 15.2305C19.7561 14.2436 19.9985 13.1509 19.9985 11.999ZM6.50049 12.084V11.999C6.50049 11.4467 6.9482 10.999 7.50049 10.999C8.05258 10.9993 8.50049 11.4469 8.50049 11.999V12.084C8.50029 12.636 8.05246 13.0838 7.50049 13.084C6.94833 13.084 6.50069 12.6361 6.50049 12.084ZM10.9995 12.084V11.999C10.9995 11.4468 11.4473 10.9991 11.9995 10.999C12.5518 10.999 12.9995 11.4467 12.9995 11.999V12.084C12.9993 12.6361 12.5517 13.084 11.9995 13.084C11.4474 13.0839 10.9997 12.6361 10.9995 12.084ZM15.4995 12.084V11.999C15.4995 11.4467 15.9472 10.999 16.4995 10.999C17.0517 10.9992 17.4995 11.4468 17.4995 11.999V12.084C17.4993 12.636 17.0515 13.0838 16.4995 13.084C15.9474 13.084 15.4997 12.6361 15.4995 12.084ZM21.9985 11.999C21.9985 13.3291 21.7352 14.5994 21.2622 15.7627L21.9907 20.8564C22.0378 21.1861 21.9177 21.5182 21.6704 21.7412C21.4233 21.964 21.0811 22.0493 20.7583 21.9688L16.5337 20.9121C15.1717 21.6063 13.6303 21.999 11.9995 21.999C6.4771 21.999 2.00049 17.5217 2.00049 11.999C2.00049 6.47631 6.4771 1.99909 11.9995 1.99902C17.522 1.99902 21.9985 6.47627 21.9985 11.999Z" fill="#9D9D9D"/>
</svg>
