<svg width="32" height="32" viewBox="0 0 32 32" fill="none" xmlns="http://www.w3.org/2000/svg">
<path d="M19.5247 5.25617C20.6763 4.31627 22.3748 4.38237 23.4492 5.45539L26.2096 8.2132C27.3559 9.35826 27.3574 11.2155 26.2122 12.3616L13.1796 25.4007C12.7711 25.8092 12.2512 26.0887 11.6848 26.2028L5.86323 27.3747C5.4257 27.4628 4.97314 27.3269 4.6575 27.0114C4.34185 26.6956 4.20456 26.242 4.29291 25.8044L5.46869 19.9892L5.51948 19.7796C5.65489 19.2962 5.91164 18.8539 6.26817 18.4971L19.302 5.45669L19.5247 5.25617ZM21.565 7.34211C21.4609 7.23805 21.2915 7.23796 21.1874 7.34211L8.15489 20.3825C8.11791 20.4195 8.09235 20.4666 8.08198 20.5179L7.30463 24.3642L11.1588 23.5882C11.2101 23.5777 11.2572 23.5523 11.2942 23.5153L24.3255 10.4762C24.4165 10.3851 24.4277 10.245 24.3593 10.1416L24.3255 10.0999L21.565 7.34211Z" fill="white"/>
</svg>
