<svg width="20" height="20" viewBox="0 0 20 20" fill="none" xmlns="http://www.w3.org/2000/svg">
<path d="M5.13541 1.69938C5.65278 1.737 6.01218 2.04263 6.17545 2.20557C6.17735 2.20746 6.17925 2.20937 6.18115 2.21126C6.4245 2.43895 6.65374 2.67111 6.88346 2.90788L7.05843 3.0861C7.11589 3.14434 7.17595 3.206 7.23665 3.26839L8.27832 4.30762C8.55967 4.5884 8.82671 4.98263 8.82682 5.48763C8.82682 5.99278 8.55973 6.38762 8.27832 6.66846C8.18228 6.7643 8.05651 6.8937 7.93977 7.00618C7.87354 7.07391 7.82887 7.11991 7.80468 7.14453C7.78284 7.16677 7.74296 7.20794 7.69319 7.2487C7.68283 7.25718 7.67402 7.26398 7.66959 7.26742C7.66258 7.27286 7.66468 7.27141 7.66145 7.27393C7.66028 7.27484 7.6573 7.27754 7.65088 7.28288C7.63498 7.29608 7.6001 7.32488 7.53043 7.38704C7.53143 7.39057 7.53246 7.39437 7.53369 7.39844C7.76484 7.95117 8.09471 8.49346 8.62988 9.17334C8.63239 9.17633 8.63555 9.17926 8.63802 9.18229C9.51727 10.2632 10.4268 11.1216 11.4025 11.8003L11.8249 12.0802L11.8257 12.0811L12.008 12.186C12.0728 12.2205 12.1433 12.2558 12.222 12.2951C12.342 12.3549 12.4947 12.4312 12.6362 12.5164C12.6378 12.5149 12.6406 12.5137 12.6427 12.5116L13.3906 11.7653C13.5579 11.5984 13.9696 11.2356 14.5552 11.2355L14.6626 11.2396C15.1691 11.2776 15.525 11.5784 15.701 11.7653L17.8014 13.8608L17.8909 13.9577C18.3061 14.4523 18.2377 15.0708 18.1831 15.3534C18.1477 15.5364 18.0956 15.6949 18.0545 15.805C18.0336 15.8612 18.0149 15.9082 18 15.9425C17.9925 15.9597 17.9856 15.9738 17.9805 15.9849C17.9779 15.9904 17.9758 15.9955 17.974 15.9995C17.9731 16.0013 17.9722 16.0029 17.9715 16.0044C17.9711 16.0052 17.9702 16.0062 17.9699 16.0068V16.0085L17.2196 15.6455L17.9691 16.0085C17.9483 16.0514 17.9243 16.0928 17.8966 16.1313L17.8031 16.2404C17.8026 16.2408 17.8015 16.242 17.8006 16.2428C17.7989 16.2446 17.7958 16.2469 17.7925 16.2502C17.7855 16.257 17.7755 16.2673 17.7624 16.2803C17.7359 16.3064 17.6975 16.344 17.6509 16.3901C17.5575 16.4825 17.4306 16.6083 17.2969 16.7425C17.0165 17.0238 16.7436 17.3041 16.6515 17.4123C16.6431 17.4222 16.6344 17.432 16.6255 17.4416C16.0756 18.0284 15.3975 18.3107 14.582 18.3107C14.5303 18.3107 14.4412 18.3109 14.3517 18.305V18.3042C13.0521 18.2208 11.8795 17.7199 11.0713 17.3341L11.0672 17.3325C8.79905 16.2367 6.80851 14.6818 5.1582 12.7158L5.15576 12.7126C3.80785 11.0913 2.88385 9.56405 2.26839 7.90544L2.13574 7.53027C1.8493 6.67009 1.72893 5.91234 1.79069 5.16048L1.7915 5.15804L1.82161 4.92122C1.91389 4.37965 2.16056 3.90601 2.55973 3.50765L3.861 2.20882L3.87972 2.19092C4.16222 1.92626 4.55454 1.69535 5.02962 1.69531L5.13541 1.69938ZM3.73649 4.68766C3.56025 4.86361 3.47358 5.04834 3.45166 5.29639L3.45247 5.2972C3.41404 5.76506 3.47976 6.29142 3.71696 7.00374L3.82926 7.32113L3.83007 7.32357L3.93424 7.59375C4.47066 8.94191 5.26052 10.2308 6.43505 11.644L6.71989 11.9753C8.16227 13.6069 9.86679 14.901 11.7891 15.8302L12.0853 15.9686C12.7939 16.2892 13.6143 16.5884 14.46 16.6424H14.4616L14.582 16.644C14.9572 16.644 15.1879 16.5379 15.4089 16.3022C15.564 16.1253 15.8699 15.8135 16.1169 15.5658C16.2538 15.4284 16.3832 15.3001 16.4782 15.2061C16.4887 15.1956 16.4986 15.1847 16.5083 15.1751C16.5225 15.1324 16.5373 15.0846 16.5465 15.0368C16.5514 15.0117 16.553 14.9896 16.5547 14.9709L14.5454 12.9657L13.8195 13.6916C13.7391 13.7718 13.3286 14.1978 12.6509 14.1978C12.3795 14.1977 12.1309 14.1292 11.9014 14.0146C11.8736 14.0008 11.8511 13.988 11.8371 13.9797L11.8143 13.9658L11.855 13.9878L11.7882 13.9512C11.7165 13.9067 11.6237 13.859 11.4774 13.786C11.3297 13.7123 11.1321 13.6148 10.9346 13.4897V13.4889C9.62254 12.6607 8.44622 11.5877 7.34489 10.2337V10.2329C7.34136 10.2286 7.33694 10.2251 7.33349 10.2207C6.72183 9.44564 6.29378 8.76175 5.98502 8.0153C5.97761 7.99738 5.97082 7.97916 5.96468 7.96077C5.96278 7.95509 5.96007 7.94937 5.95817 7.94368L5.9484 7.91439C5.90178 7.76707 5.82877 7.49818 5.86621 7.17546C5.90451 6.84602 6.04975 6.52808 6.31461 6.24854C6.33584 6.22389 6.35702 6.20541 6.37321 6.18994L6.37239 6.18913C6.38494 6.17662 6.39614 6.16601 6.40494 6.1582L6.58561 6.00033C6.59802 5.99002 6.60871 5.98103 6.61816 5.97347C6.64513 5.94598 6.68451 5.90645 6.76627 5.82292L7.10074 5.48844V5.48763L6.05908 4.44759C6.0561 4.44462 6.05306 4.44166 6.05013 4.43864C5.99167 4.37848 5.93284 4.31893 5.8719 4.25716C5.81171 4.19615 5.74903 4.1329 5.68717 4.06917V4.06836C5.45617 3.83028 5.24693 3.61842 5.03043 3.4165C5.02692 3.41323 5.02331 3.40926 5.01985 3.40592L3.73649 4.68766ZM12.6916 12.549C12.6903 12.5482 12.6886 12.5469 12.6867 12.5457C12.6856 12.5451 12.6842 12.5442 12.6826 12.5433C12.687 12.546 12.6905 12.5483 12.6916 12.549ZM7.55485 7.35856C7.56709 7.34532 7.58021 7.33017 7.59391 7.31299C7.58148 7.32873 7.5684 7.34373 7.55485 7.35856ZM7.62239 7.27718C7.64419 7.24648 7.66663 7.2114 7.68668 7.17139C7.66813 7.20841 7.64615 7.24343 7.62239 7.27718Z" fill="#009E53"/>
</svg>
