<svg width="18" height="18" viewBox="0 0 18 18" fill="none" xmlns="http://www.w3.org/2000/svg">
<path d="M14.0945 3.49243C14.0407 2.96298 13.5937 2.5498 13.05 2.5498H4.9502C4.3703 2.5498 3.89991 3.0202 3.8999 3.6001V14.3997C3.8999 14.9796 4.3703 15.45 4.9502 15.45H13.05C13.5936 15.4499 14.0406 15.0367 14.0945 14.5073L14.0996 14.3997L14.1003 3.6001L14.0945 3.49243ZM9.00049 10.0498L9.07666 10.0535C9.45496 10.0918 9.75049 10.4114 9.75049 10.7998C9.75049 11.1882 9.45496 11.5078 9.07666 11.5461L9.00049 11.5498H6.30005C5.8859 11.5497 5.55005 11.214 5.55005 10.7998C5.55005 10.3856 5.8859 10.0499 6.30005 10.0498H9.00049ZM11.7002 7.3501L11.7771 7.35376C12.1552 7.39228 12.4502 7.71185 12.4502 8.1001C12.45 8.4882 12.1551 8.80719 11.7771 8.8457L11.7002 8.8501H6.30005C5.886 8.85003 5.55021 8.51413 5.55005 8.1001C5.55005 7.68593 5.8859 7.35017 6.30005 7.3501H11.7002ZM11.7002 4.64966L11.7771 4.65332C12.1552 4.69181 12.4501 5.01147 12.4502 5.39966C12.4502 5.78791 12.1552 6.10749 11.7771 6.146L11.7002 6.14966H6.30005C5.8859 6.14959 5.55005 5.81383 5.55005 5.39966C5.55013 4.98556 5.88595 4.64973 6.30005 4.64966H11.7002ZM15.5996 14.3997L15.5967 14.5308C15.5285 15.8782 14.4144 16.9499 13.05 16.95H4.9502C3.54187 16.9499 2.39989 15.808 2.3999 14.3997V3.6001C2.39991 2.19178 3.54187 1.0498 4.9502 1.0498H13.05C14.4584 1.0498 15.6004 2.19175 15.6003 3.6001L15.5996 14.3997Z" fill="white"/>
</svg>
