<svg width="18" height="18" viewBox="0 0 18 18" fill="none" xmlns="http://www.w3.org/2000/svg">
<path d="M15.45 3.60107C15.45 3.02118 14.9796 2.55078 14.3997 2.55078H3.6001C3.0202 2.55078 2.5498 3.02117 2.5498 3.60107V10.644C2.5498 11.2239 3.0202 11.6943 3.6001 11.6943H5.00854C5.42274 11.6944 5.75854 12.0301 5.75854 12.4443V14.3904L8.23486 11.9141L8.28979 11.8643C8.42326 11.7549 8.59108 11.6943 8.76514 11.6943H14.3997C14.9796 11.6943 15.45 11.2239 15.45 10.644V3.60107ZM8.24951 9.90063V9.83325C8.24951 9.41914 8.58543 9.08341 8.99951 9.08325C9.41373 9.08325 9.74951 9.41904 9.74951 9.83325V9.90063C9.74951 10.3148 9.41373 10.6506 8.99951 10.6506C8.58543 10.6505 8.24951 10.3148 8.24951 9.90063ZM8.24951 7.20093V4.50049C8.24967 4.08651 8.58553 3.75065 8.99951 3.75049C9.41363 3.75049 9.74935 4.08641 9.74951 4.50049V7.20093C9.74943 7.61507 9.41368 7.95093 8.99951 7.95093C8.58548 7.95077 8.24959 7.61498 8.24951 7.20093ZM16.95 10.644C16.95 12.0524 15.808 13.1943 14.3997 13.1943H9.07568L5.53882 16.7312C5.32432 16.9457 5.00167 17.0099 4.72144 16.8938C4.44123 16.7777 4.2586 16.5042 4.25854 16.2009V13.1943H3.6001C2.19177 13.1943 1.0498 12.0524 1.0498 10.644V3.60107C1.0498 2.19275 2.19177 1.05078 3.6001 1.05078H14.3997C15.808 1.05078 16.95 2.19275 16.95 3.60107V10.644Z" fill="white"/>
</svg>
