<svg width="32" height="32" viewBox="0 0 32 32" fill="none" xmlns="http://www.w3.org/2000/svg">
<path d="M14.6664 26.6667V8.44402L7.5857 15.1875L7.48284 15.2774C6.94888 15.6915 6.17637 15.6418 5.70029 15.1419C5.19266 14.6087 5.214 13.7643 5.74716 13.2565L15.0805 4.3672L15.1795 4.28126C15.6944 3.87891 16.4362 3.90778 16.919 4.3672L26.2524 13.2565L26.3461 13.3555C26.7862 13.8685 26.7753 14.6419 26.2992 15.1419C25.8232 15.6418 25.0506 15.6915 24.5167 15.2774L24.4138 15.1875L17.3331 8.44402V26.6667C17.3331 27.4031 16.7361 28 15.9998 28C15.2634 28 14.6664 27.4031 14.6664 26.6667Z" fill="#009E53"/>
</svg>
