<svg width="20" height="20" viewBox="0 0 20 20" fill="none" xmlns="http://www.w3.org/2000/svg">
<path d="M9.20019 16.6667V5.27754L4.77473 9.49222L4.71044 9.54838C4.37672 9.80724 3.8939 9.77617 3.59634 9.46374C3.27908 9.13046 3.29241 8.60272 3.62564 8.28536L9.45897 2.72953L9.52082 2.67582C9.84266 2.42435 10.3063 2.44239 10.6081 2.72953L16.4414 8.28536L16.5 8.3472C16.775 8.66786 16.7682 9.15121 16.4707 9.46374C16.1731 9.77617 15.6903 9.80724 15.3566 9.54838L15.2923 9.49222L10.8669 5.27754V16.6667C10.8669 17.1269 10.4938 17.5 10.0335 17.5C9.57328 17.5 9.20019 17.1269 9.20019 16.6667Z" fill="white"/>
</svg>
