<svg width="24" height="24" viewBox="0 0 24 24" fill="none" xmlns="http://www.w3.org/2000/svg">
<path d="M9.42514 3.82788C10.271 1.30929 13.9934 1.39357 14.6478 4.07983V4.08178L14.6722 4.16284C14.7018 4.24263 14.7455 4.3166 14.8011 4.38159C14.8752 4.4681 14.9684 4.53624 15.0736 4.57983C15.1788 4.6234 15.293 4.64138 15.4066 4.63257C15.5202 4.62372 15.6306 4.58841 15.7279 4.52905L15.9574 4.4021C18.3369 3.21662 20.9116 5.90945 19.472 8.27221L19.471 8.27319C19.4119 8.37033 19.3764 8.48009 19.3675 8.5935C19.3587 8.70708 19.3767 8.82125 19.4203 8.92651C19.4638 9.03171 19.532 9.1249 19.6185 9.19897C19.705 9.27302 19.8077 9.32642 19.9183 9.35327L20.1712 9.42553C22.6927 10.2694 22.606 13.9949 19.9193 14.6472V14.6462C19.8086 14.6732 19.706 14.7264 19.6195 14.8005C19.5329 14.8747 19.4649 14.9686 19.4212 15.074C19.3777 15.1792 19.3597 15.2934 19.3685 15.407C19.3773 15.5203 19.412 15.6302 19.471 15.7273H19.472C20.9117 18.09 18.3369 20.7835 15.9574 19.5984L15.7279 19.4714C15.6307 19.4123 15.521 19.3767 15.4076 19.3679C15.294 19.3591 15.1798 19.3772 15.0746 19.4207C14.9692 19.4643 14.8753 19.5323 14.8011 19.6189C14.7274 19.7049 14.6739 19.8067 14.6468 19.9167L14.6478 19.9177C13.9753 22.6947 10.0274 22.692 9.35385 19.9187L9.35288 19.9177C9.32602 19.8072 9.27355 19.7044 9.19956 19.6179C9.12549 19.5314 9.03229 19.4632 8.9271 19.4197C8.82187 19.3761 8.70763 19.3581 8.59409 19.3669C8.48048 19.3758 8.37006 19.4111 8.2728 19.4705V19.4714C5.83404 20.9574 3.04256 18.1662 4.52866 15.7273H4.52963L4.56967 15.6521C4.60514 15.5748 4.62652 15.4912 4.63315 15.406C4.64194 15.2925 4.62397 15.1782 4.58042 15.073C4.53683 14.9678 4.46867 14.8746 4.38217 14.8005C4.31722 14.7449 4.24317 14.7012 4.16342 14.6716L4.08237 14.6472C1.30537 13.9748 1.30801 10.0268 4.08139 9.35327L4.16733 9.32593C4.55596 9.17947 4.74256 8.73032 4.57163 8.35229L4.52866 8.27221C3.04283 5.83362 5.83327 3.04314 8.27182 4.52807H8.2728C8.37003 4.58729 8.4796 4.62282 8.59311 4.63159C8.70669 4.64035 8.8209 4.62249 8.92612 4.57885C9.03129 4.53522 9.12457 4.46714 9.19858 4.38061C9.27256 4.29408 9.32511 4.19145 9.3519 4.08081L9.35288 4.07983L9.42514 3.82788ZM12.6976 4.52905C12.5015 3.8165 11.4742 3.8233 11.2953 4.55053L11.2962 4.55151C11.1954 4.96817 10.9968 5.35463 10.7181 5.68042C10.4394 6.00626 10.0878 6.26227 9.69174 6.42651C9.29592 6.59059 8.86701 6.65862 8.43979 6.62573C8.01232 6.59275 7.59795 6.46009 7.23178 6.23706V6.23608C6.5836 5.84144 5.84214 6.58317 6.23667 7.2312L6.32163 7.38061C7.14267 8.9336 6.28944 10.8746 4.55405 11.2966H4.55307C3.81464 11.4762 3.81789 12.5249 4.55307 12.7029L4.70737 12.7458C5.06528 12.8552 5.39776 13.0369 5.68295 13.281C6.00874 13.5599 6.264 13.9121 6.42807 14.3083C6.59208 14.7045 6.66053 15.1338 6.62729 15.5613C6.59401 15.9889 6.4601 16.4032 6.23667 16.7693C5.84296 17.417 6.58293 18.1572 7.23081 17.7634L7.37045 17.6843C7.70084 17.5085 8.06453 17.4019 8.43881 17.3728C8.86629 17.3395 9.29558 17.408 9.69174 17.572C10.088 17.7361 10.4402 17.9914 10.7191 18.3171C10.998 18.6429 11.1962 19.0302 11.2972 19.447L11.3402 19.5769C11.6041 20.1823 12.5366 20.1362 12.7035 19.447V19.446C12.8048 19.0296 13.0037 18.6426 13.2826 18.3171C13.5614 17.9918 13.9131 17.7369 14.3089 17.573C14.705 17.409 15.1345 17.3407 15.5619 17.3738C15.9892 17.4069 16.4029 17.5405 16.7689 17.7634L16.891 17.824C17.4645 18.0499 18.0504 17.4638 17.8246 16.8904L17.764 16.7683C17.5411 16.4023 17.4075 15.9886 17.3744 15.5613C17.3413 15.1339 17.4096 14.7044 17.5736 14.3083C17.7375 13.9125 17.9924 13.5608 18.3177 13.282C18.6432 13.0032 19.0302 12.8052 19.4466 12.7039L19.4476 12.7029L19.5775 12.6599C20.1424 12.4136 20.1404 11.5848 19.5775 11.3396L19.4476 11.2966C19.0308 11.1956 18.6435 10.9974 18.3177 10.7185C17.992 10.4396 17.7367 10.0873 17.5726 9.69116C17.4086 9.295 17.3401 8.86569 17.3734 8.43823C17.4067 8.01076 17.5407 7.59721 17.764 7.2312L17.8246 7.10913C18.0662 6.49519 17.3766 5.86562 16.7689 6.23511L16.7699 6.23608C16.4038 6.45951 15.9895 6.59342 15.5619 6.62671C15.1343 6.65997 14.7051 6.59151 14.3089 6.42749C13.9127 6.2634 13.5605 6.0082 13.2816 5.68237C13.0027 5.35653 12.8045 4.96934 12.7035 4.55249L12.6976 4.52905ZM13.0003 11.9998C13.0003 11.4475 12.5526 10.9998 12.0003 10.9998C11.4481 10.9998 11.0003 11.4475 11.0003 11.9998C11.0003 12.552 11.4481 12.9998 12.0003 12.9998C12.5526 12.9998 13.0003 12.552 13.0003 11.9998ZM15.0003 11.9998C15.0003 13.6566 13.6572 14.9998 12.0003 14.9998C10.3435 14.9998 9.00034 13.6566 9.00034 11.9998C9.00034 10.3429 10.3435 8.99975 12.0003 8.99975C13.6572 8.99975 15.0003 10.3429 15.0003 11.9998Z" fill="#5D5D5D"/>
</svg>
