<svg width="24" height="24" viewBox="0 0 24 24" fill="none" xmlns="http://www.w3.org/2000/svg">
<path d="M2.59961 18.9255V15.2204C2.59961 14.6681 3.04732 14.2204 3.59961 14.2204C4.15189 14.2204 4.59961 14.6681 4.59961 15.2204V18.9255C4.59961 19.2246 4.71758 19.5105 4.9248 19.7194C5.13164 19.9279 5.41043 20.0435 5.69922 20.0436H18.2998C18.5886 20.0436 18.8673 19.9279 19.0742 19.7194C19.2814 19.5105 19.3994 19.2246 19.3994 18.9255V15.2204C19.3994 14.6682 19.8472 14.2205 20.3994 14.2204C20.9517 14.2204 21.3994 14.6681 21.3994 15.2204V18.9255C21.3994 19.7496 21.0746 20.5423 20.4941 21.1276C19.9135 21.7129 19.1244 22.0436 18.2998 22.0436H5.69922C4.8746 22.0435 4.08547 21.713 3.50488 21.1276C2.92446 20.5423 2.59961 19.7496 2.59961 18.9255ZM11.043 14.9567V5.29365L7.93359 8.26533L7.24316 7.54169L6.55176 6.81904L11.3525 2.23408L11.4268 2.16865C11.8135 1.8656 12.371 1.88788 12.7334 2.23408L17.5332 6.81904C17.9326 7.20052 17.9479 7.83374 17.5664 8.2331C17.185 8.63232 16.5517 8.64654 16.1523 8.26533L13.043 5.29365V14.9567C13.043 15.509 12.5953 15.9567 12.043 15.9567C11.4907 15.9567 11.043 15.509 11.043 14.9567ZM7.93359 8.26533C7.53425 8.64656 6.90095 8.6323 6.51953 8.2331C6.13817 7.83386 6.15276 7.20056 6.55176 6.81904L7.93359 8.26533Z" fill="#5D5D5D"/>
</svg>
