<svg width="16" height="16" viewBox="0 0 16 16" fill="none" xmlns="http://www.w3.org/2000/svg">
<path d="M7.2456 1.97524C7.5101 1.28269 8.48986 1.28269 8.75436 1.97524L9.9012 4.97809C10.0132 5.27135 10.285 5.47313 10.5982 5.49546L13.74 5.71945C14.4551 5.77043 14.7541 6.65847 14.2156 7.1316L11.739 9.3073C11.514 9.50489 11.4169 9.81071 11.4866 10.1019L12.2626 13.3454C12.433 14.0576 11.6435 14.6107 11.0324 14.2073L8.44485 12.4992C8.17502 12.3211 7.82494 12.3211 7.55511 12.4992L4.96757 14.2073C4.35642 14.6107 3.56694 14.0576 3.73734 13.3454L4.51339 10.1019C4.58306 9.81071 4.48592 9.50489 4.261 9.3073L1.7844 7.1316C1.24584 6.65847 1.54489 5.77043 2.25994 5.71945L5.40181 5.49546C5.71494 5.47313 5.98676 5.27135 6.09876 4.97809L7.2456 1.97524Z" fill="#D9D9D9"/>
</svg>
