<svg width="18" height="18" viewBox="0 0 18 18" fill="none" xmlns="http://www.w3.org/2000/svg">
<g clip-path="url(#clip0_5932_62762)">
<path d="M3.16553 1.48926C3.44919 1.31605 3.81785 1.40383 3.98877 1.68848L4.81201 3.04199H4.81104C4.98533 3.32681 4.89599 3.69329 4.61182 3.86719C4.32767 4.04094 3.95726 3.95183 3.78662 3.66602L2.96436 2.31348C2.7909 2.02938 2.87983 1.65884 3.16553 1.48828V1.48926Z" fill="#FF4242" stroke="#FF4242" stroke-width="0.2"/>
<path d="M9.00049 0.400391C9.33189 0.400617 9.6001 0.668548 9.6001 1V2.53711C9.6001 2.86856 9.33189 3.13649 9.00049 3.13672C8.6689 3.13672 8.40088 2.8687 8.40088 2.53711V1C8.40088 0.668408 8.6689 0.400391 9.00049 0.400391Z" fill="#FF4242" stroke="#FF4242" stroke-width="0.2"/>
<path d="M14.0107 1.68555C14.163 1.4404 14.4619 1.34183 14.7246 1.43457L14.835 1.48633L14.8359 1.4873C15.1161 1.66135 15.2057 2.02638 15.0361 2.31055L15.0352 2.31152L14.2129 3.66504C14.0612 3.90914 13.7626 4.01285 13.499 3.91797L13.3887 3.86426C13.107 3.69339 13.0194 3.32447 13.1885 3.04102V3.04004L14.0107 1.68652V1.68555Z" fill="#FF4242" stroke="#FF4242" stroke-width="0.2"/>
<path d="M11.6719 5.40039C13.1524 5.40057 14.4046 6.50337 14.5967 7.96875H14.5977L15.6543 14.6543H16.6104C16.8561 14.6543 17.0782 14.8022 17.168 15.0322L18.0566 17.2783C18.2141 17.6741 17.9207 18.0996 17.5 18.0996H0.5C0.0792765 18.0996 -0.214105 17.6741 -0.0566406 17.2783L0.832031 15.0293L0.87207 14.9473C0.977905 14.7644 1.17438 14.6504 1.38965 14.6504H2.3457L3.40234 7.96582C3.59058 6.50324 4.84807 5.40039 6.3252 5.40039H11.6719ZM1.38379 16.9004H16.6162L16.2031 15.8535H1.79688L1.38379 16.9004ZM6.32812 6.59961C5.44995 6.59979 4.70329 7.25426 4.59277 8.125L4.5918 8.12793L3.55859 14.6504H14.4453L13.4111 8.13086V8.12891C13.2971 7.25716 12.5526 6.59961 11.6748 6.59961H6.32812Z" fill="#FF4242" stroke="#FF4242" stroke-width="0.2"/>
</g>
<defs>
<clipPath id="clip0_5932_62762">
<rect width="18" height="18" fill="white"/>
</clipPath>
</defs>
</svg>
