<svg width="20" height="20" viewBox="0 0 20 20" fill="none" xmlns="http://www.w3.org/2000/svg">
<mask id="path-1-inside-1_6825_90447" fill="white">
<path d="M10.0002 16.6665C13.6821 16.6665 16.6668 13.6817 16.6668 9.99984C16.6668 6.31794 13.6821 3.33317 10.0002 3.33317C6.31826 3.33317 3.3335 6.31794 3.3335 9.99984C3.3335 13.6817 6.31826 16.6665 10.0002 16.6665ZM15.4019 4.59814C15.707 4.90324 15.7258 5.38574 15.4588 5.71305L15.4019 5.77653L5.77685 15.4015L5.71338 15.4585C5.38607 15.7255 4.90357 15.7066 4.59847 15.4015C4.29337 15.0964 4.27455 14.6139 4.5415 14.2866L4.59847 14.2231L14.2235 4.59814L14.2869 4.54118C14.6143 4.27422 15.0968 4.29305 15.4019 4.59814ZM10.0002 18.3332C5.39779 18.3332 1.66683 14.6022 1.66683 9.99984C1.66683 5.39746 5.39779 1.6665 10.0002 1.6665C14.6025 1.6665 18.3335 5.39746 18.3335 9.99984C18.3335 14.6022 14.6025 18.3332 10.0002 18.3332Z"/>
</mask>
<path d="M15.4019 4.59814L16.8161 3.18393L16.8161 3.18393L15.4019 4.59814ZM15.4588 5.71305L16.9473 7.04887L16.9788 7.01373L17.0087 6.97714L15.4588 5.71305ZM15.4019 5.77653L16.8161 7.19074L16.8543 7.15255L16.8903 7.11235L15.4019 5.77653ZM5.77685 15.4015L7.11268 16.89L7.15288 16.8539L7.19107 16.8157L5.77685 15.4015ZM5.71338 15.4585L6.97746 17.0084L7.01406 16.9785L7.04921 16.947L5.71338 15.4585ZM4.59847 15.4015L3.18425 16.8157L3.18426 16.8157L4.59847 15.4015ZM4.5415 14.2866L3.05303 12.9508L3.02148 12.9859L2.99164 13.0225L4.5415 14.2866ZM4.59847 14.2231L3.18426 12.8089L3.14607 12.8471L3.10999 12.8873L4.59847 14.2231ZM14.2235 4.59814L12.8876 3.10966L12.8474 3.14574L12.8093 3.18393L14.2235 4.59814ZM14.2869 4.54118L13.0229 2.99131L12.9863 3.02116L12.9511 3.0527L14.2869 4.54118ZM10.0002 16.6665L10.0002 18.6665C14.7866 18.6665 18.6668 14.7863 18.6668 9.99984L16.6668 9.99984L14.6668 9.99984C14.6668 12.5772 12.5775 14.6665 10.0002 14.6665L10.0002 16.6665ZM16.6668 9.99984L18.6668 9.99984C18.6668 5.21337 14.7866 1.33317 10.0002 1.33317L10.0002 3.33317L10.0002 5.33317C12.5775 5.33317 14.6668 7.42251 14.6668 9.99984L16.6668 9.99984ZM10.0002 3.33317L10.0002 1.33317C5.21369 1.33317 1.3335 5.21337 1.3335 9.99984L3.3335 9.99984L5.3335 9.99984C5.3335 7.42251 7.42283 5.33317 10.0002 5.33317L10.0002 3.33317ZM3.3335 9.99984L1.3335 9.99984C1.3335 14.7863 5.21369 18.6665 10.0002 18.6665L10.0002 16.6665L10.0002 14.6665C7.42283 14.6665 5.3335 12.5772 5.3335 9.99984L3.3335 9.99984ZM15.4019 4.59814L13.9876 6.01236C13.5589 5.58364 13.5345 4.90808 13.909 4.44897L15.4588 5.71305L17.0087 6.97714C17.9171 5.8634 17.855 4.22285 16.8161 3.18393L15.4019 4.59814ZM15.4588 5.71305L13.9703 4.37723L13.9134 4.44071L15.4019 5.77653L16.8903 7.11235L16.9473 7.04887L15.4588 5.71305ZM15.4019 5.77653L13.9876 4.36232L4.36264 13.9873L5.77685 15.4015L7.19107 16.8157L16.8161 7.19074L15.4019 5.77653ZM5.77685 15.4015L4.44103 13.9131L4.37755 13.97L5.71338 15.4585L7.04921 16.947L7.11268 16.89L5.77685 15.4015ZM5.71338 15.4585L4.44929 13.9086C4.9084 13.5342 5.58396 13.5586 6.01268 13.9873L4.59847 15.4015L3.18426 16.8157C4.22317 17.8547 5.86373 17.9167 6.97746 17.0084L5.71338 15.4585ZM4.59847 15.4015L6.01269 13.9873C6.4414 14.416 6.46583 15.0916 6.09137 15.5507L4.5415 14.2866L2.99164 13.0225C2.08326 14.1363 2.14535 15.7768 3.18425 16.8157L4.59847 15.4015ZM4.5415 14.2866L6.02998 15.6224L6.08695 15.559L4.59847 14.2231L3.10999 12.8873L3.05303 12.9508L4.5415 14.2866ZM4.59847 14.2231L6.01268 15.6374L15.6377 6.01236L14.2235 4.59814L12.8093 3.18393L3.18426 12.8089L4.59847 14.2231ZM14.2235 4.59814L15.5593 6.08663L15.6228 6.02966L14.2869 4.54118L12.9511 3.0527L12.8876 3.10966L14.2235 4.59814ZM14.2869 4.54118L15.551 6.09104C15.0919 6.4655 14.4164 6.44108 13.9876 6.01236L15.4019 4.59814L16.8161 3.18393C15.7772 2.14502 14.1366 2.08294 13.0229 2.99131L14.2869 4.54118ZM10.0002 18.3332L10.0002 16.3332C6.50236 16.3332 3.66683 13.4976 3.66683 9.99984L1.66683 9.99984L-0.33317 9.99984C-0.333171 15.7068 4.29322 20.3332 10.0002 20.3332L10.0002 18.3332ZM1.66683 9.99984L3.66683 9.99984C3.66683 6.50203 6.50236 3.6665 10.0002 3.6665L10.0002 1.6665L10.0002 -0.333496C4.29322 -0.333497 -0.33317 4.29289 -0.33317 9.99984L1.66683 9.99984ZM10.0002 1.6665L10.0002 3.6665C13.498 3.6665 16.3335 6.50203 16.3335 9.99984L18.3335 9.99984L20.3335 9.99984C20.3335 4.29289 15.7071 -0.333496 10.0002 -0.333496L10.0002 1.6665ZM18.3335 9.99984L16.3335 9.99984C16.3335 13.4976 13.498 16.3332 10.0002 16.3332L10.0002 18.3332L10.0002 20.3332C15.7071 20.3332 20.3335 15.7068 20.3335 9.99984L18.3335 9.99984Z" fill="#FF4242" mask="url(#path-1-inside-1_6825_90447)"/>
</svg>
