<svg width="60" height="60" viewBox="0 0 60 60" fill="none" xmlns="http://www.w3.org/2000/svg">
<g clip-path="url(#clip0_3647_38764)">
<circle cx="30" cy="30" r="30" fill="#F5F5F5"/>
<path d="M56.5989 58.3979C56.5989 60.8946 53.2974 63.3567 50.4726 63.3567H9.52241C6.69806 63.3562 3.39844 60.8944 3.39844 58.3979C3.39851 53.1953 7.02326 44.7567 11.4006 41.3599C15.7254 38.004 21.9946 36.1067 29.997 36.1066C38 36.1066 44.2709 38.0038 48.5958 41.3599C52.973 44.7566 56.5988 53.1954 56.5989 58.3979ZM40.9234 20.2493C40.9234 26.283 36.0308 31.1757 29.997 31.1757C23.9638 31.1752 19.073 26.2827 19.073 20.2493C19.0735 14.2163 23.9641 9.32569 29.997 9.3252C36.0304 9.3252 40.9229 14.216 40.9234 20.2493Z" fill="#CFCFCF"/>
</g>
<defs>
<clipPath id="clip0_3647_38764">
<path d="M0 30C0 13.4315 13.4315 0 30 0C46.5685 0 60 13.4315 60 30C60 46.5685 46.5685 60 30 60C13.4315 60 0 46.5685 0 30Z" fill="white"/>
</clipPath>
</defs>
</svg>
