<svg width="90" height="90" viewBox="0 0 90 90" fill="none" xmlns="http://www.w3.org/2000/svg">
<path d="M0 10C0 4.47715 4.47715 0 10 0H80C85.5229 0 90 4.47715 90 10V80C90 85.5229 85.5229 90 80 90H10C4.47715 90 0 85.5229 0 80V10Z" fill="#D9D9D9"/>
<path d="M31.5796 29.4869C28.4039 29.4869 25.8296 32.0612 25.8296 35.2369V53.9244C25.8296 57.3647 28.6185 60.1536 32.0588 60.1536H57.9338C61.374 60.1536 64.1629 57.3647 64.1629 53.9244V39.0703C64.1629 38.0117 63.3048 37.1536 62.2463 37.1536H60.3296V31.4036C60.3296 30.345 59.4715 29.4869 58.4129 29.4869H31.5796ZM31.5796 33.3203H56.4963V37.1536H31.5796C30.521 37.1536 29.6629 36.2955 29.6629 35.2369C29.6629 34.1784 30.521 33.3203 31.5796 33.3203ZM31.5796 40.9869H60.3296V53.9244C60.3296 55.2477 59.2568 56.3203 57.9338 56.3203H32.0588C30.7355 56.3203 29.6629 55.2477 29.6629 53.9244L29.674 40.6498C29.674 40.6498 30.3602 40.9929 31.5796 40.9869ZM54.5796 46.7369C53.521 46.7369 52.6629 47.595 52.6629 48.6536C52.6629 49.7122 53.521 50.5703 54.5796 50.5703C55.6382 50.5703 56.4963 49.7122 56.4963 48.6536C56.4963 47.595 55.6382 46.7369 54.5796 46.7369Z" fill="white"/>
</svg>
