<svg width="10" height="10" viewBox="0 0 10 10" fill="none" xmlns="http://www.w3.org/2000/svg">
<path d="M4.25 6L4.25391 6.07617C4.29219 6.45449 4.61159 6.75 5 6.75C5.38841 6.75 5.70781 6.45449 5.74609 6.07617L5.75 6L5.75 1.25C5.75 0.835787 5.41421 0.5 5 0.5C4.58579 0.500001 4.25 0.835787 4.25 1.25L4.25 6Z" fill="black"/>
<path d="M4.25 8.75L4.25391 8.82715C4.29242 9.20523 4.61175 9.5 5 9.5C5.38825 9.5 5.70758 9.20523 5.74609 8.82715L5.75 8.75L5.75 8.5293C5.75 8.11508 5.41421 7.7793 5 7.7793C4.58579 7.7793 4.25 8.11508 4.25 8.5293L4.25 8.75Z" fill="black"/>
</svg>
