<svg width="3" height="9" viewBox="0 0 3 9" fill="none" xmlns="http://www.w3.org/2000/svg">
<path d="M0.75 5.51465L0.753906 5.59082C0.792194 5.96914 1.11159 6.26465 1.5 6.26465C1.88841 6.26465 2.20781 5.96914 2.24609 5.59082L2.25 5.51465L2.25 0.764648C2.25 0.350435 1.91421 0.0146485 1.5 0.0146484C1.08579 0.0146493 0.75 0.350435 0.75 0.764648L0.75 5.51465Z" fill="black"/>
<path d="M0.75 8.23535L0.753906 8.3125C0.792416 8.69058 1.11175 8.98535 1.5 8.98535C1.88825 8.98535 2.20758 8.69059 2.24609 8.3125L2.25 8.23535L2.25 8.01465C2.25 7.60044 1.91421 7.26465 1.5 7.26465C1.08579 7.26465 0.750002 7.60044 0.75 8.01465L0.75 8.23535Z" fill="black"/>
</svg>
